<?xml version="1.0" standalone="no"?>
<!DOCTYPE svg PUBLIC "-//W3C//DTD SVG 1.1//EN" "http://www.w3.org/Graphics/SVG/1.1/DTD/svg11.dtd" >
<svg xmlns="http://www.w3.org/2000/svg" xmlns:xlink="http://www.w3.org/1999/xlink" version="1.1">
<metadata>
Created by FontForge 20190801 at Tue Dec 20 22:54:43 2016
 By Jimmy Wärting
Copyright (c) 2016 by Jorse. All rights reserved.
</metadata>
<defs>
<font id="Hermes" horiz-adv-x="833" >
  <font-face 
    font-family="Hermes"
    font-weight="400"
    font-stretch="normal"
    units-per-em="1000"
    panose-1="0 0 0 0 0 0 0 0 0 0"
    ascent="800"
    descent="-200"
    x-height="306"
    cap-height="927"
    bbox="-471.8 -502.267 1976.53 1109.56"
    underline-thickness="50"
    underline-position="-100"
    unicode-range="U+000D-E01B"
  />
<missing-glyph horiz-adv-x="360" 
 />
    <glyph glyph-name="t_t" unicode="tt" horiz-adv-x="784" 
d="M-215 543q33 -2 78 -3.5t98.5 -2.5t113 -1t122.5 1q29 32 53.5 59.5t44.5 50.5q6 9 13 10.5t12.5 -1.5t8 -9t-1.5 -12q-16 -18 -38.5 -43t-49.5 -54q97 2 193 5.5t183 10.5l12 14q5 8 12 9.5t12.5 -1t8.5 -7.5t0 -11q66 6 120.5 13.5t91.5 18.5q12 3 16 -10t-10 -16
q-49 -13 -112 -22t-135 -16q-52 -57 -122.5 -134t-150.5 -190q-28 -39 -54 -87.5t-47 -91.5q-5 -9 -12 -24.5t-13.5 -32.5t-10.5 -33t-1 -26q2 -7 7 -8t10 0q13 1 29 7.5t32.5 15.5t31.5 18.5t26 17.5q35 25 70 52t69 54q67 54 135 112.5t138 108.5l15 11q11 7 19 -3
q7 -11 -3 -19q-64 -45 -127 -99t-124 -103q-39 -31 -78.5 -62.5t-80.5 -60.5q-28 -20 -63.5 -42t-67.5 -31q-42 -12 -58.5 -3t-16 32t15 56.5t33.5 71.5q22 44 48.5 93.5t54.5 90.5q-27 -23 -54.5 -47t-54.5 -48t-52.5 -46t-47.5 -40q-39 -31 -78.5 -62.5t-80.5 -60.5
q-28 -20 -63.5 -42t-67.5 -31q-18 -5 -36 -2.5t-26 22.5q-5 13 -2 32t9.5 38t14.5 37t14 30q11 22 28 51.5t35.5 60t37 59.5t32.5 49q57 83 115.5 156t111.5 134q-115 -1 -216 2t-170 8q-13 0 -13 14q1 5 5 9t9 3zM-34 202q-14 -20 -32 -48t-36.5 -58t-35.5 -59t-27 -50
q-5 -9 -12 -24.5t-13.5 -32.5t-10.5 -33t-1 -26q2 -7 7 -8t10 0q13 1 29 7.5t32.5 15.5t31.5 18.5t26 17.5q35 25 70 52t69 54q33 27 71.5 61t78.5 69.5t79 68.5t74 58l15 11h1q58 78 105 130t88 96q-89 -7 -184 -10.5t-189 -4.5q-58 -66 -123.5 -145.5t-122.5 -159.5z" />
    <glyph glyph-name=".notdef" horiz-adv-x="360" 
 />
    <glyph glyph-name="NULL" horiz-adv-x="0" 
 />
    <glyph glyph-name="NULL" horiz-adv-x="0" 
 />
    <glyph glyph-name="nonmarkingreturn" unicode="&#xd;" horiz-adv-x="360" 
 />
    <glyph glyph-name="space" unicode=" " horiz-adv-x="360" 
 />
    <glyph glyph-name="u" unicode="u" horiz-adv-x="592" 
d="M23 279q-4 -11 -10.5 -25t-12.5 -26q-5 -9 -14 -27.5t-16.5 -39.5t-10 -39.5t6.5 -27.5q6 -6 18.5 -3t25.5 10t24.5 15.5t17.5 12.5q31 25 60.5 53.5t57.5 57.5q22 23 43.5 46.5t44.5 46.5q5 5 15.5 15t17.5 12q8 2 13 -4t3 -14q-2 -5 -8 -14.5t-9 -14.5
q-6 -11 -17.5 -30.5t-20.5 -41.5t-11.5 -42t8.5 -31q7 -7 20.5 -7.5t29.5 2t30.5 6.5t22.5 7q43 14 86.5 34t82.5 41q20 11 39.5 22t37.5 24q5 3 10 2t8 -5q7 -12 -3 -19q-15 -11 -30.5 -20t-31.5 -18q-42 -23 -86.5 -44.5t-89.5 -37.5q-14 -5 -34 -11t-40.5 -9t-39.5 -0.5
t-31 14.5q-11 11 -14 25.5t-1 31t8 33.5t14 33q-11 -11 -21 -22l-20 -22l-42.5 -42.5t-54 -50t-57 -44.5t-50.5 -25q-20 -5 -35 2t-21 27q-5 16 -1.5 36.5t11 41.5t17 40.5t16.5 33.5q5 9 10.5 20t8.5 20q4 13 16 9t9 -17z" />
    <glyph glyph-name="q" unicode="q" horiz-adv-x="463" 
d="M195 315q-16 19 -40 20t-46 -5q-27 -8 -53.5 -24t-50.5 -37t-42.5 -46.5t-28.5 -51.5q-2 -4 -4 -12.5t1 -11.5q2 -3 11 -1.5t12 2.5q30 8 65.5 30t60.5 41q29 23 56.5 46.5t55.5 47.5q1 0 3 2zM218 311l1 -1l-1 -8q-1 -4 -6.5 -12.5t-8.5 -12.5q-14 -20 -29 -39.5
t-30 -37.5q-9 -11 -17.5 -21t-17.5 -21q39 15 78.5 30t79.5 30q42 16 83 31t83 32q8 3 16 6.5t16 7.5l4 2q11 7 18 -4q7 -12 -4 -19q-14 -8 -27 -12q-30 -13 -61 -24.5t-61 -22.5q-13 -5 -41.5 -15.5t-65 -24.5t-77 -30t-77.5 -31l-36 -42h3q35 -6 50 -27.5t2 -56.5
q-10 -27 -34 -55.5t-53.5 -53.5t-61.5 -44.5t-59 -28.5q-11 -4 -28.5 -7t-26.5 4q-7 5 -7.5 13t2 16t7 16t7.5 13q13 22 29 43t31 41q20 26 40.5 51t41.5 50q-3 -1 -10 -1q-5 0 -12 -0.5t-14 0t-12 3.5t-6 10q-2 12 9 19.5t19 12.5q19 11 39.5 20t40.5 17q5 2 11 5t12 5
q17 20 33 39.5t33 39.5q4 6 7 9q-11 -8 -21.5 -17t-21.5 -17q-12 -9 -34 -23.5t-46.5 -27t-48.5 -19t-39 1.5q-17 9 -16 27t7 33q19 47 57 86.5t82 63.5q19 10 42 18.5t46.5 10t45 -5.5t36.5 -28q5 -9 -1 -17zM16 47q-50 -59 -95 -116q-15 -20 -30.5 -40.5t-28.5 -41.5
q-3 -4 -7 -11t-6 -12q15 0 33.5 7t36 17.5t33.5 21.5t27 20t25.5 23t28 30t24 32.5t13.5 31.5q4 18 -5.5 25.5t-25.5 10.5q-6 1 -11.5 1.5t-11.5 0.5zM19 92q-13 -5 -23.5 -10t-18.5 -10q7 1 13.5 1.5t13.5 0.5z" />
    <glyph glyph-name="a" unicode="a" horiz-adv-x="432" 
d="M88 299q-5 2 -15.5 1t-15.5 -3q-12 -3 -29.5 -14t-36.5 -27.5t-37 -35.5t-32 -38t-21.5 -35.5t-4.5 -27.5q0 -1 1 -2q4 -2 14.5 1.5t14.5 5.5q24 10 43.5 24t36 30.5t32.5 34.5t34 37q5 7 13 7q10 -2 13 -10v-8q-1 -1 -1 -2.5t-1 -2.5q-4 -21 6.5 -42t28.5 -32
q19 -13 42.5 -13.5t47.5 5.5t46.5 17t39.5 22q35 22 67.5 49t61.5 56q9 9 19 -1q8 -9 -1 -18q-32 -32 -67.5 -61t-73.5 -52q-21 -12 -45.5 -23t-50 -16.5t-51 -4t-47.5 15.5q-20 13 -34 34t-16 44q-13 -16 -35 -39t-47 -43t-50 -32.5t-43 -8.5q-20 3 -23 18.5t0 31.5
q5 22 20.5 45.5t36.5 45.5t44 41t43 32q8 5 20.5 10.5t26 8.5t26 2t20.5 -9q9 -9 6 -24q-4 -12 -17 -9q-11 4 -9 15z" />
    <glyph glyph-name="w" unicode="w" horiz-adv-x="510" 
d="M20 284q-22 -29 -43.5 -58.5t-41.5 -59.5q-4 -5 -10 -16t-11 -20q8 3 15.5 7t11.5 6q43 23 81.5 58t76.5 67q4 2 8 5.5t9 3.5q8 0 12 -6.5t-1 -14.5q-4 -6 -9 -13l-10 -14q-8 -11 -21.5 -30.5t-26.5 -41.5t-21.5 -43.5t-6.5 -34.5q2 -8 7 -10.5t12 -3.5q12 -1 26.5 6.5
t29.5 18.5t28 23.5t21 20.5q23 23 48.5 55.5t42.5 62.5q-6 7 -9.5 15t0.5 18q3 7 10.5 12t14.5 7q20 5 25 -14q3 -12 -7 -30q10 -5 21 -9t19 -6q52 -11 101.5 3.5t90.5 46.5l2 1q10 9 19 -2q7 -10 -2 -19q-31 -24 -66 -39t-74 -20q-29 -4 -63 0.5t-60 19.5q-5 -7 -8.5 -12.5
t-6.5 -10.5q-13 -19 -37 -49.5t-52.5 -58.5t-58.5 -48t-55 -18q-15 1 -27 8.5t-17 23.5q-6 22 7 53.5t32 61.5q-43 -38 -89 -65q-8 -5 -23 -11.5t-24 -8.5t-16.5 1.5t-9.5 13.5q-1 6 2 15t7.5 18t10 17t8.5 14q20 31 42 61.5t45 59.5q4 4 9 5t10 -3q5 -3 5.5 -8.5
t-3.5 -10.5z" />
    <glyph glyph-name="v" unicode="v" horiz-adv-x="519" 
d="M21 272q-11 -17 -20 -37t-17 -37q-14 -30 -26 -62.5t-22 -64.5q8 5 15 10l14 10q38 27 75.5 55.5t74.5 57.5q17 14 35 28.5t36 28.5q2 3 3.5 6l3.5 7q8 12 22 23t30 9q11 -2 12 -10q2 -6 -0.5 -9.5t-7.5 -7.5q-10 -9 -20 -17.5t-20 -16.5q-2 -8 -1 -15.5t8 -12.5
q11 -8 28.5 -9t36.5 1.5t37 7t29 8.5q46 14 91.5 33.5t88.5 40.5q5 3 10 1t7 -7q3 -5 1 -10t-7 -7q-27 -14 -68.5 -33t-86 -34.5t-87 -23.5t-72.5 0q-18 5 -28.5 15t-13.5 23l-84 -66t-86 -65q-18 -14 -38.5 -28t-40.5 -25q-4 -2 -10 -5.5t-11 -2.5q-7 0 -11 9v7l1 2
q10 39 24.5 79t31.5 77q8 20 18.5 41.5t21.5 39.5q7 11 18 4q12 -7 5 -18z" />
    <glyph glyph-name="o" unicode="o" horiz-adv-x="372" 
d="M74 282q-8 2 -11 2q5 -6 11 -11.5t11 -7.5q3 -3 11 -7q6 24 5 41q-2 12 -7.5 14.5t-16.5 -1.5q-2 -1 -3.5 -1t-3.5 -1q2 -1 4.5 -1t4.5 -1q5 -1 8.5 -5.5t1.5 -10.5q-2 -12 -15 -10zM33 282q-18 -4 -34 -14.5t-30 -26.5q-8 -10 -15.5 -23t-12 -27.5t-6 -29t1.5 -27.5
q4 -14 14 -22.5t25 -5.5q13 3 25.5 11.5t24 20.5t21 24.5t16.5 23.5q5 9 12 21t12 26q-16 8 -32 20.5t-22 28.5zM120 248q24 -8 50.5 -11.5t49.5 -1.5q42 2 84 16.5t72 44.5q4 5 9.5 5t9.5 -5q9 -9 0 -18q-23 -24 -53 -39t-63 -23q-38 -9 -83.5 -8t-83.5 15
q-9 -23 -23 -45.5t-30 -42t-33.5 -33.5t-35.5 -20q-29 -9 -50.5 4.5t-28.5 42.5q-5 18 -2.5 37.5t9.5 38t18 35.5t23 30q33 33 73 39q4 10 12.5 16t18.5 10q29 11 47 -0.5t18 -42.5q0 -18 -8 -44z" />
    <glyph glyph-name="e" unicode="e" horiz-adv-x="445" 
d="M-5 258q19 0 42.5 1t46 4.5t43.5 9.5t36 16q14 9 18 20t-15 19q-21 8 -47.5 2t-46.5 -15q-20 -10 -40 -25t-37 -32zM-24 235q-9 -13 -17 -28.5t-11 -31.5t1.5 -30.5t19.5 -26.5q9 -8 22.5 -13.5t24.5 -7.5q22 -5 57 5.5t72 27.5t70.5 35.5t52.5 29.5q36 21 72 42.5
t72 41.5q11 5 20.5 10t20.5 10q12 5 17 -6q2 -5 0.5 -10.5t-6.5 -7.5q-14 -6 -27.5 -13t-27.5 -15q-50 -29 -98.5 -58t-99.5 -56l-44 -22t-54 -23.5t-55 -16t-48 -0.5q-17 3 -34 11t-30 20q-22 21 -25 46.5t6 51t25.5 49t34.5 39.5q25 23 57 41.5t65 25.5q22 5 48.5 2.5
t41.5 -21.5q12 -16 7.5 -32.5t-18.5 -28.5q-17 -15 -43 -24t-54.5 -13.5t-56.5 -5.5t-50 0q-5 0 -8 3z" />
    <glyph glyph-name="c" unicode="c" horiz-adv-x="415" 
d="M125 323q6 2 12.5 6.5t7.5 8.5q1 2 -2.5 4.5t-5.5 2.5q-9 4 -20.5 2.5t-22.5 -6.5t-21 -11.5t-17 -11.5q-11 -8 -22 -19t-21 -24t-16.5 -26.5t-7.5 -26.5t5 -21.5t15 -14t20 -8.5t21 -4q34 -5 84.5 8t103.5 33.5t102.5 43.5t82.5 38q5 2 10 0.5t7 -6.5q3 -5 1 -10.5
t-7 -7.5q-36 -16 -81.5 -37t-94 -40.5t-96 -33.5t-85.5 -16q-13 0 -27.5 1.5t-29 5.5t-26.5 11.5t-20 18.5q-10 14 -11 30t4 31.5t14 30t18 25.5q11 13 26.5 27t33 25t36 17t35.5 5q11 -1 21 -6t16 -14q7 -11 5 -20.5t-9 -17t-17 -13t-19 -8.5q-8 -2 -15.5 -0.5t-9.5 9.5
q-2 6 0 10t6 8q8 8 17 1z" />
    <glyph glyph-name="l" unicode="l" horiz-adv-x="501" 
d="M41 311q61 32 120.5 66t116.5 72q37 25 71.5 50.5t66.5 55.5q19 18 42 41t45 48.5t40.5 51.5t29.5 50q2 5 6.5 17.5t0.5 18.5q-1 2 -5 2t-9 -0.5t-9.5 -2t-6.5 -1.5q-29 -10 -67.5 -34.5t-77.5 -54.5t-74.5 -60.5t-58.5 -52.5q-63 -60 -121.5 -128t-109.5 -139zM9 265
q-20 -30 -41.5 -66t-40 -73t-31.5 -73t-14 -65q-3 -63 59 -63q28 0 71.5 21t89.5 51t87.5 61t66.5 51q44 34 86.5 68.5t87.5 67.5q16 12 33.5 25t34.5 23q2 2 4 2.5t4 2.5q12 5 18 -6q2 -5 0.5 -10.5t-6.5 -7.5q-4 -2 -6 -4q-16 -9 -32.5 -21t-31.5 -23q-42 -32 -82.5 -65
t-82.5 -65q-29 -23 -69 -53t-83.5 -59t-86 -52t-75.5 -31q-20 -5 -41.5 -3t-38.5 13q-27 16 -31.5 47t3 65.5t21.5 67.5t25 55q33 64 75.5 127t87.5 120q51 66 110 130t122 118q35 30 73 60t76 56q11 7 29.5 18.5t38.5 20.5t39.5 13t32.5 -3q18 -9 17 -28t-7 -35
q-10 -25 -29.5 -53.5t-43.5 -56t-48.5 -53t-45.5 -44.5q-33 -31 -68 -57.5t-73 -51.5q-67 -45 -138.5 -85t-143.5 -76q0 -1 -2 -1z" />
    <glyph glyph-name="i" unicode="i" horiz-adv-x="304" 
d="M16 270q-33 -51 -30.5 -71.5t27 -21.5t65 13t83 34t81 41t59.5 33q5 3 10.5 1t7.5 -7t0.5 -10.5t-6.5 -7.5q-18 -11 -52 -28.5t-71.5 -34.5t-72 -32t-54.5 -22q-45 -15 -70 -9t-32.5 26t3 51.5t36.5 66.5q5 4 10.5 3t8.5 -6q3 -3 3 -7q0 -8 -6 -12zM18 326l7 9q9 11 19 3
q5 -3 6 -8.5t-3 -10.5l-5 -7q-7 -11 -18 -5t-6 19z" />
    <glyph glyph-name="r" unicode="r" horiz-adv-x="299" 
d="M12 285q-6 4 -8 11q-2 5 -1.5 12.5t2.5 15t5.5 14t8.5 9.5q6 3 14.5 1t13.5 -7q8 -9 8 -21.5t-5 -23.5q17 -8 29.5 -21.5t5.5 -34.5q-5 -18 -23 -33.5t-32 -27.5q-11 -10 -23.5 -20.5t-22.5 -21.5q23 8 62 26.5t79 39.5t74.5 39t48.5 26q13 8 26 15t27 14q2 1 2.5 1
t2.5 1q5 2 10.5 0.5t7.5 -6.5q5 -13 -7 -18l-18 -9q-54 -29 -107 -58t-108 -56q-20 -10 -42.5 -20.5t-44.5 -18.5q-10 -4 -25 -7.5t-23 7.5q-8 9 -2 19t12 18q12 13 27 26.5t29 25.5q4 4 11.5 9.5t14.5 12.5t12.5 13.5t6.5 12.5q1 8 -10 15t-17 10q-4 2 -8 3.5t-6 5.5
q-4 0 -7 1z" />
    <glyph glyph-name="x" unicode="x" horiz-adv-x="397" 
d="M421 293q3 -4 2.5 -9.5t-4.5 -8.5q-9 -8 -20 -15q-39 -29 -81 -56.5t-84 -52.5q-32 -19 -68.5 -38t-71.5 -32q-25 -10 -54 -14.5t-52 15.5q-11 11 -17 27q-9 -10 -18 -19t-17 -18q-11 -12 -23 -24.5t-23 -24.5q-2 -2 -1.5 -2t-1.5 -2q-5 -8 -15 -6q-13 4 -9 17l3 6l3 3
t3 4q17 18 34.5 36.5t34.5 36.5l12 12t11 12q-1 19 2 40t8.5 41t12 37.5t12.5 31.5q5 12 17 7q5 -2 7 -7t0 -10q-8 -20 -18 -51t-14 -61q25 26 49.5 51t50.5 50q8 8 17 16.5t18 16.5q3 3 4.5 3.5t5.5 2.5q12 4 16 -9q4 -11 -7 -15q0 -1 -1.5 -2t-2.5 -2q-11 -9 -21 -19
l-20 -20q-27 -27 -54 -54.5t-54 -55.5q1 -5 3 -10l4 -10q6 -11 14.5 -15t18.5 -4t20.5 3t19.5 6q32 11 66.5 28t63.5 34q44 25 87.5 53.5t84.5 57.5q15 11 28 22q11 7 19 -3z" />
    <glyph glyph-name="F" unicode="F" 
d="M24 601q-27 16 -31.5 45.5t4.5 62.5t27.5 63t38.5 48q34 30 79.5 46.5t97.5 23.5t107.5 6t110 -6t105.5 -11.5t93 -11.5q17 -2 42.5 -6.5t56.5 -8.5t64.5 -7t66.5 -3q38 38 69 58q20 13 43 20t40.5 6t24.5 -12t-5 -33q-18 -36 -61 -50t-97 -16q-19 -18 -36 -36t-31 -33.5
t-24 -26.5t-13 -15q-14 -17 -27 -33.5t-27 -33.5q35 -5 68.5 -11t65.5 -12q20 20 31.5 25.5t16 2t3 -13.5t-7 -19.5t-15 -17t-19.5 -6.5q-9 -11 -18.5 -22.5t-18 -21.5t-15 -17.5t-8.5 -10.5q-3 -5 -8.5 -5.5t-10.5 2.5q-11 9 -2 20l47 57l2 2q-37 5 -70 10.5t-63 9.5
q-131 -167 -250 -339t-245 -343q-36 -48 -60 -63t-35.5 -3t-10 48t16.5 90q12 44 32.5 105t47.5 127.5t61 133t74.5 122t86.5 95t97 51.5q41 10 85 11t89 -4q41 51 78.5 95.5t71.5 80.5q-60 2 -116 10.5t-90 13.5q-40 4 -88.5 10.5t-101.5 11.5t-107.5 6t-105 -5t-94 -21
t-75.5 -43q-15 -13 -30.5 -38t-24.5 -51.5t-8.5 -50t17.5 -33.5q12 -5 7 -18q-7 -12 -18 -7zM931 844q36 4 63.5 15.5t39.5 34.5q2 2 2 7q-14 10 -43 -8t-62 -49zM688 613q-54 6 -100 3t-88 -24t-82 -63.5t-82 -114.5q-10 -17 -30 -58.5t-43.5 -96t-47.5 -114.5t-42 -113.5
t-26.5 -93.5t-1.5 -54q7 2 16 10t17.5 18t15 18.5t9.5 12.5q37 50 91.5 128.5t119 169.5t135 188t139.5 184z" />
    <glyph glyph-name="U" unicode="U" horiz-adv-x="1193" 
d="M27 493q-25 38 -23 75.5t20 72t47 64t58 52.5q39 31 88.5 59.5t103.5 51t109 37.5t105 18q22 2 47.5 0.5t48 -9t40 -23t25.5 -40.5q10 -32 2 -66t-21 -64q-43 -103 -85 -205.5t-84 -205.5q-11 -27 -22.5 -53.5t-22.5 -53.5q-10 -23 -21.5 -54t-19.5 -64t-11.5 -64.5
t3.5 -55.5q4 -16 12.5 -24t19.5 -10.5t23.5 -0.5t24.5 7q36 13 74.5 42t75.5 64t70 71.5t57 65.5q52 63 99 130t92 135.5t89 137.5t89 138q30 45 61 89.5t65 87.5q3 4 7 9t9 6q12 4 16 -9v-2q1 -5 -1 -9t-5 -9q-10 -17 -20.5 -34t-20.5 -34q-75 -121 -148.5 -242
t-140.5 -247q-26 -51 -52 -102.5t-46 -104.5q-22 -54 -34 -107.5t-6 -111.5q3 -31 12.5 -60.5t26.5 -56.5q7 -11 -4 -18t-18 4q-20 30 -30.5 64t-13.5 69q-5 58 6.5 111.5t32.5 107.5q20 53 46 105t52 103q39 73 81 147q-34 -53 -68.5 -104.5t-72.5 -102.5
q-30 -41 -68.5 -89t-81.5 -94.5t-88 -87t-89 -66.5q-15 -8 -33 -16t-37 -11.5t-37 -0.5t-32 18q-22 22 -24 60.5t6.5 81t22.5 82.5t25 66q11 27 23 54t23 55q43 103 85 206t85 206q7 16 13 36t7 40t-5.5 38t-24.5 30q-20 14 -49 17.5t-60.5 1t-61 -9t-51.5 -12.5
q-44 -13 -93 -33.5t-96 -47.5t-88.5 -59.5t-70.5 -68.5q-14 -17 -25 -36t-15.5 -39.5t-1.5 -41t17 -41.5q7 -11 -4 -18t-18 3z" />
    <glyph glyph-name="A" unicode="A" horiz-adv-x="1729" 
d="M1749 275q-95 4 -190.5 1.5t-192.5 -10.5q-29 -51 -54 -104t-43 -106q-10 -28 -18 -59t-12.5 -62.5t-3 -63t11.5 -59.5q2 -5 -0.5 -10t-7.5 -7q-12 -3 -17 8q-11 33 -12.5 68t3.5 71t14.5 70.5t21.5 65.5q17 48 38.5 94t46.5 92q-23 -2 -45 -4t-45 -4q-65 -7 -130 -15
t-130 -18q-77 -52 -155.5 -98t-159.5 -86q-76 -37 -153.5 -71t-156.5 -63q-15 -5 -44 -15.5t-65.5 -21t-76 -19.5t-74 -12t-60 2t-34.5 23q-10 19 5.5 41.5t40.5 43t52.5 36.5t41.5 24q75 42 159.5 74.5t166.5 57.5q66 21 132 37t134 30q59 12 118 22.5t119 20.5
q121 81 234 171.5t222 184.5q92 80 180 161.5t177 163.5l32 30l32 30q5 5 11 9t13 0q13 -7 6 -19q-3 -6 -12 -17.5t-14 -16.5q-32 -40 -64 -79t-64 -79q-79 -100 -155 -203t-143 -212q-24 -37 -47 -79q92 7 184 9t184 -1q6 0 9.5 -4.5t3.5 -9.5q0 -13 -14 -13zM920 213
q-45 -7 -88 -15t-88 -17q-68 -14 -133.5 -30.5t-131.5 -36.5q-80 -25 -162 -56.5t-155 -71.5q-14 -7 -33.5 -18.5t-39 -25t-35.5 -28t-23 -28.5q-2 -4 -3 -8t3 -8q6 -5 18 -6.5t25.5 -1.5t26.5 1.5t21 2.5q45 7 90.5 20t88.5 27q85 29 169 65t165 75q51 24 99 49.5t96 54.5
q23 14 45 28t45 28zM1350 292q16 29 32.5 56.5t33.5 53.5q72 114 152 222.5t165 214.5q5 5 9.5 11t9.5 12q-108 -100 -215.5 -197.5t-220.5 -191.5q-68 -56 -138.5 -110t-144.5 -106q52 8 103 14t103 11q28 3 55.5 5.5t55.5 4.5z" />
    <glyph glyph-name="X" unicode="X" horiz-adv-x="956" 
d="M70 455q-27 30 -26 74t21.5 93t57.5 99t82.5 92t95.5 72.5t96.5 40t86.5 -6t66 -64.5q17 -33 29.5 -78t21.5 -99t15.5 -115.5t11.5 -126.5l2 -30l2 -30q99 109 192.5 220t190.5 223q12 14 24 27.5t23 27.5q16 18 23.5 26.5t12.5 14.5t11.5 13t20.5 22q12 10 20 2
q9 -8 -2 -19q-14 -14 -20 -20.5t-11.5 -12.5t-12.5 -14t-22 -26q-112 -131 -222 -261t-226 -257q4 -71 8.5 -141.5t10 -136.5t12.5 -124.5t17 -106.5l16 -64q4 -13 -9 -18q-6 -3 -11 -1.5t-7 6.5l-8 32l-8 34q-10 45 -17 101.5t-12.5 120t-9.5 132t-8 137.5
q-59 -63 -119 -124t-123 -121q-42 -39 -80.5 -73t-78.5 -63t-83.5 -54t-96.5 -47q-5 -2 -9.5 0.5t-5.5 7.5q0 13 13 17q8 4 15 7l14 6q55 26 104.5 59.5t96 72t91 81t88.5 86.5q45 45 87 89t84 90q-1 16 -1.5 31.5t-2.5 31.5q-5 67 -11.5 130t-15.5 118.5t-21 101.5t-29 78
q-23 43 -58 56t-76.5 3t-86 -38t-84.5 -66.5t-73.5 -83.5t-52.5 -88.5t-21.5 -81.5t19.5 -63q9 -8 -2 -19q-5 -5 -10.5 -5.5t-8.5 3.5z" />
    <glyph glyph-name="T" unicode="T" horiz-adv-x="784" 
d="M844 773q-71 -107 -140.5 -219t-139 -224.5t-140 -222.5t-143.5 -214q-21 -31 -39 -49q-8 -8 -15 -14t-13 -7.5t-9.5 2.5t-4.5 15q0 4 12.5 29.5t31.5 62t42.5 80t45 83t38 70.5t22.5 43q15 31 40 82t49.5 111t44.5 124.5t27.5 123t-3.5 106.5t-48 75l-4 2
q-52 -4 -106 -6t-105.5 -2.5t-98.5 1.5t-84 7.5t-62.5 15t-33.5 24.5q-10 17 -1 28t28.5 17t44.5 8t48.5 2t40 -1t18.5 -1q32 -3 74 -6t85.5 -10t85 -18.5t72.5 -30.5q54 4 104.5 8t93 7.5t74 6.5t47.5 4q15 1 51.5 5t85.5 9.5t106.5 10t115 6.5t110.5 0t93.5 -10.5
t63.5 -24.5t20 -42l-3 -10q-3 -13 -17 -10q-12 5 -9 17q4 21 -19.5 33t-66.5 17.5t-100 5.5t-118.5 -3.5t-122 -9t-111.5 -11t-87 -9.5t-48 -5q-28 -2 -90 -8t-141 -12q37 -38 43 -100.5t-9 -139t-47 -162t-71.5 -170.5t-82 -164.5t-78.5 -142.5q69 99 135 204t131.5 210.5
l131 211t133.5 206.5q7 11 19 4q10 -8 3 -19zM443 857q-42 13 -96.5 23t-108.5 15.5t-101 6t-74 -4.5q-14 -3 -17.5 -4.5t-13.5 -7.5q12 -15 51 -22.5t95.5 -10t125 -1t139.5 5.5z" />
    <glyph glyph-name="W" unicode="W" horiz-adv-x="1671" 
d="M26 490q-24 38 -22.5 75.5t18.5 72.5t45 65.5t57 53.5q38 31 87 60.5t102 52.5t107.5 38t104.5 18q25 1 51 -1.5t49 -11.5t40.5 -27t25.5 -46q8 -31 2 -62.5t-16 -60.5q-46 -136 -99 -266.5t-106 -264.5q-17 -45 -34 -90.5t-31 -90.5q-3 -9 -8 -26.5t-8.5 -37t-4.5 -37
t5 -25.5q3 -4 10 -4q5 1 12.5 7t15.5 14t14.5 15.5t9.5 11.5q25 29 47.5 60t44.5 62q52 73 101.5 147t100.5 148q48 69 97 138.5t101 136.5q5 5 11.5 13.5t14.5 10.5q7 2 12 -2.5t5 -11.5q0 -5 -3 -13.5t-6.5 -17.5t-7.5 -18t-7 -14q-20 -42 -40.5 -83.5t-41.5 -83.5
q-39 -78 -77.5 -156t-73.5 -157q-11 -24 -24 -59.5t-21 -72.5t-6 -72t21 -58q17 -21 43 -27.5t55.5 -4.5t58 10t49.5 16q48 18 94.5 45t91 59t85.5 68t77 72q57 57 111.5 124.5t102.5 140.5t88 149t69 151q12 30 24.5 70t20 82t7.5 82.5t-14 71.5q-20 41 -67 52
q-13 2 -11 15q3 13 16 11q20 -5 36.5 -13.5t30.5 -24.5q27 -31 32.5 -77t-1 -95.5t-20.5 -97t-27 -81.5q-28 -73 -66.5 -147t-84 -145t-97.5 -137.5t-106 -123.5q-76 -80 -169 -152.5t-196 -115.5q-26 -11 -58.5 -21.5t-66 -13.5t-65 3t-54.5 28q-28 26 -34 65t1 81.5t22 83
t28 69.5q42 94 87.5 186t90.5 184l22 44t22 45q-60 -81 -117 -164t-114 -167q-40 -59 -79.5 -117t-81.5 -115q-18 -26 -37.5 -51t-40.5 -48q-10 -11 -26 -26t-32 -15q-26 0 -36 24q-6 13 -5.5 32t4 38.5t8.5 38t9 31.5q14 47 31.5 92.5t34.5 90.5q50 127 100 250.5t95 251.5
q8 25 16 49.5t10 50.5q2 31 -8 51t-28 32t-42 16t-50 4q-56 -1 -122 -20.5t-130.5 -51t-120.5 -72t-91 -83.5q-15 -18 -26.5 -38.5t-16.5 -42t-2 -43.5t18 -44q7 -11 -4 -18t-19 3z" />
    <glyph glyph-name="V" unicode="V" horiz-adv-x="1184" 
d="M28 423q-25 38 -23.5 76.5t19 74t46 67t57.5 55.5q37 31 84.5 60t99 52.5t104.5 39t102 19.5q24 2 49.5 0t48 -10t40.5 -24.5t26 -43.5q9 -30 3.5 -63t-15.5 -62q-42 -125 -85.5 -247t-84.5 -247q-17 -52 -33.5 -105t-28.5 -106q-3 -12 -8 -33.5t-8 -45t-2.5 -44.5
t8.5 -31q7 -8 17.5 -4.5t17.5 8.5q13 7 26.5 17t27 21t26 23t23.5 22q47 45 91 93t86 97q74 86 143.5 175t133.5 182q47 66 91 136t82 142q8 15 20 38.5t23.5 51t22 57.5t15 57.5t2 51t-16.5 37.5l-2 1q-4 4 -4 9.5t4 9.5q9 9 18 1q11 -11 16 -22q14 -28 11 -66t-15.5 -78
t-29.5 -77.5t-30 -63.5q-35 -69 -77 -137t-87 -133q-64 -94 -134 -185t-144 -179q-16 -19 -41 -48t-55 -61.5t-62.5 -66t-64 -62t-59 -49t-47.5 -27.5q-34 -11 -53 18q-8 14 -9 36t1.5 46t7 47t8.5 38q13 54 29 107t33 106q38 118 79.5 234t81.5 234q10 27 19 56.5t7 59.5
q-2 27 -14 44t-30.5 26t-41.5 11.5t-45 1.5q-55 -3 -119.5 -23t-126.5 -52.5t-116.5 -73t-88.5 -83.5q-15 -19 -26.5 -39.5t-16.5 -42.5t-2 -44.5t18 -44.5q7 -11 -4 -18t-18 3z" />
    <glyph glyph-name="ampersand" unicode="&#x26;" horiz-adv-x="626" 
d="M525 281q-9 -38 -21 -81t-29 -86t-39.5 -83.5t-51.5 -73.5q44 -57 104 -111q5 -4 5 -9.5t-4 -9.5q-3 -5 -8.5 -5.5t-10.5 3.5q-29 27 -55 55t-49 57q-37 -37 -83.5 -58t-106.5 -18q-58 3 -99 29t-61.5 67t-19 92.5t28.5 104.5q32 61 89 115.5t124 105.5q2 20 5.5 41
t8.5 43q22 99 61 164.5t82.5 102t86.5 48t74.5 3t45.5 -34.5t-1 -63q-17 -43 -52 -83t-81 -79t-98.5 -78t-104.5 -78q-9 -112 18 -205.5t85 -176.5q27 32 47.5 71t36 80t27 81t19.5 75q1 5 6 8.5t10 2.5q13 -4 11 -16zM269 398q49 37 97.5 72.5t90 71.5t73 72.5t46.5 74.5
q12 30 -2.5 47t-44.5 17t-69.5 -19t-78 -61.5t-69.5 -110t-43 -164.5zM349 -41q-60 85 -89.5 179t-24.5 200q-59 -46 -108.5 -94.5t-76.5 -102.5q-24 -46 -26 -90t15 -79.5t52.5 -58t85.5 -25.5q54 -2 96.5 17.5t75.5 53.5z" />
    <glyph glyph-name="Y" unicode="Y" horiz-adv-x="1215" 
d="M27 497q-25 38 -22.5 75.5t20.5 72t46.5 64t57.5 52.5q39 31 88.5 59.5t103.5 51t109 37.5t105 18q22 2 47.5 0.5t48 -9t40 -23t25.5 -40.5q10 -32 2 -66t-20 -64q-30 -71 -58.5 -141.5t-52.5 -143.5q-8 -25 -16.5 -49.5t-16.5 -50.5q-6 -17 -14 -46t-13.5 -59.5t-5 -58
t11.5 -42.5t31.5 -13t42.5 12t42 22.5t30 20.5q49 35 91.5 77t83.5 86q57 63 108.5 127.5t102.5 133.5q52 71 102 142.5t104 140.5q4 5 12.5 16t11.5 14q10 7 19 2q8 -6 4 -19q-2 -8 -8.5 -20t-10.5 -20q-21 -38 -43 -77t-44 -77q-67 -118 -133 -235t-130 -236
q-23 -44 -45.5 -88t-42.5 -89q-10 -22 -20 -43t-21 -42q-21 -41 -48.5 -85.5t-60.5 -85t-71.5 -74t-81.5 -52.5q-37 -17 -79.5 -20t-76.5 24q-32 26 -37.5 64t7.5 75q12 34 35.5 63.5t53 54t62.5 44t64 34.5q15 7 30 13.5t30 11.5q2 1 8 3q5 2 10 -0.5t7 -7.5q3 -12 -8 -17
q-50 -18 -96 -42q-26 -14 -52.5 -31.5t-50.5 -39.5t-42.5 -48t-27.5 -55q-10 -32 -2 -63.5t41 -47.5q17 -8 35.5 -8.5t36.5 3.5t35.5 11.5t32.5 16.5q43 26 81 66t70.5 86.5t59 96t46.5 94.5q33 72 70 143q47 90 95.5 177.5t98.5 175.5q31 56 62.5 111t63.5 111
q-42 -57 -82.5 -114t-82.5 -114q-55 -74 -112 -142.5t-122 -134.5q-40 -41 -89 -82.5t-100 -67.5q-14 -7 -29 -12.5t-31 -7.5q-19 -2 -35.5 3t-28.5 22q-9 15 -12 35q-4 22 -1.5 48.5t8 52.5t12.5 50t13 42q15 49 33 99q24 75 53 146.5t59 143.5q7 16 13 36t7 40t-5.5 38
t-24.5 30q-20 14 -49 17.5t-60 1t-61 -9t-52 -12.5q-44 -13 -93 -33.5t-96 -47.5t-88.5 -59.5t-70.5 -68.5q-14 -17 -25 -36t-15.5 -39.5t-1.5 -41t17 -41.5q4 -8 0 -15q-2 -2 -4 -3q-11 -7 -18 3z" />
    <glyph glyph-name="K" unicode="K" horiz-adv-x="947" 
d="M96 468q-28 32 -15 71.5t50 80.5t90.5 81t107.5 74t101.5 58.5t72.5 35.5t58 22t68.5 19t71 11t65 -2.5t51 -21t29.5 -44.5q8 -26 -2.5 -61.5t-33.5 -78.5q-29 -56 -75 -119t-100 -128q158 117 324 218t333 190l69 36q5 3 10 1.5t7 -6.5q3 -12 -9 -19
q-204 -106 -403.5 -227t-385.5 -265q8 -132 16 -262.5t16 -262.5q1 -6 -3 -10t-10 -4q-5 -1 -9.5 3t-4.5 10q-8 126 -15.5 251t-15.5 251q-35 -40 -68 -77t-63 -70t-55 -61t-43 -49q-11 -13 -35 -41.5t-54 -63.5t-62.5 -72.5t-61.5 -68t-51.5 -49.5t-31.5 -18q-15 2 -15 16
t11 36.5t31 50.5t43 58t48 59t46 53t36.5 40.5t20.5 21.5q68 69 140 133t150 125l12 15q2 6 9 10q71 83 128 156.5t86 122.5q1 2 1.5 2.5t1.5 2.5q34 59 39.5 98t-10 61t-47.5 29t-73.5 3t-88 -17t-89.5 -32q-19 -8 -61 -30t-93 -52.5t-102.5 -67.5t-89 -73.5t-52.5 -71
t7 -60.5q3 -2 3 -6q0 -6 -5 -13q-5 -5 -10.5 -5.5t-9.5 3.5zM445 284q-44 -39 -89 -80q-14 -13 -41 -39.5t-59.5 -60.5t-67 -72.5t-64 -75t-50.5 -68.5t-27 -53q13 12 35 37t45.5 51t43 48.5t26.5 30.5q44 51 110 124.5t138 157.5z" />
    <glyph glyph-name="R" unicode="R" horiz-adv-x="1154" 
d="M1100 706q-23 -27 -57.5 -69.5t-78.5 -95.5t-95.5 -113.5t-108.5 -122.5q66 11 133 26.5t131 37.5t121.5 53t102.5 73q34 32 57 71.5t34 80.5t8 81t-21 73.5t-53 57t-88 31.5q-94 15 -187.5 -2t-184.5 -57.5t-176.5 -99t-161.5 -127t-141.5 -142t-116.5 -143.5
q-10 -13 -33.5 -49t-50.5 -83.5t-51.5 -100t-36 -99t-4.5 -81t43 -45.5q45 -14 101 3.5t119.5 57.5t131.5 98t136 126q-27 28 -41.5 50t-11 38.5t27 28t71.5 19.5q23 4 48 7.5t51 7.5q59 65 114 129t101.5 120.5t84 102.5t62.5 75q4 5 9.5 5t9.5 -4q11 -9 2 -19zM731 272
l-60 -64t-61 -63q29 -30 68.5 -65t80.5 -70t79.5 -67t66.5 -55q11 -9 2 -19q-9 -11 -19 -2q-65 54 -134.5 112.5t-129.5 115.5q-9 8 -17 15.5t-16 15.5q-74 -73 -148.5 -135.5t-143.5 -103.5t-129.5 -55.5t-107.5 8.5q-33 16 -44 47t-6 72t23 88t43 95.5t54.5 95.5t57 86.5
t50.5 69.5t35 44q52 62 116 126t137 121.5t152.5 106t163.5 81t171 45.5t174 -1q59 -9 98 -35t60.5 -63t26 -82t-6.5 -91t-36.5 -90t-63.5 -80q-50 -47 -113.5 -80.5t-134 -57t-144.5 -39t-144 -27.5zM687 265q-17 -2 -33 -5t-33 -5q-29 -5 -46.5 -8t-23.5 -10t0 -19.5
t26 -36.5q3 -4 6.5 -8t7.5 -9q24 25 48.5 50t47.5 51z" />
    <glyph glyph-name="Z" unicode="Z" horiz-adv-x="1250" 
d="M327 713q55 32 123 62.5t142 57t152 47.5t155 34t150 17t137 -4q56 -7 87.5 -24.5t43.5 -42t6.5 -54.5t-23 -61t-44.5 -61.5t-58 -56.5q-48 -39 -111.5 -80.5t-136 -83.5t-149.5 -84t-150 -82q-55 -30 -105.5 -59t-94.5 -56q-7 -4 -33 -21t-63.5 -41.5t-81.5 -55
t-85.5 -62t-77 -61t-55 -53t-19 -38.5t29.5 -17t73.5 5.5t97 20t109.5 29t111.5 32t103 29t83.5 20.5q18 4 45 8.5t59 8.5t67.5 6.5t71.5 2.5q42 -1 80.5 -7t69 -20t49.5 -37t21 -58q2 -34 -12 -56.5t-38 -42.5q-5 -3 -10.5 -2t-8.5 6q-6 11 3 18l1 1q18 15 29 32t9 42
q-2 26 -16 43.5t-37 29t-54 17t-65 6.5q-44 2 -91.5 -2t-90.5 -10t-78 -13.5t-54 -11.5q-28 -7 -73 -20t-98.5 -28.5t-110.5 -31t-109 -27t-94 -16t-65 1.5q-35 9 -36.5 31t19.5 51.5t60 64.5t86 71t97 70t93 62t74.5 47t41.5 25q30 19 69.5 40.5t85.5 47.5q58 32 123 68
t130.5 73.5t127 75.5t113.5 75t90 72t56 66q21 36 23.5 62.5t-10.5 44.5t-40 28.5t-64 15.5q-62 8 -133 4t-146.5 -16.5t-152 -33.5t-149 -46.5t-139 -55.5t-120.5 -61l-2 -1q-5 -3 -10.5 -2t-8.5 6q-7 12 5 19z" />
    <glyph glyph-name="P" unicode="P" horiz-adv-x="1496" 
d="M1063 621q-18 -22 -44.5 -54t-59.5 -72t-71.5 -86t-80.5 -95q71 15 148 20.5t155 4.5q30 17 54.5 35.5t46.5 35.5q47 38 80.5 85t51.5 95.5t20 95.5t-13.5 86t-49 66t-86.5 36q-94 14 -192.5 -8t-196.5 -69.5t-192.5 -115t-178 -143.5t-154 -154.5t-120.5 -148.5
q-10 -14 -33.5 -50t-50.5 -83.5t-51.5 -100t-36 -99t-4.5 -81t43 -45.5q54 -17 124.5 11.5t149.5 86.5t163 137.5t164 166.5h-6.5t-6.5 -1q-30 -1 -42.5 7t-11 20.5t17 27t42.5 28.5q53 26 120 43q46 53 88 103t78 94t65.5 79.5t49.5 59.5q4 5 9.5 5t9.5 -4q5 -3 5 -8.5
t-3 -10.5zM772 275q-14 -16 -27.5 -31.5t-27.5 -31.5q39 6 82 15t87 22t87.5 29t83.5 34q-30 0 -58 -3q-14 -1 -38.5 -3.5t-55.5 -7t-65 -10.5t-68 -13zM688 181q-58 -64 -119 -125t-122 -115t-120 -96.5t-113.5 -69t-102 -33t-86.5 12.5q-33 16 -44 47t-6 72t23 88t43 95.5
t54.5 95.5t57 86.5t50.5 69.5t35 44q52 62 121 131.5t149 135.5t168.5 123.5t180 97.5t183 57.5t178.5 1.5q62 -11 102.5 -40.5t60 -70.5t18.5 -91t-20.5 -103t-57 -106t-91.5 -99q-15 -14 -32 -27t-37 -25q94 -4 181 -14t161 -23q5 -1 8.5 -6t2.5 -10q-4 -13 -16 -11
q-99 17 -191 27.5t-188 11.5q-48 -26 -103 -48t-111.5 -39t-112 -28.5t-104.5 -16.5zM726 263q-44 -11 -75.5 -25.5t-40.5 -30.5q5 -2 12.5 -2h11.5q10 0 20 0.5t21 1.5q13 14 25.5 28t25.5 28z" />
    <glyph glyph-name="L" unicode="L" horiz-adv-x="1039" 
d="M370 472q-21 24 -18.5 52.5t21.5 58.5t51 61.5t71 61t81 56.5t80.5 49t70 38.5t50.5 24.5q26 11 62 22.5t75 19.5t77 10t68 -7t48 -30.5t17 -60.5q-1 -34 -23 -80t-58.5 -100.5t-83.5 -114.5t-99.5 -121t-106 -121.5t-102 -115.5t-89 -102t-66.5 -82l-32 -47
q63 -3 123 -9.5t110.5 -17.5t89 -26t58.5 -36q8 -8 10.5 -14.5t3.5 -17.5q0 -6 -4.5 -10.5t-10.5 -5.5q-5 -2 -9 1.5t-4 8.5q0 3 -1 5q-1 6 -7 12q-24 24 -75 40.5t-118 26.5t-144.5 14.5t-154 4.5t-146 -3.5t-120.5 -9.5q-14 -2 -26.5 -4t-23.5 -4q-13 -4 -15 9q0 5 4 10
t9 7q32 6 79 11t102.5 8t117 3.5t124.5 -1.5l6 10l33 47q37 51 89.5 112.5t112 128t120.5 135.5t115.5 135t97 125.5t64.5 108.5q24 52 20.5 84t-24.5 48t-56.5 18.5t-75.5 -4t-81 -19t-74 -26.5q-19 -8 -61 -30.5t-93 -53t-102.5 -67.5t-89 -73.5t-52.5 -70.5t7 -60
q9 -8 -2 -19q-2 -2 -6 -4q-8 -3 -14 1z" />
    <glyph glyph-name="J" unicode="J" horiz-adv-x="1048" 
d="M460 357q-43 27 -50 71t13 96.5t62 108.5t95.5 106.5t114.5 92t119.5 65t109.5 24t85 -30.5q23 -21 25.5 -55.5t-11.5 -79t-42 -97t-65 -108.5q-12 -17 -30.5 -44t-41 -58.5t-47 -65.5t-48 -65.5t-44 -58.5t-34.5 -44q97 29 193 49.5t193 35.5q6 2 9.5 -2t3.5 -9
q-2 -13 -15 -15q-103 -17 -207 -39.5t-207 -54.5q-47 -56 -93.5 -107t-88 -93.5t-76.5 -75.5t-58 -52q-12 -10 -38 -29t-58.5 -39.5t-67 -37.5t-64.5 -23.5t-51 1.5t-25 38q-5 31 13.5 65.5t50.5 68.5t73 66t82.5 59.5t79 48.5t61.5 33q61 30 122.5 54.5t124.5 44.5
q25 29 62.5 78t77 102.5t74.5 102t54 77.5q35 52 61 99.5t39.5 87.5t12 71t-21.5 49q-29 27 -74.5 25t-98.5 -24t-108.5 -60.5t-105 -85t-89 -97t-59 -97.5t-16 -86t40.5 -62q5 -2 5.5 -7.5t-3.5 -10.5t-9 -7t-10 1zM596 164q-53 -18 -104.5 -39t-103.5 -47q-20 -10 -54 -29
t-73 -44.5t-78.5 -55t-70.5 -60.5t-49 -61.5t-14 -56.5q3 -22 21.5 -25t45.5 6t57.5 26.5t58.5 35.5t49.5 34t28.5 22q20 16 51 45.5t68.5 68t80 84.5t86.5 96z" />
    <glyph glyph-name="C" unicode="C" horiz-adv-x="1171" 
d="M768 476q33 18 79 46t91 62t80.5 72t46.5 76q10 32 -1.5 56.5t-36.5 44.5q-36 28 -82.5 34t-95 -1.5t-95 -24t-83.5 -33.5q-36 -17 -78 -42t-86.5 -55.5t-89 -65.5t-85 -71t-74 -71.5t-56.5 -67.5q-45 -65 -83 -139t-60 -151q-10 -34 -16.5 -72.5t-6.5 -77.5t7.5 -76
t26.5 -69q42 -69 126 -81q81 -11 165.5 9t166.5 58t157.5 87t137.5 94q72 53 140.5 108t137.5 110q20 17 40.5 33t41.5 32q5 3 10.5 2.5t8.5 -5.5q7 -11 -3 -19q-20 -15 -40 -30.5t-40 -31.5q-54 -43 -114 -91.5t-124 -97t-131.5 -94.5t-137 -84t-139.5 -65t-139 -38
q-44 -8 -96 -7.5t-94 16.5q-37 14 -62.5 38.5t-41.5 56t-23.5 67.5t-7.5 73q0 59 13.5 119t36.5 118t53 112.5t62 102.5q29 42 77.5 91t104 96t111.5 87.5t100 66.5q42 25 95 50t109.5 42t113 21t105.5 -14q32 -11 61 -34.5t40 -56.5q11 -34 -1 -68.5t-38.5 -68t-63.5 -64.5
t-75.5 -57.5t-74 -47t-58.5 -33.5q-11 -6 -18 6q-6 11 6 18z" />
    <glyph glyph-name="H" unicode="H" horiz-adv-x="1202" 
d="M-2 335q-21 24 -18.5 52.5t21.5 58.5t51 61t70.5 60.5t80.5 56.5t80.5 49t70.5 38t50 24q102 44 179 53.5t115.5 -19.5t31.5 -97.5t-73 -179.5q-33 -57 -75 -116t-90 -120q22 -10 41 -22.5t35 -29.5q71 8 143 16.5t140 18.5q49 62 111.5 135.5t130.5 150.5t137.5 153
t133 143.5t117.5 122.5t91 90q5 4 10.5 4.5t8.5 -3.5q4 -4 3 -9.5t-6 -9.5q-4 -4 -8 -7.5t-8 -8.5q-37 -35 -89 -88.5t-113 -118t-127 -136.5t-130 -144.5t-122.5 -141.5t-104.5 -127q86 12 153 23t100 18l69 14h5q9 -2 9 -10q0 -6 -4.5 -10.5t-9.5 -6.5q-70 -14 -159.5 -30
t-188.5 -30q-81 -104 -152 -204.5t-124 -188.5q-10 -25 -21 -49t-21.5 -43.5t-20 -32.5t-16.5 -16q-14 -6 -16 0t1 17v1q2 5 4.5 11.5t4.5 11.5q3 6 6 11q11 23 24 47t29 51q22 50 36 99t16 93.5t-9.5 84t-41.5 70.5q-37 -4 -72.5 -6.5t-68.5 -4.5q-86 -103 -174 -201
t-163 -184q-4 -5 -9.5 -6t-9.5 2q-5 3 -5 8.5t5 10.5l8 9q71 81 152.5 172t162.5 188q-72 -3 -128 0t-74 19.5t-9 35.5t37.5 36.5t65.5 23.5q53 9 101 5.5t90 -17.5q48 61 90.5 120t75.5 115q60 100 67.5 161t-25.5 85t-102.5 14t-163.5 -50q-14 -6 -41.5 -20t-63 -34
t-75 -45t-77 -51.5t-69 -54.5t-52 -54.5t-25.5 -51t12 -43.5q8 -9 -2 -19q-2 -4 -6 -4q-8 -5 -13 1zM472 231q-8 -10 -15.5 -19t-15.5 -19q21 2 43.5 3.5t45.5 3.5q-12 9 -26.5 16.5t-31.5 14.5zM407 190q11 13 20.5 25t19.5 25q-5 2 -11 3t-12 3q-5 1 -22.5 3t-41.5 3.5
t-50.5 1t-49.5 -5t-39 -13t-19 -22.5q-1 -4 -0.5 -6t1.5 -5q14 -13 69 -15t135 3zM826 207q-60 -8 -119 -15.5t-116 -13.5q31 -42 42.5 -98t-2.5 -125q-1 -4 -2.5 -9.5t-3.5 -13.5q43 65 93.5 134t107.5 141z" />
    <glyph glyph-name="N" unicode="N" horiz-adv-x="1550" 
d="M-26 -165q106 30 207 84t196 124.5t183 154.5t167.5 174.5t150 183.5t129.5 182q28 42 54 83.5t52 85.5q2 5 6 8q10 4 15.5 -2t3.5 -14q-4 -14 -8 -27t-9 -27q-49 -154 -103 -304.5t-104 -303.5q-17 -51 -33 -102.5t-28 -104.5q-3 -12 -7 -33.5t-7 -44t-2.5 -42.5
t7.5 -29t17.5 -5.5t18.5 8.5q25 13 53 38t49 45q47 45 91.5 93t86.5 97q73 85 142.5 174.5t134.5 182.5q47 66 91 136t82 142q8 15 19.5 38.5t23.5 51t22 57.5t14.5 57.5t2 51t-16.5 37.5l-1 1q-5 4 -5 9.5t4 9.5t9.5 4.5t9.5 -3.5q11 -11 16 -22q14 -28 10.5 -66.5t-16 -79
t-29.5 -78t-30 -62.5q-36 -71 -79 -139.5t-88 -134.5q-64 -94 -134 -185t-144 -179q-16 -19 -40.5 -47t-53.5 -59t-60 -63.5t-61.5 -60t-57.5 -48.5t-47 -29q-13 -5 -26 -4.5t-24 10.5q-10 10 -14 26t-4 34t2 35.5t4 29.5q8 42 19.5 84.5t23.5 84.5q24 80 51 159t55 158
q29 83 58 165t56 165q-16 -25 -31.5 -49t-32.5 -48q-60 -89 -130.5 -181t-150 -181.5t-167.5 -172t-183 -152.5t-196 -123t-207 -83q-12 -4 -16 9q-4 12 9 16z" />
    <glyph glyph-name="G" unicode="G" horiz-adv-x="1184" 
d="M805 355q25 12 68 37.5t93.5 59t104.5 72t101.5 76.5t82.5 73t49 60q17 32 11.5 56.5t-26.5 44.5q-32 29 -79.5 33.5t-95.5 -2.5q-74 -11 -156 -44.5t-166.5 -82.5t-168 -110t-159 -127t-140.5 -133.5t-112 -129.5q-31 -41 -61 -87t-56 -94.5t-45 -97.5t-27 -95
q-6 -36 -3.5 -67t16 -53t39.5 -33t67 -7t87.5 26t92 52.5t88 65.5t75.5 65q49 43 96 87t95 89q20 19 40.5 37.5t41.5 37.5q3 3 6.5 6t6.5 6q-55 -8 -109.5 -14.5t-105 -10.5t-96 -6t-83.5 -2q-6 0 -9 4.5t-1 9.5q2 6 7 10t10 3q44 0 97 3q72 3 156 12t171 23q6 5 12 10.5
t13 10.5q5 5 12.5 10.5t13.5 5.5q12 0 12 -10q0 -5 -2 -8q-1 -2 -2.5 -4t-3.5 -6q66 12 128.5 26t116.5 30q20 6 37 12l34 12q12 7 18 -4q2 -5 -0.5 -10.5t-8.5 -8.5q-69 -26 -160 -48.5t-191 -39.5q-6 -8 -11.5 -14t-8.5 -10q-81 -97 -156 -194.5t-141 -203.5
q-39 -63 -73 -126t-63 -129q-5 -13 -18 -11q-12 4 -7 16q30 69 66.5 136t78.5 133q14 21 27.5 42t27.5 41q49 72 102 140.5t110 137.5l-2 -2q-32 -29 -63.5 -58.5t-62.5 -58.5q-39 -37 -78 -73t-80 -71q-35 -30 -77.5 -64t-88 -63.5t-92 -50.5t-89.5 -25t-72.5 6.5t-47 32
t-24 53.5t-1.5 71q6 46 23.5 97t42.5 101.5t55.5 99t61.5 90.5q45 62 108.5 130.5t138 136t157 130.5t166 114.5t165 88.5t154.5 53q51 11 103 14.5t96 -13.5q29 -11 53 -35t27 -56q3 -34 -28 -78t-81 -91t-112.5 -93.5t-122.5 -86t-110.5 -69t-77.5 -42.5q-3 -2 -8 -2
q-7 2 -8 7q-4 13 9 18z" />
    <glyph glyph-name="M" unicode="M" horiz-adv-x="1618" 
d="M-26 -166q115 32 233 93.5t235 142t230 175.5t217 194.5t197.5 199t170.5 188.5q48 56 92 110l4 4t5 2l12 -2q4 -11 4.5 -12t-3.5 -9q-46 -85 -94 -167.5t-98 -164.5q-72 -122 -145.5 -242t-145.5 -241q-23 -38 -45.5 -76.5t-43.5 -77.5q-3 -5 -8 -14.5t-10 -18.5
q8 5 17.5 12t18.5 14t16.5 13.5t11.5 9.5q38 32 74.5 66.5t71.5 68.5q90 86 177 172.5t176 173.5q81 80 162 158.5t166 153.5q42 38 86 75.5t89 71.5q11 8 21.5 15.5t21.5 14.5q5 3 9.5 4t8.5 -4q5 -5 4.5 -9t-3.5 -9q-1 -1 -6.5 -9t-7.5 -10q-26 -32 -53 -63.5t-55 -62.5
q-106 -122 -212 -243t-203 -252q-42 -56 -82 -116t-71 -123q-18 -35 -33.5 -75.5t-19.5 -80.5q-2 -14 -15 -12q-12 2 -12 14q4 43 22 90t42.5 93t52.5 89t52 78q58 83 122 162t130 156q58 69 117 135t118 134q7 8 13 15t13 15q-54 -44 -106 -90t-103 -94
q-125 -116 -245 -235t-242 -239q-53 -51 -106 -102.5t-107 -101.5q-10 -9 -28.5 -26t-39 -33.5t-40 -30t-31.5 -16.5q-10 -3 -18.5 1t-7.5 15q0 5 3.5 14t8 18t9 17.5t7.5 13.5q21 38 43.5 76t45.5 76q72 122 145.5 242t145.5 241q64 106 126 216q-7 -8 -13.5 -16.5
t-14.5 -16.5q-78 -89 -170.5 -186.5t-195.5 -194.5t-215 -190t-227 -171.5t-232.5 -139t-231.5 -92.5q-12 -4 -16 9t9 17z" />
    <glyph glyph-name="B" unicode="B" horiz-adv-x="1509" 
d="M1082 634q-30 -35 -79.5 -96.5t-113 -136.5t-137 -158t-151 -161.5t-156.5 -147t-152 -114.5t-137.5 -63t-114.5 6q-33 16 -45 45.5t-8 68.5t21 84.5t41.5 92.5t52.5 92t55 83t49 67t34 43q51 61 117 127.5t142.5 131t160 121.5t171 98t175.5 62t172 13q77 -7 118 -44.5
t52.5 -92.5t-4 -121t-51.5 -131t-90.5 -122.5t-120.5 -95.5q20 -9 30 -23.5t15 -32.5q99 27 197.5 45t191.5 26q5 1 9.5 -3t4.5 -9q1 -6 -3 -10t-9 -5q-101 -9 -197.5 -26.5t-191.5 -44.5q0 -22 -6.5 -46.5t-18 -49t-26.5 -48t-31 -43.5q-38 -47 -91 -88.5t-113.5 -70
t-125 -39.5t-126.5 4q-38 9 -51.5 24.5t-11.5 35t17 40.5t35 41t41 37t37 27q96 63 208.5 112t233.5 84q-5 19 -19 29.5t-33 15.5q-35 -17 -73 -28t-79 -15q-35 -3 -45.5 7t3 23.5t49.5 26.5t95 16q13 1 24.5 1t21.5 -2q65 32 120 85t93 114t57 124t11.5 115.5t-43 88
t-106.5 42.5q-87 8 -177 -15t-179.5 -67.5t-175.5 -106t-163.5 -130t-143.5 -139.5t-116 -135q-8 -10 -25.5 -34.5t-39.5 -57.5t-45.5 -73t-44 -81t-34.5 -81t-17.5 -72.5t7 -56t39.5 -32.5q49 -14 111 7.5t132 69t145 114.5t149 143t144.5 155.5t131 151.5t109 131.5
t78.5 94.5q9 11 19 2q4 -4 4.5 -9.5t-3.5 -9.5zM1104 195q-65 -20 -128 -43.5t-126 -52.5q-11 -5 -45 -22.5t-76 -42.5t-83.5 -53.5t-66 -55t-24 -47.5t42.5 -31q69 -16 143.5 2.5t142 59t121.5 97.5t81 119q18 42 18 70zM985 271q-23 -2 -45 -7.5t-39 -11.5q22 2 43 7
t41 12z" />
    <glyph glyph-name="D" unicode="D" 
d="M1078 636q-30 -35 -79.5 -96t-112.5 -136t-136.5 -157.5t-151 -161t-155.5 -146.5t-151 -113.5t-137.5 -62.5t-113.5 6q-33 16 -44.5 46t-6.5 69.5t23 85t43 92.5t54 92t56.5 83.5t50 67t34.5 42.5q52 61 118 129.5t141.5 135t158.5 126.5t169.5 104t174 67t172.5 15
q57 -5 91 -31t50 -65.5t16.5 -90t-10.5 -105.5t-30 -111.5t-41.5 -108t-46.5 -95t-44 -72.5q78 20 150.5 32.5t133.5 19.5l58 5q6 1 10 -3t5 -9q1 -6 -3 -10t-10 -5q-88 -8 -181 -24t-188 -40q-32 -40 -76 -85t-96 -88.5t-109 -83.5t-114.5 -71.5t-113.5 -51t-106 -22.5
q-36 -2 -57 7.5t-27 26.5t3.5 40t34.5 48q51 50 123.5 94.5t157.5 83t178 70t185 55.5q6 8 10 14q16 22 38.5 60t45.5 86.5t43.5 103t34.5 108.5t17.5 104.5t-8.5 90.5t-42 65.5t-83 30.5q-92 8 -186.5 -19t-187.5 -78t-182 -120.5t-168.5 -146.5t-147.5 -155.5t-119 -146.5
q-10 -13 -33.5 -47.5t-50 -80t-50.5 -96t-35.5 -95.5t-4.5 -78t43 -44q49 -14 111 7.5t131.5 68.5t144 113.5t148 142t143.5 155t130.5 151t108.5 131t78 94.5q4 5 9.5 5.5t9.5 -3.5q5 -4 5.5 -9.5t-3.5 -9.5zM1100 200q-140 -38 -271 -93t-240 -128q-7 -5 -24.5 -18
t-36.5 -29.5t-35.5 -34.5t-20.5 -32t7.5 -22.5t48.5 -6.5q67 4 146 39.5t157 88.5t148.5 115.5t120.5 120.5z" />
    <glyph glyph-name="Q" unicode="Q" horiz-adv-x="1031" 
d="M753 666q-60 17 -118.5 15.5t-115.5 -18.5q-44 -68 -74.5 -142t-42.5 -146q-7 -42 -7.5 -86t10.5 -83q16 -63 53.5 -118.5t79.5 -106.5q13 11 24.5 22.5l22.5 22.5q55 57 110 125t103.5 141.5t89 149.5t67.5 149q12 31 20.5 66.5t10 70.5t-6 67t-28.5 58q-19 24 -45 35.5
t-55.5 14t-60.5 -4.5t-60 -21q-37 -18 -67 -43.5t-58 -56.5q-17 -19 -33 -39t-32 -42q110 26 223 -5q5 -1 7.5 -6t0.5 -10q-5 -13 -18 -9zM481 650q-59 -23 -113 -61t-104 -89q-44 -45 -82 -99.5t-68.5 -113.5t-51 -120t-28.5 -120q-6 -47 -2.5 -93t21.5 -82t52 -58.5
t89 -23.5q40 -1 82.5 14t84.5 39.5t82 55t75 62.5q-44 54 -82.5 110.5t-56.5 122.5q-11 42 -11 86.5t7 89.5q11 70 38.5 141.5t67.5 138.5zM555 -39q17 -20 33.5 -40.5t30.5 -40.5q14 -18 28 -40t23 -45.5t11 -49t-8 -51.5l-1 -2q-5 -13 -18 -9q-5 2 -7 6.5t0 9.5q5 12 6 22
q3 21 -2.5 42.5t-16 42t-23.5 38.5t-24 33l-26 32t-27 33q-43 -38 -86.5 -71t-88.5 -58q-52 -28 -105.5 -42t-108.5 -3q-44 10 -73 34.5t-45 59t-20.5 76t-1.5 83.5q5 60 23 122t46.5 123t65.5 117t79 104q63 72 134 122.5t150 75.5q39 59 81 107q32 35 65.5 63t76.5 48
q33 15 68 21.5t68 3.5t62 -17t50 -41q22 -28 30.5 -62t7.5 -70.5t-9 -74t-20 -71.5q-30 -84 -77 -169.5t-98 -160.5q-50 -73 -114.5 -152t-138.5 -149z" />
    <glyph glyph-name="I" unicode="I" 
d="M155 473q-28 32 -15.5 71.5t49.5 80.5t90.5 81t108 74t101.5 59t72 36q26 11 62 22.5t75 19.5t77 10t68 -7t48 -30.5t17 -60.5q-1 -34 -23 -80t-58.5 -100.5t-83.5 -114.5t-99 -121t-106 -121.5t-102.5 -115.5t-88.5 -102t-66 -82l-41 -59q-3 -5 -8.5 -7.5t-10.5 -0.5
q-11 6 -4 18l42 61q37 51 90 112.5t112 128t120.5 135.5t115.5 135t96.5 126t64.5 108q24 52 21 84t-24.5 48t-56.5 18.5t-75.5 -4t-81.5 -19t-74 -26.5q-19 -8 -61 -30.5t-93 -53t-102.5 -67.5t-88.5 -73.5t-52.5 -70.5t6.5 -60q9 -8 -2 -19q-10 -10 -19 -3z" />
    <glyph glyph-name="O" unicode="O" horiz-adv-x="1070" 
d="M720 395q64 15 122 47q3 26 2 51.5t-8.5 48.5t-21.5 41.5t-38 30.5q-27 13 -58 15t-63.5 -4t-64 -18.5t-58.5 -26.5q-10 -4 -20 -11q-13 -7 -18 5q-5 11 7 18l2 1q30 17 63 31.5t67.5 23t68.5 9.5t65 -9t52.5 -29t33.5 -44t16 -55t2 -61q38 25 71.5 57t60.5 72
q16 24 29.5 52t21.5 57.5t10 58.5t-4 56q-12 51 -49 72t-91 16q-98 -11 -192.5 -53.5t-180 -105t-160.5 -139.5t-134 -156q-35 -46 -68.5 -99.5t-62.5 -109.5t-50 -113.5t-30 -112.5q-7 -43 -4.5 -81t18 -67t45.5 -46t78 -17q72 -1 143 27.5t136.5 74t123 102t101.5 112.5
q23 30 46.5 64t44 70t36.5 73t24 73l3 15q-54 -29 -114 -42q-13 -4 -15 10q0 13 12 16zM867 427q-6 -38 -18.5 -74t-30.5 -73q-27 -55 -67 -114t-89.5 -115t-107 -106.5t-119 -88.5t-126 -60.5t-128.5 -22.5q-52 0 -87 16.5t-55 46t-26 70t0 88.5q7 55 27 114t48 116.5
t61.5 112.5t67.5 102q61 85 139.5 167.5t169 150t190.5 113t205 56.5q61 7 105.5 -18.5t59.5 -84.5q7 -30 5 -62.5t-11 -65t-24 -64t-34 -59.5q-31 -46 -70 -82t-85 -63z" />
    <glyph glyph-name="E" unicode="E" horiz-adv-x="1189" 
d="M711 419q37 20 75.5 45.5t73.5 55.5t66 64t53 71q10 18 19.5 39.5t12.5 44t-2 43.5t-24 38q-35 31 -77 38.5t-84.5 -0.5t-83.5 -27.5t-74 -42.5t-67 -53t-64 -64.5t-53.5 -73t-36.5 -77.5q-25 -75 1.5 -122.5t104.5 -62.5q5 -1 10.5 -2t8.5 -5q9 -10 -2 -19
q-4 -3 -10 -2.5t-11 0.5q-55 4 -110.5 -1t-108 -20.5t-100.5 -42t-88 -66.5q-24 -24 -44 -53t-34.5 -60.5t-21.5 -66t-4 -68.5q5 -71 47.5 -113t111.5 -48q37 -3 77 1t76 12q100 22 202 72t200.5 114t190.5 134t172 132q21 17 42 32.5t42 31.5q5 4 10 3t9 -5q3 -5 2.5 -10.5
t-5.5 -8.5q-21 -16 -42 -31.5t-41 -32.5q-83 -64 -178 -136t-196 -137t-206.5 -115.5t-208.5 -71.5q-35 -7 -75 -10t-75 0q-84 8 -132.5 61.5t-50.5 138.5q0 39 9.5 77t27.5 72.5t42.5 65.5t53.5 57q70 61 156 89.5t177 31.5q-40 23 -57 63t-6 97q8 40 28 79.5t46.5 76
t58 68.5t61.5 57q33 27 73 52t84.5 41t90 20t88.5 -12q19 -7 37.5 -19t32.5 -27q18 -20 24 -44t3 -48.5t-12.5 -48.5t-21.5 -45q-23 -39 -55 -75t-69 -67.5t-77 -59t-79 -48.5q-11 -6 -18 5q-3 5 -1.5 10.5t6.5 8.5z" />
    <glyph glyph-name="S" unicode="S" horiz-adv-x="1075" 
d="M1147 732q16 15 22 32.5t3.5 35t-13 34t-25.5 30.5q-22 19 -49 30.5t-56.5 17.5t-59.5 7t-58 -1q-55 -4 -126 -21t-148.5 -45.5t-156.5 -67.5t-151.5 -87t-132.5 -104.5t-100 -119.5t-54.5 -132.5t5.5 -143.5q9 -36 28.5 -57.5t46 -32.5t57.5 -12t64 5q38 7 89.5 27
t108 41t113.5 39t106.5 22t86 -12t51.5 -62q84 53 181 97q23 11 46 21t46 21l4 2q13 5 18 -7q2 -5 0 -10t-7 -7q-23 -11 -47 -21.5t-47 -21.5q-98 -46 -190 -102q1 -10 -0.5 -19.5t-3.5 -19.5q-7 -27 -22 -54t-34.5 -52t-42 -46.5t-44.5 -37.5q-14 -10 -31.5 -21t-36.5 -20
t-38 -15.5t-36 -7.5q-14 -1 -27 3t-17 19q-3 12 4 25.5t18 27t23.5 25t20.5 19.5q57 54 116.5 100t122.5 87q-6 42 -41 54t-87.5 5t-115 -27t-122.5 -42t-112 -40t-82 -21q-67 -6 -119.5 21t-72.5 96q-22 78 -8.5 151.5t54 140.5t102.5 126.5t136.5 110.5t157.5 92t164 70.5
t155.5 46.5t133.5 20q30 2 62.5 0t64 -9t60.5 -20.5t52 -34.5q19 -18 30.5 -39t13.5 -43.5t-6.5 -44.5t-28.5 -41q-4 -4 -9.5 -4t-9.5 5q-4 4 -3.5 9.5t4.5 9.5zM775 109q-56 -37 -108 -77.5t-103 -87.5q-11 -11 -23 -22t-23 -23q-2 -2 -6 -7t-8 -10.5t-6.5 -11t-2.5 -8.5
q2 -2 7 -2t8 1q14 1 30.5 6.5t32.5 13t31 16.5t27 17q39 26 74 65t55 83q10 21 15 47z" />
    <glyph glyph-name="k" unicode="k" horiz-adv-x="568" 
d="M49 322q86 51 169 106.5t160 116.5q43 34 85.5 71.5t79.5 78.5q7 8 18.5 21.5t22 28.5t18.5 30t9 27q1 11 -12 12q-14 1 -32 -5.5t-37 -15.5t-35.5 -19t-27.5 -17q-50 -33 -99.5 -75t-95.5 -89t-88.5 -96.5t-78.5 -97.5l-28 -38t-28 -39zM16 272q-17 -26 -32 -52t-28 -52
q-7 -14 -15.5 -32.5t-15.5 -38t-11.5 -39t-4.5 -37.5q7 6 16 14.5t18 17.5t17 16.5t12 11.5q24 24 53 50.5t59.5 51.5t63 46t64.5 33q11 4 17 -2q5 -5 4 -11t-6 -10q-4 -2 -9.5 -5.5t-9.5 -5.5q-28 -16 -57 -33.5t-54 -37.5q-7 -6 -17.5 -17t-12.5 -20q-2 -13 3 -18.5
t18 -7.5q22 -4 56.5 3t71 19t70.5 26t56 24q42 19 84.5 41t81.5 47q14 9 30 19.5t28 22.5q4 4 9.5 4t9.5 -4q9 -10 0 -19q-13 -12 -28.5 -23t-30.5 -20q-33 -21 -73 -43t-83 -42t-85.5 -37t-79.5 -28q-15 -5 -37 -10.5t-45 -7.5t-43 2t-31 19q-7 9 -9 23q-20 -19 -39 -37.5
t-38 -36.5q-4 -5 -11.5 -12.5t-15.5 -15t-16 -13.5t-14 -7q-5 -2 -11 0q-8 2 -12 15q-5 34 9 79.5t37 91.5t49.5 88.5t46.5 71.5q51 75 111 147t123 136q53 53 117 106t130 88q10 6 26 13t33 11.5t32.5 4.5t26.5 -8q17 -13 13.5 -34.5t-16.5 -44t-29.5 -42.5t-25.5 -30
q-38 -42 -81.5 -81t-87.5 -74q-89 -70 -185 -133t-195 -120z" />
    <glyph glyph-name="dollar" unicode="$" horiz-adv-x="587" 
d="M353 328q10 -25 18 -51t11.5 -55t1 -60.5t-12.5 -66.5q-11 -39 -38.5 -67.5t-62.5 -45.5t-75 -23t-77 -1l-74 -110q-9 -11 -19 -2q-5 3 -6 8.5t3 10.5q11 16 28 41.5l39 58.5h-2q-30 9 -48.5 29.5t-27 47.5t-6.5 57.5t14.5 60.5t35 56t54.5 44q13 5 18 -7q5 -13 -7 -18
q-41 -23 -63 -61t-24 -76.5t16 -69.5t56 -39q29 45 63.5 98t71.5 112l83 132l-1 3l-6 12l-26 56t-23 61q-15 54 -5.5 99.5t38 78.5t72.5 50t97 14q38 -1 68 -14q23 42 39 74t23 51q0 14 13 14q14 0 14 -13q-5 -20 -22 -55t-43 -83q45 -29 53.5 -83.5t-15.5 -120.5
q-5 -12 -18 -7q-4 1 -7 6q-2 4 0 12q21 65 9.5 106t-40.5 62q-38 -69 -88.5 -155.5t-101.5 -170.5zM285 522q2 -42 18.5 -80.5t35.5 -79.5l1 -3q40 64 68.5 115.5t49.5 90t34.5 64.5t23.5 40q-34 13 -75.5 8.5t-76.5 -24t-58 -53t-21 -78.5zM136 -14q45 -3 84.5 6.5
t68.5 31.5t46.5 57.5t19.5 85.5q2 41 -3.5 73t-15.5 60q-54 -87 -106 -168t-94 -146z" />
    <glyph glyph-name="at" unicode="@" horiz-adv-x="590" 
d="M325 272q-38 7 -72.5 7t-62 -12.5t-46 -39t-23.5 -71.5q-1 -4 -1 -14t6 -11q6 -2 14.5 1.5t18 8.5t18 10.5t13.5 8.5q30 20 59.5 45t55.5 50l10 8t10 9zM346 293q5 5 10.5 10t10.5 10q3 3 6.5 5.5t8.5 2.5q11 -2 12 -12l-1 -8q-1 -1 -4 -6.5t-4 -7.5q-7 -13 -18.5 -36
t-22.5 -47.5t-18.5 -48t-6.5 -36.5q0 -3 1 -4q3 -1 8 1t10 4.5t10 5.5t8 5q17 11 34.5 24.5t32.5 27.5q24 21 45 48.5t36.5 58.5t24 64t8.5 66q-1 60 -32.5 97t-92.5 42q-17 1 -37 -3.5t-39.5 -13t-38 -18.5t-31.5 -19q-35 -23 -64.5 -51.5t-55.5 -62.5t-51.5 -75.5
t-44 -86.5t-27.5 -91t-1 -90q8 -42 30 -71.5t53 -46.5t68 -22.5t76 0.5q82 14 149 64.5t112 117.5q2 2 2.5 3.5t2.5 3.5q7 10 18 3t4 -18q-4 -5 -7.5 -11t-7.5 -11q-25 -35 -56 -65t-67 -54t-76 -40t-83 -21q-42 -5 -81.5 3t-72.5 27.5t-56.5 51.5t-32.5 76
q-10 47 -1.5 96.5t28 97.5t46.5 92.5t54 81.5q45 62 107 107q17 13 39.5 26.5t47.5 24.5t49.5 17.5t46.5 4.5q69 -6 108 -48.5t42 -111.5q1 -36 -7.5 -72t-24.5 -70t-38.5 -64t-48.5 -54q-13 -11 -27 -22.5t-28 -21.5q-7 -5 -17 -12t-21.5 -13t-22.5 -8.5t-20 1.5
q-11 5 -14.5 16t-2 24t5.5 26t7 21q5 17 12.5 33.5t15.5 33.5q-23 -22 -46.5 -42.5t-48.5 -39.5q-10 -8 -25 -19t-31 -20.5t-32 -15t-28 -3.5q-18 3 -23.5 17.5t-4.5 30.5q1 17 5.5 36.5t12.5 34.5q16 34 41.5 52t56.5 25.5t64 5.5t65 -9q4 -2 7 -4z" />
    <glyph glyph-name="z" unicode="z" horiz-adv-x="414" 
d="M8 306q10 4 39 16t62 26t61 27.5t36 21.5q0 -1 -1 -2q15 10 19 8q16 -7 4 -21h1q-51 -53 -103.5 -102t-106.5 -97q27 10 57.5 18t55 8t40 -10t13.5 -36q53 28 100.5 53.5t82.5 47.5l51 32q10 8 19 -3q3 -5 2 -10.5t-6 -8.5q-47 -30 -90.5 -56t-91.5 -52q-15 -8 -34 -18
t-42 -21q-12 -29 -41 -66t-67.5 -75t-83.5 -74.5t-87.5 -63.5t-79.5 -42t-61 -11q-18 3 -20 15t4.5 28.5t20 35.5t27 35.5t24.5 28.5t14 14q23 20 59 43.5t80 48.5t93.5 51.5t98.5 52.5q6 20 -4 29q-12 10 -32 8t-43 -10t-47.5 -19t-44 -18t-32 -8.5t-13.5 10.5q0 3 8 13v1
h1q12 14 36 37t49 45.5t45.5 40t25.5 22.5q2 2 9 9.5t16 17.5q-21 -9 -41 -17.5t-36 -14.5t-26.5 -9.5l-10.5 -3.5q-5 -2 -10 0.5t-7 7.5t0.5 10t7.5 7zM135 106q-56 -29 -118 -63t-115 -71t-91 -75.5t-46 -75.5q12 -1 32.5 7.5t45 22.5t51 31t50 33.5t41.5 30.5t26 21
q2 2 16 15.5t33 33.5t39.5 43.5t35.5 46.5z" />
    <glyph glyph-name="b" unicode="b" horiz-adv-x="478" 
d="M51 328q15 9 30 18.5t30 18.5q94 60 186 125t173 140q15 14 36 34.5t41 43.5t35.5 46t20.5 41q2 4 2.5 10t-4.5 8q-5 3 -13.5 2t-18 -4t-18 -6.5t-14.5 -5.5q-32 -15 -65.5 -37t-66.5 -48t-63 -53.5t-55 -52.5q-64 -63 -124.5 -134.5t-111.5 -145.5zM17 276
q-11 -17 -20.5 -33.5t-18.5 -33.5q-4 -7 -10.5 -21.5t-10.5 -29.5t-3 -28.5t13 -18.5q9 -4 21 -3.5t24 3.5t23.5 7.5t20.5 8.5q10 5 22.5 13t24 18t20 21.5t11.5 23.5q1 2 1 5q-1 1 -3 1q-10 2 -21.5 6t-19.5 10q-8 7 -10.5 17t4.5 18q8 11 20 10t22 -7q21 -11 30 -32
q38 -7 81.5 -7t86 8t82 24t68.5 41q4 4 9.5 3.5t9.5 -4.5q7 -11 -2 -19l-2 -2q-30 -26 -70.5 -42.5t-84.5 -25.5t-89 -9.5t-85 5.5q-2 -15 -10 -29t-20 -26t-25.5 -21.5t-25.5 -16.5q-13 -8 -31 -15.5t-36.5 -11t-36 -2.5t-30.5 12q-14 11 -17 28t0.5 35t11 35.5t14.5 30.5
q14 27 30.5 53.5t33.5 51.5q51 77 111.5 150t125.5 138q27 27 58.5 56.5t66 57t70 51.5t69.5 40q9 4 23 10t28 9t27.5 2t22.5 -9q13 -12 11 -30t-13 -39.5t-28.5 -43.5t-36 -42t-35 -36.5t-25.5 -24.5q-83 -78 -177.5 -145t-191.5 -128q-26 -17 -51.5 -32.5t-50.5 -32.5
q-4 -2 -6 -2z" />
    <glyph glyph-name="h" unicode="h" horiz-adv-x="557" 
d="M-15 282l3 3q15 23 31 45l32 44q47 64 98.5 127t107.5 120q45 46 95 88.5t104 77.5q12 8 37.5 22.5t53 26t53 13.5t38.5 -14q11 -14 4.5 -36t-23 -47t-40.5 -51t-48 -49t-44.5 -41t-30.5 -26q-66 -57 -137 -108.5t-143 -100.5q-42 -29 -84 -56t-85 -55
q-11 -17 -21.5 -33.5t-20.5 -33.5q-6 -11 -16.5 -30t-20 -39.5t-16.5 -40t-6 -31.5q0 -3 1 -5q9 3 28 17t40.5 31t40.5 33t27 23q23 20 47 39.5t48 36.5q11 8 30 19t33 9q17 -3 24 -19q3 -8 1 -17t-6.5 -18t-10.5 -17t-11 -14q-13 -17 -26.5 -35.5t-19.5 -38.5q-2 -4 -2 -9
q6 1 15.5 4.5t14.5 5.5q50 20 99 42.5t97 45.5l69 34.5t67 37.5q11 8 23.5 16.5t22.5 17.5q4 4 9.5 4t9.5 -5q9 -9 0 -18q-12 -11 -27.5 -21.5t-29.5 -19.5q-35 -21 -73.5 -40.5t-76.5 -38.5q-46 -22 -93 -43t-95 -39q-8 -4 -18.5 -8t-18.5 -2q-14 2 -18.5 12.5t-2.5 21.5
q4 20 16.5 40.5t23.5 35.5q3 4 9 11t12 15.5t11 16t5 11.5t-5 4t-13 -4.5t-16.5 -9.5t-16.5 -11l-12 -9q-33 -25 -64.5 -52t-63.5 -53q-8 -7 -21.5 -18t-28 -21.5t-28 -19t-22.5 -9.5q-11 -2 -18.5 4t-10.5 15q-4 13 0.5 32.5t12.5 39.5t17.5 38.5t15.5 29.5q12 22 25 43
t27 42q-2 8 6 12zM46 322q29 19 58.5 38t58.5 39q71 48 140.5 99.5t135.5 106.5q19 16 45 39.5t51.5 49.5t47 53t30.5 49q2 3 4.5 12.5t-2.5 12.5q-9 4 -28.5 -1t-29.5 -9q-32 -12 -66 -33t-67 -45.5t-64 -51t-55 -50.5q-53 -51 -101.5 -107.5t-93.5 -114.5
q-17 -21 -32.5 -42.5t-31.5 -44.5z" />
    <glyph glyph-name="d" unicode="d" horiz-adv-x="511" 
d="M163 298q-3 0 -4 1q-6 -11 -12.5 -23t-11.5 -24q20 16 39.5 32t38.5 32q58 48 114.5 100t109.5 106q25 26 51 55t47 59q3 4 8.5 12t10 17t8 17.5t2.5 14.5q-1 4 -6 4.5t-11.5 -1.5t-12.5 -4.5t-8 -3.5q-25 -13 -54 -35.5t-57.5 -49.5t-55 -54t-45.5 -49
q-37 -42 -73.5 -88t-67.5 -94q10 -5 7 -15q-4 -13 -17 -9zM131 304q-50 5 -95 -16t-81 -55q-20 -19 -41.5 -48t-27.5 -56q-1 -5 -1 -14.5t8 -9.5q11 -1 29 7t37.5 19t37.5 22t27 17q18 13 36.5 26t36.5 27q5 20 14 41t20 40zM121 208q-1 -3 -1 -9q0 -14 3.5 -26t12.5 -23
q12 -13 27.5 -18t33 -5.5t34.5 2.5t32 8q32 10 64.5 27.5t63.5 39t59.5 45.5t53.5 47q4 4 9.5 3.5t9.5 -4.5t4 -9.5t-5 -9.5q-3 -3 -6 -5.5t-6 -5.5q-29 -26 -66 -55t-77.5 -53.5t-83 -40.5t-82.5 -16q-43 0 -73 22t-34 66q-28 -21 -57.5 -41t-58.5 -37q-9 -5 -21.5 -11.5
t-26.5 -12t-27 -8t-23 1.5q-14 6 -18.5 19.5t-2.5 27.5q2 16 10 33.5t19 34t23.5 31.5t24.5 26q44 41 97.5 63.5t112.5 13.5q1 1 1 1.5t1 1.5q31 50 69.5 98t77.5 92q19 21 51 54t67.5 65t71 56.5t61.5 29.5q15 3 28 -2.5t16 -22.5q3 -14 -5 -32.5t-20 -37t-25.5 -35
t-22.5 -26.5q-34 -40 -72 -78.5t-76 -74.5q-58 -54 -119.5 -106.5t-124.5 -100.5q-1 -1 -2 -1.5t-2 -1.5zM94 198v1v-1z" />
    <glyph glyph-name="f" unicode="f" horiz-adv-x="362" 
d="M39 310q43 14 83 38t75.5 54.5t66.5 66t55 71.5q8 12 17.5 27.5t18 32.5t14.5 33.5t7 30.5q0 2 0.5 6t-1.5 6q-5 2 -15 -4t-14 -8q-28 -19 -58.5 -49.5t-53.5 -55.5q-41 -47 -80 -95.5t-75 -98.5q-20 -25 -40 -55zM15 276q-8 -13 -16.5 -25t-16.5 -25q69 11 139 21
t139 23q20 4 42 9t42 11q10 3 18 8q5 3 10.5 2t8.5 -6q2 -5 1 -10.5t-6 -8.5q-5 -2 -8.5 -4t-8.5 -4q-19 -7 -40 -11.5t-41 -8.5q-51 -11 -103.5 -18.5t-104.5 -15.5q-11 -2 -42 -6.5t-64 -10.5q-2 -2 -2 -3l-12 -20l-12 -20q3 -5 5.5 -11t4.5 -14q6 -30 -3 -67t-26 -74
t-38 -71t-38 -57q-7 -9 -19.5 -24t-27 -28.5t-29.5 -23t-27 -6.5q-10 2 -13.5 9t-3 16t3.5 18l5 15q9 23 21 46.5t23 45.5q30 57 63 112.5t66 111.5q-9 8 -27 11q-8 2 -18.5 5t-11.5 14q-1 6 3 10.5t9.5 7.5t11.5 5t11 3q16 5 32 8t32 5q10 16 19 30.5t20 29.5q2 3 4.5 6.5
t4.5 7.5q0 1 0.5 1t0.5 1q18 26 45.5 64t60.5 80.5t68.5 85.5t70 79t65 62t52.5 33q18 6 30.5 -1t14.5 -27q1 -17 -5.5 -38t-17 -42t-22.5 -41t-22 -33q-28 -41 -63.5 -79.5t-76 -71t-86.5 -56t-95 -35.5zM-79 125q-32 -53 -62.5 -106t-59.5 -107q-11 -20 -22.5 -42.5
t-19.5 -44.5q-4 -9 -7 -21q9 4 20 14t16 15q21 21 45.5 55t45.5 72.5t34.5 77t12.5 68.5q-1 5 -1 10t-2 9zM-71 190q-18 -3 -29 -6q5 -2 10 -4.5t9 -5.5q2 4 5 7.5t5 8.5z" />
    <glyph glyph-name="t" unicode="t" horiz-adv-x="392" 
d="M49 320q30 17 60.5 36.5t58.5 42.5q-17 -2 -32.5 -3.5t-32.5 -3.5l-1 -2q-14 -17 -27 -34.5t-26 -35.5zM205 430l12 12q8 8 15 16t13 16q7 9 17 26t8 29q0 4 -8 4q-10 -1 -22 -7t-24 -14.5t-22.5 -18t-17.5 -15.5q-11 -11 -20.5 -22t-19.5 -22q-3 -3 -5.5 -6.5t-5.5 -6.5
q38 3 80 9zM-196 417q26 -2 51 -2.5t50 -1.5q47 -1 92.5 0t91.5 5q2 3 5 6.5t5 6.5q27 34 62 69t71 51q14 7 31.5 8.5t27.5 -13.5q6 -9 5.5 -20.5t-4.5 -23.5t-10.5 -22.5t-12.5 -18.5l-12 -15q-2 -3 -4 -5.5t-4 -4.5q48 7 96 18q16 3 32 6.5t33 7.5q8 2 15.5 4t15.5 4
q12 3 16 -10t-10 -16q-8 -2 -15.5 -4t-15.5 -4q-51 -12 -100.5 -21t-98.5 -16q-41 -37 -89.5 -68t-93.5 -55q-5 -3 -10.5 -5.5t-10.5 -5.5l-24 -34t-23 -35q-26 -40 -51.5 -82t-46.5 -85q-5 -9 -12 -24.5t-13.5 -32.5t-10.5 -33t-1 -26q2 -7 7 -8t10 0q13 1 29 7.5
t32.5 15.5t31.5 18.5t26 17.5q35 25 70 52t69 54q67 54 133.5 106.5t136.5 102.5q4 3 7.5 5.5t7.5 5.5q11 7 19 -3q7 -11 -3 -19q-64 -45 -125.5 -93t-122.5 -97q-39 -31 -78.5 -62.5t-80.5 -60.5q-28 -20 -63.5 -42t-67.5 -31q-18 -5 -36 -2.5t-26 22.5q-5 13 -2 32t9.5 38
t14.5 37t14 30q22 44 48 87t52 85q17 26 34.5 50.5t35.5 49.5q14 19 27.5 36.5t27.5 36.5q-66 -5 -131 -4.5t-134 5.5q-13 0 -13 14q1 5 5 9t9 3z" />
    <glyph glyph-name="y" unicode="y" horiz-adv-x="464" 
d="M23 273q-14 -23 -25.5 -44.5t-22.5 -46.5q-2 -7 -5.5 -14t-5.5 -14q-1 -2 -2 -8.5t1 -8.5q7 -2 19.5 2.5t18.5 7.5q16 9 37.5 27.5t42.5 39.5t40.5 42t32.5 36q14 16 28.5 32t28.5 33q4 5 8 9t10 3q10 0 12 -10v-8q-1 -2 -3 -7t-3 -7q-13 -32 -25 -64t-25 -64
q67 31 136.5 53.5t140.5 35.5q8 2 12 2q12 3 16 -10q2 -14 -11 -16q-35 -6 -68 -13.5t-67 -18.5q-86 -27 -174 -70q-8 -20 -16.5 -38.5t-16.5 -37.5q-17 -36 -39 -76.5t-48 -78.5t-56.5 -72t-63.5 -56q-23 -17 -51 -27.5t-57 -12.5q-35 -1 -48.5 20.5t-2.5 53.5q7 25 24 51
t38 51.5t43.5 48t42.5 39.5q52 45 109.5 83.5t120.5 70.5q11 25 20.5 49.5t18.5 50.5q-12 -14 -24.5 -28.5t-25.5 -28.5q-23 -24 -49 -49t-52 -45q-8 -6 -19 -13t-23 -11.5t-24 -5.5t-21 5q-14 8 -15 21.5t4 25.5q2 8 5.5 15t5.5 15q11 26 23.5 48t26.5 46q7 12 18 5
q12 -7 5 -18zM133 152q-65 -35 -124 -78t-110 -92q-14 -14 -30.5 -32t-31.5 -38t-27 -40.5t-16 -38.5q-8 -33 24 -33q20 0 39.5 6.5t36.5 15.5q35 19 67.5 52.5t60.5 73.5t51 81.5t40 77.5q5 11 10 22.5t10 22.5z" />
    <glyph glyph-name="j" unicode="j" horiz-adv-x="290" 
d="M22 284q-7 -18 -15.5 -39.5t-18.5 -44.5q85 40 169 65q20 6 40.5 11.5t40.5 10.5q16 3 31 6.5t31 5.5q13 2 16 -11q2 -13 -11 -15q-88 -15 -171 -43t-162 -67q-27 -60 -62 -123t-77 -116t-90.5 -88t-103.5 -39q-19 -2 -37 5t-22 29q-3 21 9 46.5t31 50.5t40.5 46.5
t36.5 35.5q55 51 119.5 94t134.5 78q14 32 25.5 60t20.5 52q5 11 17 8q9 -4 9 -13q0 -2 -0.5 -2.5t-0.5 -2.5zM5 354l3.5 7l3.5 7q7 11 18 4q5 -2 6 -7.5t-1 -10.5q-2 -2 -3 -5.5t-3 -5.5q-2 -5 -7.5 -7t-10.5 1q-5 2 -6.5 7t0.5 10zM-67 143q-33 -18 -66 -39
q-30 -18 -62.5 -41.5t-63.5 -49.5t-59 -54.5t-48 -57.5q-4 -5 -9.5 -14t-10 -18.5t-7 -19t-0.5 -16.5q2 -6 9 -8t15.5 -2t16.5 1.5t13 2.5q42 10 80.5 41.5t73 75.5t64.5 96t54 103z" />
    <glyph glyph-name="g" unicode="g" horiz-adv-x="495" 
d="M311 387q-38 7 -78.5 2.5t-79 -18t-72.5 -36t-60 -51.5q-20 -23 -35 -50.5t-17 -57.5v-11t5 -10q6 -1 15 2t18.5 8t18 10.5t13.5 8.5q30 21 59.5 46t55.5 49q16 14 31 29t31 29l6 6t8 2q10 0 13 -10l-1 -8q0 -1 -2 -5t-2 -6q-11 -30 -22.5 -59t-23.5 -58q42 20 85 36.5
t86 29.5q68 22 143 34q5 2 9.5 -1.5t5.5 -9.5q2 -5 -1.5 -9.5t-8.5 -5.5q-88 -15 -172 -43t-163 -68q-22 -48 -54.5 -109.5t-74.5 -117t-93 -95t-109 -43.5q-20 -2 -37.5 5t-21.5 29q-3 21 9 46.5t31 50.5t40.5 46.5t36.5 35.5q54 50 118.5 93t133.5 78q10 23 18 42.5
t15 36.5q2 6 4.5 11.5t4.5 11.5q-27 -26 -54.5 -50t-56.5 -47q-10 -8 -24.5 -18.5t-30.5 -20t-32 -15t-29 -3.5q-18 3 -23.5 18t-3.5 31q2 36 20 69t42 59q28 30 65 53.5t78 38t84 19t84 -2.5q13 -3 11 -16t-16 -11zM137 142l-18 -10t-17 -10q-33 -19 -68 -43t-69 -51
t-64.5 -56.5t-53.5 -59.5q-5 -6 -11.5 -16t-12.5 -21t-9.5 -22t-1.5 -19q2 -9 13.5 -10t19.5 0q46 4 88 34.5t79 76t68.5 100.5t56.5 107z" />
    <glyph glyph-name="p" unicode="p" horiz-adv-x="387" 
d="M23 287q-5 -9 -15.5 -27l-24.5 -42q36 31 73 59t68.5 45t54 19t29.5 -19q6 -18 -11 -44t-42.5 -53t-52 -51.5t-40.5 -39.5q18 1 45.5 11t59.5 25t65.5 32.5t64 35.5t55.5 34t40 26q5 4 10.5 3t8.5 -6q8 -10 -3 -19q-18 -12 -46 -30t-62 -37.5t-71 -38.5t-71 -33.5
t-63 -23t-47 -6.5q-22 2 -20.5 14.5t16 30.5t37.5 40t45 44t38.5 42t17.5 33q-2 0 -4.5 -0.5t-3.5 -0.5q-20 -5 -46.5 -19t-56.5 -35.5t-62.5 -49t-65.5 -58.5q-23 -38 -48 -80t-51 -82.5t-50.5 -77t-46 -63t-38 -41.5t-25.5 -12q-17 5 -13.5 27t19 53t39.5 66t46.5 65
t40 52t21.5 26l25.5 25.5t50.5 48.5q29 50 52.5 89t34.5 57q7 12 19 5q11 -7 4 -19zM-150 52q-54 -60 -93.5 -118t-53.5 -101q12 13 28 36t35.5 52t41 62.5t42.5 68.5z" />
    <glyph glyph-name="a_0.001" unicode="&#xe000;" horiz-adv-x="432" 
d="M198 306q-64 12 -126.5 -8t-110.5 -63q-12 -11 -24 -25t-21 -30t-14.5 -33t-4.5 -34q0 -5 1.5 -11t6.5 -7q7 -2 18.5 2t23.5 11t23 14t17 12q36 26 69.5 56t65.5 61q3 3 7 6t9 3q8 0 12 -8v-8q0 -1 -0.5 -4t-0.5 -5q-5 -26 0.5 -44t17.5 -31t30.5 -21t41.5 -13
q34 -8 76.5 -9t86.5 1.5t87 7t78 9.5q78 11 154.5 23t154.5 21q38 5 77.5 8.5t77.5 1.5q12 0 26.5 -1.5t28.5 -5.5t26 -11.5t19 -19.5l1 -2q2 -5 0.5 -10t-6.5 -7q-11 -6 -18 6q-5 8 -15.5 13t-23.5 7.5t-26 3.5t-22 1q-36 1 -74.5 -2.5t-74.5 -8.5q-91 -11 -181 -25.5
t-181 -25.5q-53 -6 -109.5 -9.5t-110.5 0.5q-32 2 -62.5 9t-54.5 20.5t-38.5 35.5t-14.5 55q-20 -18 -44 -39.5t-49 -41.5t-49.5 -36t-45.5 -23q-26 -9 -43.5 1t-18.5 39q-1 21 5.5 41.5t17 39t25 35t29.5 30.5q52 46 119.5 66.5t136.5 7.5q13 -2 11 -16q-4 -13 -16 -10z
" />
    <glyph glyph-name="b_0.001" unicode="&#xe001;" horiz-adv-x="478" 
d="M51 327q15 10 30.5 19.5t30.5 19.5q94 59 185.5 124t172.5 140q15 13 35.5 33.5t40.5 43.5t36 46t21 41q1 4 2 10t-4 8q-6 3 -14.5 2t-18 -3.5t-18 -6t-13.5 -6.5q-32 -15 -65.5 -37t-66.5 -48t-63.5 -53.5t-55.5 -51.5q-64 -63 -124 -134.5t-111 -146.5zM16 275
q-10 -17 -19.5 -33t-18.5 -33q-4 -8 -10.5 -22t-10.5 -29.5t-3 -29t13 -18.5q9 -4 21 -3.5t24 3.5t23.5 7.5t19.5 8.5q10 5 23 13t24.5 18t20 21.5t11.5 23.5q0 2 0.5 4.5t0.5 4.5q-13 1 -24.5 3.5t-19.5 9.5t-11 17t4 19q8 10 20.5 9t22.5 -6q8 -5 14.5 -11.5t11.5 -14.5
q19 0 38 2t34 4q48 6 96.5 13t96.5 14q69 10 139.5 17t139.5 6q35 -1 76 -5.5t78.5 -18t66 -38t39.5 -65.5l1 -3q2 -6 -1.5 -10.5t-8.5 -5.5q-13 -4 -16 10q-3 11 -9 26q-16 31 -49.5 48t-73 25t-80 9.5t-71.5 0.5q-87 -3 -174 -15t-174 -25q-32 -5 -65 -9t-65 -6h-10
q1 -17 -7 -32t-20.5 -28.5t-27 -24t-27.5 -17.5q-13 -8 -30.5 -15.5t-36 -11t-36.5 -2.5t-31 12q-14 12 -16.5 29t1 35t11 35.5t13.5 29.5q14 27 30.5 53.5t33.5 52.5q51 76 112 149t126 139q27 27 58.5 56t66 56.5t70 51.5t69.5 40l22.5 10t28 9t27.5 2t22 -9
q13 -12 11 -30t-13 -39t-28.5 -43.5t-36 -42.5t-34.5 -36t-25 -24q-83 -78 -178 -145.5t-191 -128.5q-26 -16 -51.5 -32t-51.5 -33q-4 -2 -6 -2z" />
    <glyph glyph-name="c_0.001" unicode="&#xe002;" horiz-adv-x="415" 
d="M124 323q6 2 12 6t8 8q0 2 -3.5 4.5t-5.5 3.5q-9 4 -20 2.5t-22.5 -6.5t-21.5 -11.5t-17 -11.5q-11 -8 -22 -19t-20.5 -24t-16 -26.5t-7.5 -26.5t4 -21.5t13.5 -14t19.5 -8.5t21 -4q10 -2 25 0t31.5 5.5t32 7.5t25.5 7q52 15 104 31t103 32q65 20 130.5 38.5t131.5 32.5
q22 5 51.5 10t60 7.5t59 0.5t48.5 -12l2 -1q11 -6 6 -18q-2 -5 -7.5 -6.5t-10.5 1.5q-15 7 -36.5 9t-45 1t-45.5 -4.5t-39 -6.5q-57 -10 -113 -24.5t-110 -30.5q-65 -20 -128.5 -39.5t-128.5 -38.5q-13 -4 -33 -9.5t-41 -10.5t-41 -8t-32 -1q-20 2 -40.5 10.5t-32.5 25.5
q-10 14 -11 30t4 31.5t14 30t18 25.5q11 13 26.5 27t33 25t36 17t35.5 5q11 -2 21.5 -6.5t15.5 -13.5q7 -11 5 -20.5t-9 -17t-17 -13t-19 -8.5q-8 -2 -15 -1t-10 10q-2 5 0 9.5t6 8.5q4 3 9 3.5t9 -2.5z" />
    <glyph glyph-name="d_0.001" unicode="&#xe003;" horiz-adv-x="511" 
d="M164 295q-2 1 -4 1t-4 1q-7 -14 -12 -31q-1 -3 -2 -6.5t-2 -6.5q19 15 37.5 30t36.5 30q58 49 114.5 100.5t108.5 105.5q26 26 51.5 55t46.5 59q3 5 8.5 13t10.5 17t8 17.5t2 13.5q-1 4 -5.5 5t-10.5 0t-11.5 -3t-7.5 -3q-23 -9 -49.5 -26.5t-53 -38.5t-50 -43t-40.5 -40
q-45 -46 -91.5 -104t-77.5 -120q3 0 4 -1q13 -4 9 -16q-4 -13 -16 -9zM129 301q-49 4 -93.5 -16.5t-80.5 -54.5q-20 -19 -41 -48t-27 -56q-2 -5 -1.5 -14.5t8.5 -9.5q11 -1 29 7t37.5 19t37 22t26.5 17q21 14 41.5 29t40.5 30q2 13 5.5 25t7.5 24q5 14 10 26zM130 212
q-5 -28 -0.5 -54t27.5 -43q22 -17 58.5 -20.5t75.5 0t76 10.5t62 13q77 18 152.5 40.5t150.5 45.5q50 14 100.5 28t101.5 25q18 4 41.5 8t47.5 5t46.5 -2t38.5 -13l2 -2q11 -7 4 -18q-9 -11 -19 -4q-17 12 -42.5 12.5t-45.5 -1.5q-38 -4 -77.5 -13t-76.5 -19
q-93 -24 -183.5 -52.5t-183.5 -52.5q-31 -8 -71.5 -17.5t-82.5 -15t-82.5 -6t-71.5 9.5q-23 7 -38 18.5t-24 26.5t-12 32.5t-3 36.5q-29 -23 -60 -44t-62 -39q-9 -5 -21.5 -11.5t-26.5 -12t-27 -7.5t-23 2q-14 6 -18.5 19t-2.5 27q2 16 9.5 33.5t18.5 34t24 31.5t25 26
q42 40 94 62.5t109 15.5q34 69 86.5 134t103.5 116q17 17 43.5 41t56.5 46.5t60 39.5t54 21q15 3 29 -3t17 -23q3 -14 -5 -32.5t-20 -37t-25 -35t-22 -26.5q-34 -40 -72 -78.5t-76 -73.5q-57 -54 -117.5 -105t-122.5 -99z" />
    <glyph glyph-name="e_0.001" unicode="&#xe004;" horiz-adv-x="445" 
d="M-4 259q19 0 42.5 0.5t46 4t43.5 9.5t36 16q13 9 17 20t-14 19q-21 9 -47.5 3t-46.5 -16t-40.5 -24.5t-36.5 -31.5zM-24 235q-9 -13 -17 -28.5t-10.5 -31.5t1.5 -30.5t19 -26.5q10 -8 22.5 -13t23.5 -8q12 -3 43.5 1t67.5 11t69.5 14.5t48.5 11.5l230 52t232 44
q53 8 109.5 14t110.5 5q30 -1 61.5 -5.5t58.5 -18.5q12 -7 6 -18q-7 -12 -18 -6q-23 12 -51 16t-54 5q-51 2 -105 -3.5t-104 -13.5q-94 -14 -186 -33.5t-183 -40.5q-54 -13 -108 -25t-109 -23q-12 -2 -29 -5.5t-35 -6t-34.5 -3.5t-27.5 2q-16 5 -32.5 12.5t-28.5 18.5
q-22 21 -25 46.5t6 51.5t25.5 49.5t34.5 39.5q25 23 57 41t65 26q10 2 22.5 3t25 -1t23 -7t18.5 -15q13 -15 8.5 -32t-18.5 -29q-17 -15 -43 -23.5t-54.5 -13t-57 -5.5t-50.5 -1q-5 0 -8 3z" />
    <glyph glyph-name="f_0.001" unicode="&#xe005;" horiz-adv-x="362" 
d="M36 310q43 14 83 38t76 54.5t67 66t55 71.5q8 12 17.5 27.5t18 32.5t14.5 33.5t7 30.5v5.5t-2 5.5q-5 2 -14.5 -3.5t-13.5 -7.5q-29 -19 -59 -49.5t-53 -55.5q-42 -47 -80.5 -95.5t-75.5 -98.5q-10 -14 -20 -27.5t-20 -27.5zM12 276q-11 -16 -20.5 -31.5t-20.5 -31.5h1
q65 7 130.5 11.5t131.5 7.5q88 4 176 5.5t176 -3.5q46 -2 94.5 -6t94.5 -13q14 -3 33.5 -7.5t37.5 -12.5t32 -19.5t17 -27.5v-3q2 -5 -1.5 -9.5t-9.5 -5.5q-13 -2 -15 11q-2 7 -9 13.5t-16 11t-18.5 8t-16.5 5.5q-37 11 -80 16.5t-81 8.5q-72 5 -143.5 6.5t-143.5 -0.5
q-84 -2 -167.5 -6.5t-166.5 -12.5l-30 -3t-43 -4q-5 -8 -9 -15.5t-9 -15.5q6 -11 9 -25q6 -30 -3 -67t-25.5 -74t-37.5 -71t-39 -57q-7 -9 -19 -24t-26.5 -28.5t-29.5 -23t-27 -6.5q-11 2 -14.5 9t-3 16t3.5 18t6 15q8 23 20 46.5t24 44.5q30 57 63 113l66 112q-11 8 -27 11
q-8 2 -15 5t-7 12q0 11 11.5 15t20.5 6q12 3 25 5t27 4q11 18 22 35.5t23 35.5q2 3 4.5 6.5t5.5 7.5q0 1 0.5 1t0.5 1q18 26 45.5 64t60.5 80.5t68.5 85.5t70 79t65 62t52.5 33q18 5 30.5 -2t13.5 -27q1 -16 -5.5 -37t-17 -42.5t-22.5 -41t-21 -33.5q-28 -41 -63.5 -79
t-76.5 -70.5t-87 -56t-95 -35.5zM-81 125q-32 -53 -63 -106t-60 -107q-11 -20 -22 -42.5t-19 -44.5q-2 -4 -4 -10t-3 -11q8 4 19.5 14t16.5 15q21 21 45 55t45 72.5t34.5 77t12.5 68.5q0 9 -2 19zM-80 179q-2 0 -4.5 -0.5t-5.5 -0.5q2 -1 3.5 -2t3.5 -2q2 4 3 5z" />
    <glyph glyph-name="g_0.001" unicode="&#xe006;" horiz-adv-x="495" 
d="M314 389q-39 7 -79.5 2.5t-78.5 -18.5t-72.5 -36.5t-60.5 -51.5q-20 -22 -34.5 -49.5t-16.5 -57.5q-1 -3 -1 -11t5 -10q6 -2 15 1.5t18.5 8.5t18 10.5t13.5 8.5q30 20 59.5 45t55.5 50q16 14 31 29t31 29q3 3 6.5 5.5t8.5 2.5q9 0 12 -10l-1 -8q0 -1 -1.5 -5.5t-2.5 -5.5
q-14 -38 -28.5 -75t-31.5 -74q65 18 129.5 29t127.5 16q106 10 219 6.5t218 -21.5q21 -4 58.5 -12t73.5 -22t63 -33.5t27 -45.5v-4q0 -5 -4.5 -9t-9.5 -3t-9 5t-3 10q0 7 -4.5 12.5t-9.5 10.5q-16 14 -42.5 25.5t-57 19.5t-60 14t-51.5 9q-74 12 -155 16t-163.5 1t-163 -14
t-152.5 -29q-11 -3 -22.5 -6t-22.5 -7q-23 -49 -55 -106t-72.5 -107t-88 -85.5t-101.5 -39.5q-35 -3 -49.5 18.5t-8.5 53.5q4 23 15.5 45.5t27 43t33.5 39t35 32.5q53 44 115 75t130 53q13 29 24 55t19 48q2 5 4.5 11t4.5 11q-27 -25 -54 -49t-56 -47q-10 -8 -25 -18.5
t-31 -20t-32 -15t-28 -3.5q-19 3 -24.5 18t-3.5 31q3 36 20.5 68.5t41.5 58.5q28 30 65 54t78 38.5t84.5 19t84.5 -3.5q5 -1 8.5 -5.5t1.5 -9.5q-2 -13 -15 -11zM131 126q-66 -23 -127.5 -57t-111.5 -83q-12 -11 -24.5 -26t-23.5 -31.5t-19 -34t-9 -34.5q-5 -39 33 -34
q44 4 84 32.5t76 71t66.5 94t55.5 102.5z" />
    <glyph glyph-name="h_0.001" unicode="&#xe007;" horiz-adv-x="557" 
d="M-15 282l4 2q15 23 30.5 45.5t31.5 44.5q48 64 99.5 126.5t106.5 119.5q45 47 95 89.5t105 77.5q12 8 37 22.5t53 26t53.5 13.5t38.5 -14q11 -14 4.5 -36t-23 -47t-40.5 -51t-48 -49t-44.5 -41t-30.5 -27q-66 -56 -137 -108t-143 -100q-42 -29 -84 -56t-85 -55
q-11 -17 -21.5 -34t-20.5 -34q-6 -11 -16.5 -29.5t-20.5 -39.5t-17 -40.5t-6 -31.5q1 0 1 -4q9 3 28.5 17t41 31t40.5 33t27 23q23 19 46.5 38.5t48.5 36.5q5 4 13 9.5t16.5 10t17 7t15.5 1.5q8 -1 15 -6t10 -13t1 -17t-6.5 -17.5t-10.5 -16.5t-11 -14l-12 -15t-15.5 -21.5
t-11.5 -22.5t0 -17q4 -7 15.5 -10t25.5 -4.5t27 -1t21 0.5q38 3 76.5 9t75.5 14q81 15 160 33t159 35q64 14 129.5 27t130.5 22q22 3 52 5.5t61 2.5t60 -4.5t48 -16.5q18 -12 26 -31q3 -12 -8 -17q-5 -2 -10 0.5t-7 7.5l-1 1q-5 13 -20 20t-32.5 10t-35.5 3.5t-29 0.5
q-45 -2 -91 -7.5t-90 -13.5q-119 -21 -236 -48.5t-235 -50.5q-41 -8 -84 -15.5t-85 -11.5q-13 -1 -30.5 -2t-35 1t-33 7t-24.5 16t-8.5 23.5t5.5 25.5t13 24.5t15 20.5q3 4 9 11t12 15.5t10.5 16t4.5 11.5q0 2 -4 4q-5 0 -13 -4.5t-16.5 -10t-16.5 -11.5l-12 -9
q-33 -25 -65 -51.5t-64 -52.5q-8 -7 -21 -18t-27.5 -21.5t-28 -19t-22.5 -9.5q-11 -2 -18.5 3.5t-10.5 15.5q-4 13 0 32t12.5 39.5t18 38.5t15.5 30q12 21 24.5 42.5t26.5 42.5q0 9 6 12zM47 322q29 19 58.5 38t58.5 39q71 48 140.5 99t135.5 107q19 16 45 39t51.5 49.5
t47 53t30.5 48.5q2 4 4.5 13.5t-2.5 11.5q-5 3 -12.5 2.5t-16 -2.5t-16.5 -4.5t-13 -4.5q-32 -13 -66 -33.5t-67.5 -45.5t-64 -51t-55.5 -50q-52 -51 -100.5 -108t-93.5 -114q-17 -22 -33 -43.5t-31 -43.5z" />
    <glyph glyph-name="i_0.001" unicode="&#xe008;" horiz-adv-x="304" 
d="M22 272q-23 -35 -32 -55.5t-7 -30t14 -10t31 4t44 13t53 17.5q21 6 51.5 15.5t67.5 20t78 21.5t84 22q54 13 108 22.5t102 13.5t86.5 0t62.5 -19q4 -4 4.5 -9.5t-3.5 -10.5q-3 -4 -8.5 -4.5t-10.5 3.5q-7 5 -23 10q-29 8 -71 6.5t-93 -9.5q-67 -11 -142.5 -29.5
t-146 -38.5t-128.5 -38t-91 -27q-51 -14 -73 -6.5t-24 28t12.5 50.5t38.5 62q11 8 20 -3q2 -4 2 -8q0 -7 -6 -11zM25 328q4 5 3.5 5t3.5 4q3 5 8.5 6t10.5 -3q11 -9 2 -19l-3 -4l-2 -3q-2 -5 -7.5 -6.5t-10.5 1.5q-12 7 -5 19z" />
    <glyph glyph-name="j_0.001" unicode="&#xe009;" horiz-adv-x="290" 
d="M19 287l-22 -55t-26 -62q71 24 145 43t150 32q90 16 178 23.5t170 5.5q23 -1 54.5 -2.5t66 -6t69.5 -13t65 -21.5t52 -31.5t31 -44.5q5 -13 5 -31q0 -13 -14 -13q-13 0 -13 14v2q0 15 -6 26.5t-17 22.5q-23 22 -60.5 35.5t-79 21.5t-82.5 11t-71 3q-63 2 -130.5 -2.5
t-136.5 -13.5q-101 -14 -200.5 -38t-190.5 -57q-27 -57 -61 -115t-74 -106t-86 -80t-97 -36q-23 -2 -41.5 7.5t-22.5 34.5q-3 17 2.5 36t15.5 37.5t22.5 35t23.5 28.5q39 44 87 77t102 57q26 13 53 24t56 22q18 38 32.5 73.5t25.5 64.5q5 11 17 8q9 -5 9 -15zM15 348
q2 3 3 6.5t3 6.5q7 10 18 5q12 -7 5 -19q-2 -3 -6 -11q-2 -5 -7 -6.5t-10 0.5t-7 7.5t1 10.5zM-80 123q-23 -9 -45 -18t-42 -19q-57 -27 -113.5 -68.5t-92.5 -95.5q-5 -8 -10.5 -18.5t-10 -21.5t-6 -22.5t1.5 -20.5q3 -8 9.5 -11t15 -3t16.5 1t14 3q40 9 77 38t70 69.5
t62.5 89t53.5 97.5z" />
    <glyph glyph-name="k_0.001" unicode="&#xe00a;" horiz-adv-x="568" 
d="M52 324q86 51 168.5 106.5t160.5 116.5q43 34 85.5 71.5t79.5 78.5q7 8 18.5 21.5t22 28.5t18.5 29.5t9 26.5q1 8 -2.5 10t-10.5 2q-14 1 -32 -5t-36.5 -15t-35 -19.5l-27.5 -17.5q-50 -33 -99.5 -75t-95.5 -89t-88.5 -96.5t-78.5 -97.5q-14 -18 -28 -37t-28 -39zM19 274
q-17 -26 -32 -52.5t-28 -52.5q-7 -14 -15.5 -32t-15.5 -37.5t-11.5 -39t-4.5 -37.5q7 6 16 14.5l18 17t17 16.5l12 12q24 24 52.5 50.5t59.5 51.5t63.5 46t64.5 33q11 4 17 -3q5 -5 4 -10.5t-6 -9.5q-4 -3 -9.5 -6t-10.5 -5q-27 -16 -56.5 -34t-53.5 -38q-7 -5 -18 -16
t-13 -20q-4 -29 -1.5 -57t16.5 -54q17 -30 48.5 -49t70 -28.5t82 -12.5t86 -1.5t81 6.5t67.5 9q101 17 203.5 45.5t197.5 66.5q48 19 98.5 42.5t94.5 51.5q16 11 32 23t28 26q9 11 19 2q9 -8 2 -19q-14 -15 -33 -30t-40 -28t-42.5 -24.5t-39.5 -20.5q-72 -35 -151.5 -64
t-157.5 -51q-60 -17 -138 -33.5t-159 -24t-157 -2.5t-133 31q-60 28 -84 75t-18 109q-20 -18 -38.5 -36.5l-36.5 -36.5q-5 -4 -12.5 -11.5t-15.5 -15t-16 -13.5t-13 -7q-8 -2 -11 -1q-10 4 -12 16q-5 34 9 79.5t37 91.5t49.5 88.5t46.5 71.5q51 75 111 146.5t123 135.5
q52 53 116.5 106.5t130.5 88.5q10 5 26 12t33 12t32.5 5t26.5 -8q16 -13 12.5 -34.5t-16 -44t-29 -43t-25.5 -30.5q-38 -42 -81.5 -80.5t-87.5 -73.5q-89 -71 -185 -134t-195 -120h-1z" />
    <glyph glyph-name="l_0.001" unicode="&#xe00b;" horiz-adv-x="467" 
d="M34 312q96 51 187.5 114t169.5 137q18 17 40 39.5t42.5 47t38 49t26.5 47.5q2 5 6 16.5t0 16.5q-2 4 -13 1.5t-15 -3.5q-26 -8 -60 -29t-68.5 -46.5t-65.5 -51.5t-52 -44q-66 -59 -128.5 -135.5t-107.5 -158.5zM13 271q-4 -8 -7 -15t-6 -15q-9 -21 -18 -51.5t-9.5 -60
t11 -53t43.5 -32.5q11 -3 23.5 -4t23.5 1q20 3 43 9.5t43 12.5q50 16 99.5 33.5t99.5 34.5q119 42 238.5 83t240.5 75q60 17 121.5 31t122.5 22q23 3 50.5 4.5t55.5 0t54 -8t46 -20.5l3 -2q4 -4 5 -9t-3 -10q-3 -5 -8.5 -5.5t-9.5 3.5q-28 20 -68 23.5t-73 1.5
q-55 -3 -113 -14.5t-112 -25.5q-91 -23 -180.5 -51t-177.5 -59q-78 -26 -155.5 -54t-155.5 -54q-15 -5 -39 -13.5t-50 -16.5t-50 -13.5t-39 -5.5q-21 0 -42 5t-38 18q-23 19 -30.5 46.5t-5 58t11.5 60.5t18 53q22 52 54 105t71 103t81.5 95t85.5 82q35 30 72.5 59.5
t75.5 55.5q11 7 29 18.5t38.5 20.5t39.5 13t33 -3q16 -8 16 -25t-5 -31q-8 -25 -26.5 -53t-41 -55t-46.5 -52t-43 -43q-86 -82 -188.5 -150.5t-208.5 -122.5z" />
    <glyph glyph-name="m_0.001" unicode="&#xe00c;" horiz-adv-x="792" 
d="M27 279q-5 -8 -9.5 -17.5t-8.5 -18.5q-2 -5 -6 -14t-8 -20t-7.5 -21.5t-4.5 -18.5q6 5 13.5 11t10.5 9q30 24 63 49t66 45q9 5 22 11.5t27 11t27 4t22 -9.5q7 -7 8.5 -17t0 -21t-5 -22t-6.5 -19q-2 -8 -7.5 -23t-5.5 -23q3 0 7.5 1.5t6.5 3.5q8 5 17.5 11.5t17.5 11.5
l56 38t57 36q10 5 26.5 14.5t27.5 7.5q7 -2 13.5 -6.5t10.5 -9.5q7 -10 8 -22t-0.5 -24.5t-4.5 -25t-4 -23.5q-1 -3 -0.5 -8t4.5 -7q7 -4 18 -2t19 4q22 5 44 12t44 13q103 30 206 58.5t208 50.5q48 10 98.5 18t99.5 10q15 1 33 0.5t36.5 -3t35.5 -9t28 -17.5l2 -1
q7 -11 -1 -19q-11 -9 -19 1q-8 8 -20.5 12.5t-27 6.5t-28.5 2.5t-24 0.5q-45 -1 -91.5 -8t-90.5 -15q-82 -16 -163 -36.5t-161 -43.5q-45 -13 -89 -26t-89 -26q-14 -5 -30.5 -9t-32.5 -3q-22 2 -30 15.5t-6 33.5q2 14 6.5 30.5t3.5 30.5q0 13 -10 18q-6 -2 -16.5 -7.5
t-16.5 -8.5q-26 -15 -51 -31.5t-49 -33.5q-12 -8 -24.5 -16.5t-25.5 -16.5q-8 -5 -19 -8t-20 -1q-12 4 -15 13.5t-1 20.5q1 10 5.5 22t8.5 24t7.5 23.5t3.5 20.5q0 7 -3 9q-5 2 -14.5 0t-19.5 -6.5t-19 -9.5t-13 -8q-32 -19 -63.5 -43t-60.5 -47q-8 -6 -18.5 -14.5
t-18.5 -12.5q-11 -4 -19.5 -0.5t-10.5 14.5q-2 8 0.5 20.5t7 26t9.5 26.5t9 21q5 11 10 23t11 22q3 5 8.5 6t10.5 -2q11 -7 4 -19z" />
    <glyph glyph-name="n_0.001" unicode="&#xe00d;" horiz-adv-x="721" 
d="M30 279q-1 -5 -1.5 -7t-2.5 -6q-5 -11 -11.5 -22.5t-12.5 -22.5q-11 -19 -22 -41t-19 -43q-2 -5 -4 -12.5t-2 -12.5q12 3 29.5 12t36 20t35.5 22t27 18q26 17 53.5 34.5t54.5 31.5q14 7 32.5 14.5t33.5 4.5q22 -3 28.5 -17.5t3.5 -34.5q-4 -17 -10 -32.5t-9 -32.5
q-1 -3 -1.5 -9.5t3.5 -8.5q4 -3 12.5 -2.5t17.5 2t18 3.5t14 4q44 13 88 24l88 22q90 22 180 40.5t181 32.5q52 8 106 13.5t107 4.5q16 0 36 -1t39.5 -4.5t37.5 -10t30 -17.5l1 -1q5 -4 5 -9.5t-4 -9.5q-9 -9 -19 -1q-17 15 -50.5 21t-71 7t-73.5 -2t-58 -6
q-76 -8 -151.5 -21.5t-149.5 -29.5q-75 -17 -150 -35t-150 -38q-9 -3 -20.5 -6.5t-24 -6t-24.5 -3t-21 2.5q-22 8 -23 26.5t4 36.5q4 12 9.5 28t6.5 29q1 7 -0.5 10.5t-9.5 5.5q-6 1 -15.5 -2t-19 -7.5t-18.5 -9t-14 -7.5q-35 -20 -68 -42t-67 -43q-17 -11 -39 -23.5
t-41 -19.5q-8 -3 -15 -4t-15 4t-10 12.5t-1.5 16t3 17t4.5 15.5q10 25 23.5 50.5t26.5 49.5q10 16 17 32q2 13 14 11q5 0 9 -4.5t3 -9.5z" />
    <glyph glyph-name="o_0.001" unicode="&#xe00e;" horiz-adv-x="372" 
d="M77 286q-5 1 -15 1q5 -11 15.5 -21t22.5 -18q2 15 3 29.5t-3 25.5t-10.5 12.5t-15.5 -2.5q2 0 4 -0.5t4 -0.5q13 -4 10 -16q-1 -5 -5.5 -8.5t-9.5 -1.5zM35 284q-18 -5 -33.5 -17t-28.5 -26q-11 -12 -22 -28t-19 -33.5t-13 -35.5t-5 -35q0 -20 7.5 -29.5t19.5 -11t26 3.5
t27 13q32 20 54.5 49.5t36.5 63.5q2 5 4 11t4 13q-15 8 -28 18.5t-21 24.5q-6 9 -9 19zM124 237q22 -8 46 -9t47 -1q42 2 83.5 6.5t83.5 9.5q67 8 135 16t135 10q27 0 60.5 -1t66.5 -7t62 -18.5t47 -35.5l2 -2q7 -11 -3 -19q-11 -7 -18 3l-1 1q-17 20 -45 31t-60.5 16
t-65 5.5t-56.5 -0.5q-85 -4 -170 -15.5t-170 -19.5q-35 -4 -77.5 -6t-77.5 3q-8 1 -15 3t-15 4q-11 -33 -28.5 -63t-41.5 -54q-11 -11 -25.5 -21.5t-30.5 -18.5t-32.5 -11t-32.5 2q-23 7 -31.5 26t-8.5 40q0 22 7.5 45t19 45t26.5 41.5t31 33.5q14 13 30.5 22t33.5 13
q5 15 20 23q11 6 23.5 8t24.5 -3q12 -6 18 -18t7.5 -26t0 -28t-3.5 -25q0 -4 -1 -5z" />
    <glyph glyph-name="p_0.001" unicode="&#xe00f;" horiz-adv-x="387" 
d="M25 288q-5 -9 -15 -26.5t-24 -41.5q34 30 69.5 56.5t66.5 44t53.5 21t31.5 -13.5q8 -16 -7 -41t-38.5 -52t-49 -51t-38.5 -38q22 1 63 8.5t91.5 18.5t107 23.5t110.5 24t101 20t79 12.5q24 3 60 6t71.5 0t64.5 -17t39 -45q3 -12 -10 -16q-5 -2 -10 1.5t-6 8.5
q-7 21 -33.5 30.5t-64.5 11t-82 -3t-85.5 -11t-76 -13.5t-51.5 -11q-12 -3 -45 -11t-75.5 -18.5t-89.5 -20.5t-87.5 -16.5t-69 -7t-33.5 8.5t3 22.5t23 29.5t34.5 33.5t36.5 35t29.5 34t13.5 30.5q-2 -1 -3.5 -1t-3.5 -1q-20 -5 -46.5 -19.5t-56.5 -36t-62.5 -49
t-65.5 -58.5q-22 -38 -47.5 -80t-51 -82.5t-50 -77t-46 -63t-38 -41.5t-25.5 -12q-17 5 -13.5 27t19 53t39 66t46.5 65t40.5 52t21.5 26q5 7 26 27t50 48q29 49 52.5 88t34.5 57q7 12 18 5q12 -7 5 -19zM-148 53q-54 -60 -93.5 -118t-53.5 -101q12 13 28 36t35.5 52
t40.5 62.5t43 68.5z" />
    <glyph glyph-name="q_0.001" unicode="&#xe010;" horiz-adv-x="463" 
d="M198 319q-15 19 -39 20t-46 -6q-27 -8 -53.5 -23.5t-50.5 -36.5t-42.5 -46.5t-28.5 -51.5q-2 -4 -4 -12.5t0 -11.5t11.5 -1.5t11.5 2.5q31 8 66 29.5t60 41.5q29 22 57 46t56 47q2 2 2 3zM222 315v-1v-8q-1 -4 -6.5 -13t-8.5 -13q-14 -20 -29.5 -39t-30.5 -38
q-21 -26 -42.5 -51t-42.5 -51h4q163 31 325 47q68 8 136.5 12.5t136.5 2.5q23 0 56 -2t66.5 -8.5t63 -18t44.5 -31.5l2 -2q7 -12 -4 -19t-18 3q-9 13 -26.5 21.5t-37.5 14t-40 8t-35 4.5q-53 5 -108 4t-109 -4q-88 -6 -175 -16.5t-174 -24.5q-28 -5 -56 -9.5t-56 -9.5
q28 -8 39 -28.5t-1 -52.5q-10 -27 -33.5 -55.5t-53.5 -54t-61.5 -45t-58.5 -28.5q-11 -3 -28.5 -6t-26.5 4q-7 5 -8 13t2 16t7.5 16t7.5 13q13 21 28.5 42.5t31.5 41.5q20 26 40.5 50.5t41.5 50.5q-4 -1 -12 -1q-6 -1 -14.5 -1.5t-13.5 3.5q-8 8 -3 18q4 5 12.5 7.5
t14.5 4.5q13 3 25.5 6t26.5 6q27 32 54 63.5t53 63.5q4 6 7 9q-20 -17 -43 -34q-12 -9 -34 -23.5t-47 -27.5t-48.5 -19.5t-38.5 1.5q-17 9 -16 27.5t7 32.5q19 48 56.5 87.5t81.5 63.5q19 10 42.5 18.5t46.5 10t44.5 -6t36.5 -28.5q6 -8 0 -16zM20 51q-50 -57 -96 -117
q-15 -19 -30.5 -39.5t-28.5 -41.5q-2 -4 -6 -11t-6 -12q15 0 33.5 7t36 17.5t33 21.5t26.5 20q12 9 26.5 23t28 30t24 32.5t13.5 31.5q3 18 -6.5 25.5t-24.5 10.5q-6 1 -12 1.5t-11 0.5z" />
    <glyph glyph-name="r_0.001" unicode="&#xe011;" horiz-adv-x="299" 
d="M13 287l-4.5 4.5t-3.5 6.5t-1.5 12.5t2 15t5 14t8.5 9.5q7 3 15 1t13 -7q9 -8 8.5 -21t-5.5 -24q17 -8 29.5 -21.5t6.5 -34.5q-5 -18 -23 -33t-32 -27q-11 -10 -23.5 -21t-23.5 -22q12 4 25.5 9.5t20.5 8.5q75 30 151.5 57.5t153.5 51.5q75 24 152 44t154 32
q33 5 77.5 10t89.5 2t84 -17t60 -46l1 -3q7 -11 -4 -18t-18 4l-1 2q-18 28 -55.5 39t-80.5 12.5t-85 -3.5t-70 -9q-77 -13 -153 -33t-150 -43q-75 -24 -150 -51t-147 -56l-17.5 -7.5t-21 -8.5t-20.5 -6.5t-16 -1.5q-10 1 -15 7.5t-2 16.5q2 7 11 17t20 20.5t21.5 20
t16.5 14.5q4 4 11.5 9.5t14.5 12.5t12.5 13.5t6.5 12.5q1 8 -10 15t-17 10q-4 2 -8 3.5t-6 5.5q-5 0 -7 1z" />
    <glyph glyph-name="s_0.001" unicode="&#xe012;" horiz-adv-x="344" 
d="M26 296q10 -27 8 -54q18 4 35 7l34 6q57 10 124 16t136.5 5.5t139 -10t133.5 -31t118.5 -55.5t94.5 -85l1 -1q3 -5 2.5 -10.5t-4.5 -8.5q-5 -4 -10.5 -3t-8.5 5q-38 48 -90.5 81t-114 53t-128.5 29t-134 10t-131 -5t-119 -15l-40 -8t-41 -9q-5 -31 -19.5 -60.5
t-32.5 -52.5q-17 -22 -41.5 -43.5t-51.5 -29.5q-21 -6 -42.5 -1t-32.5 27q-11 21 -3.5 44t21.5 40q30 38 78 61t100 37q3 28 -6 52q-2 5 0 10t7 7t10.5 -0.5t7.5 -7.5zM2 206q-46 -14 -86 -33q-23 -12 -46 -31.5t-34 -44.5q-8 -20 0 -34.5t32 -12.5q13 1 27.5 9t27 19.5
t23.5 23.5t19 23q11 17 21.5 37.5t15.5 43.5z" />
    <glyph glyph-name="t_0.001" unicode="&#xe013;" horiz-adv-x="392" 
d="M161 473q-4 -5 -9 -12.5t-11 -15.5l-1 -1q-2 -3 -4.5 -6.5t-5.5 -6.5q57 5 113 13t114 20q16 3 32 6.5t32 7.5l16 4l16 4q13 4 16 -10q3 -12 -10 -16l-16 -4l-16 -4q-81 -19 -159.5 -31.5t-157.5 -18.5q-18 -26 -35.5 -51.5t-28.5 -39.5q-21 -29 -41 -58t-40 -60
q-17 -28 -35.5 -60t-29.5 -62q-2 -4 -4.5 -11.5t-4.5 -15.5t-2.5 -15t2.5 -11q2 -3 8 -3.5t13 1t13 4t9 3.5q25 10 48.5 23.5t46.5 27.5q64 36 136.5 73t148.5 68.5t154 56t153 36.5q15 2 29.5 3.5t28.5 3.5q25 2 54.5 2t59.5 -4t57.5 -12.5t47.5 -24.5q12 -11 20 -23t9 -29
q0 -13 -13 -13q-14 0 -14 13v4q-2 11 -10 19t-16 13q-18 12 -41 18.5t-48 9.5t-50 2.5t-47 -1.5q-4 -1 -12 -1q-78 -7 -160 -30t-163.5 -55.5t-159 -71.5t-145.5 -78q-15 -8 -30 -17t-29 -17l-24 -12t-29.5 -12.5t-30.5 -6.5t-26 5t-14 16.5t-2.5 22.5t4.5 24l7 21
q12 33 31.5 67.5t37.5 64.5q20 30 40.5 59.5t41.5 58.5q8 11 22 31t29 42q-64 -4 -129 -4t-133 5q-5 0 -8.5 4.5t-3.5 9.5t4.5 9t9.5 3q26 -2 50.5 -2.5t50.5 -1.5q45 -1 89.5 0.5t89.5 4.5q2 3 4.5 6.5t4.5 6.5q11 15 20 27.5t15 20.5q7 10 18 3q10 -8 3 -19z" />
    <glyph glyph-name="u_0.001" unicode="&#xe014;" horiz-adv-x="592" 
d="M22 282q-4 -12 -11 -25.5t-12 -25.5q-5 -9 -14 -27.5t-16.5 -39.5t-10 -39.5t6.5 -27.5q6 -6 18.5 -3t25.5 10t24.5 15.5t16.5 12.5q32 24 61.5 53t57.5 58q22 23 43.5 46t43.5 46q5 6 15 16t17 12t13 -2t6 -12q0 -5 -4.5 -16t-6.5 -17q-5 -15 -10.5 -34t-7 -38.5t2 -38
t15.5 -31.5q8 -9 28 -11t45.5 0t54.5 7t55.5 11t47.5 11t32 8q106 27 210.5 58t211.5 57q42 9 86 17.5t86 11.5q15 1 34.5 0.5t37.5 -4.5t33 -13.5t21 -27.5v-2q2 -5 -0.5 -10t-7.5 -7q-13 -4 -17 9v1q-5 12 -18 18t-28.5 8t-32 2t-26.5 -1q-41 -3 -84 -11.5t-83 -18.5
q-103 -24 -204.5 -54t-204.5 -57q-42 -11 -85 -20.5t-85 -15.5q-13 -2 -30.5 -3.5t-35.5 -1t-34 5t-26 15.5q-14 15 -19.5 33t-6 38t3.5 40.5t10 38.5q-18 -19 -35.5 -37.5t-35.5 -37.5q-16 -17 -41.5 -42.5t-54 -50.5t-57 -45t-50.5 -25q-20 -4 -35 3t-21 27
q-5 16 -1.5 36.5t11 41.5t17 40.5t16.5 33.5q5 8 10.5 19.5t8.5 20.5q4 13 16 9q13 -4 9 -17z" />
    <glyph glyph-name="v_0.001" unicode="&#xe015;" horiz-adv-x="519" 
d="M26 280q-10 -17 -19.5 -37t-17.5 -37q-13 -30 -25 -62.5t-23 -64.5q8 5 15.5 10t14.5 10q38 27 75.5 55.5t74.5 57.5q19 15 37.5 30t38.5 31q2 4 4 7.5t4 7.5q8 11 20 19t26 7q11 -2 12 -10q2 -6 -0.5 -9.5t-7.5 -7.5q-9 -8 -17.5 -15t-17.5 -15q-2 -4 -2 -12
q-2 -26 21 -38q18 -9 49 -9.5t64.5 3t65.5 9.5t52 10q96 19 190 40.5t191 34.5q31 4 70 7.5t78.5 1t75.5 -12t62 -31.5q2 -2 2 -2.5t2 -1.5q9 -10 0 -19q-9 -10 -18 -1l-2 2q-21 19 -53 27.5t-67 11t-69.5 0t-61.5 -5.5q-69 -8 -138 -22.5t-137 -29.5q-51 -11 -102 -21.5
t-102 -18.5q-18 -3 -42 -5.5t-48.5 -2.5t-47 4t-37.5 15q-22 16 -25 44q-42 -34 -85 -68t-88 -66q-18 -14 -38.5 -28t-40.5 -25q-4 -2 -10 -5.5t-11 -2.5q-7 0 -11 9v7l1 2q10 39 24.5 79t31.5 77q8 20 18.5 41.5t21.5 39.5q7 11 18 4t4 -18z" />
    <glyph glyph-name="w_0.001" unicode="&#xe016;" horiz-adv-x="510" 
d="M16 281q-22 -29 -44 -58.5t-42 -59.5q-3 -5 -9.5 -16t-10.5 -20q7 3 15 7t11 6q44 23 82.5 57.5t76.5 66.5q4 3 8 6.5t9 3.5q8 0 12 -6.5t-1 -14.5q-5 -7 -9.5 -13.5t-9.5 -12.5q-8 -11 -21.5 -31t-26.5 -42t-21.5 -43.5t-6.5 -34.5q2 -8 7 -10.5t12 -3.5q12 -1 26.5 7
t29.5 20t27.5 25t20.5 21q23 26 46 56.5t41 60.5q-2 10 -2 19.5t4 15.5q2 5 8 9.5t11 6.5q8 3 14.5 -1t8.5 -12q1 -8 -4 -19t-9 -18l-3 -6q2 -8 3 -11q6 -14 28 -18.5t48.5 -3t52 5.5t39.5 7q51 10 101 22l100 24q72 17 145.5 33t146.5 24q31 3 66 4.5t69.5 -2t67 -13
t59.5 -27.5q12 -7 4 -18q-7 -11 -18 -4q-28 19 -63.5 27.5t-73.5 10.5t-76 -1.5t-69 -7.5q-92 -13 -182 -35t-181 -44q-38 -8 -78 -16.5t-79 -12.5q-14 -2 -32.5 -3t-36.5 1t-34 9t-25 21q-18 -27 -42.5 -59.5t-52 -60.5t-55.5 -46.5t-51 -16.5q-16 1 -27.5 8.5t-16.5 23.5
q-7 22 6.5 53.5t32.5 60.5q-22 -18 -44 -34t-46 -30q-8 -5 -23 -11.5t-23 -8.5q-9 -2 -16.5 1t-9.5 14q-1 6 2 15t7.5 18t9.5 17t9 14q20 31 42 61.5t45 59.5q3 4 8.5 4.5t10.5 -2.5q4 -3 5 -8.5t-3 -10.5z" />
    <glyph glyph-name="x_0.001" unicode="&#xe017;" horiz-adv-x="397" 
d="M23 287q-9 -22 -20 -55t-13 -65q26 27 52.5 54t52.5 53q8 8 17.5 17t18.5 16q3 3 4.5 4t5.5 3q12 3 16 -10q3 -10 -7 -15q-3 -3 -4 -3q-11 -10 -21 -20l-20 -20q-29 -28 -56.5 -56.5t-55.5 -57.5q1 -7 5 -14q12 -21 38 -18q12 1 26 4.5l26 6.5q42 11 82.5 23t81.5 24
q97 28 194 54.5t196 47.5q3 1 5.5 1t5.5 1q48 10 98.5 18t98.5 10q16 0 36 -0.5t40 -3.5t38 -9.5t30 -18.5l2 -2q9 -11 -1 -19q-9 -9 -18 1q-3 2 -6.5 5t-7.5 5q-12 6 -26.5 9.5t-30.5 5t-30.5 1t-26.5 -0.5q-18 -1 -36 -2.5t-37 -4.5q-32 -4 -64 -9.5t-62 -12.5
q-94 -20 -187 -45t-186 -52l-88 -26t-88 -24q-14 -4 -31 -8t-31 -6t-27 2t-24 14q-10 8 -16 21q-8 -8 -16 -16.5t-16 -16.5q-11 -12 -22.5 -24t-22.5 -25l-2 -2l-2 -2q-6 -8 -14 -5q-14 3 -10 16l4 6q1 1 3 3.5t3 3.5q17 19 34.5 37t34.5 36q5 5 9 9.5t9 9.5q-2 19 0.5 41
t8 43t12.5 40t13 33q2 5 7 7t10 0q9 -3 9 -13q0 -1 -0.5 -2t-0.5 -2z" />
    <glyph glyph-name="y_0.001" unicode="&#xe018;" horiz-adv-x="464" 
d="M22 275q-14 -23 -26 -44t-22 -46q-7 -16 -11 -29q-1 -2 -2 -8t1 -8q7 -3 19.5 2t17.5 8q17 9 38 27.5t42.5 39.5t41 41.5t32.5 35.5l57 66l8 8t10 4q9 0 12 -10l-1 -8q0 -2 -2 -7.5t-3 -7.5q-15 -38 -30 -76.5t-31 -76.5q71 26 142.5 45.5t140.5 30.5q53 9 113.5 14
t122.5 5t122 -6.5t112 -22.5q25 -8 51.5 -20t48.5 -29.5t35.5 -41t12.5 -53.5l-1 -3q0 -5 -4 -9t-10 -3q-12 0 -12 14v2q1 25 -11.5 44t-31.5 33t-41.5 24t-42.5 16q-49 15 -105.5 21.5t-115 7t-115.5 -4t-107 -12.5q-77 -12 -158 -33t-160 -53q-5 -14 -11 -27l-12 -26
q-17 -36 -39 -76.5t-48 -78.5t-56.5 -72t-63.5 -56q-23 -17 -50.5 -27.5t-56.5 -12.5q-37 -1 -50.5 21.5t-5.5 55.5q6 24 20 48.5t32.5 47.5t39 43.5t38.5 36.5q52 44 113.5 79.5t129.5 63.5q13 30 25 60.5t23 60.5q-12 -14 -24.5 -28t-25.5 -28q-23 -24 -49 -49.5
t-52 -45.5q-8 -6 -19 -12.5t-23 -11t-24 -6t-22 4.5q-13 8 -14 21.5t4 26.5q2 8 5.5 15t5.5 15q11 26 23.5 48t26.5 46q7 10 18 5q10 -7 5 -19zM124 137q-66 -30 -126 -67t-109 -84q-14 -13 -29.5 -30t-29.5 -35.5t-24.5 -38.5t-14.5 -39t2 -29.5t27 -10.5q18 0 37.5 6.5
t35.5 15.5q35 19 67.5 52.5t60.5 73.5t51 81.5t40 77.5z" />
    <glyph glyph-name="z_0.001" unicode="&#xe019;" horiz-adv-x="414" 
d="M10 309q10 4 39.5 15.5t62.5 25.5t61 27.5t36 21.5q-1 0 -1 -2q14 11 19 8q15 -7 4 -21q-50 -53 -102.5 -101.5t-106.5 -97.5q30 11 64 19.5t59.5 6.5t37.5 -18t-1 -55q-1 -2 -1.5 -4t-1.5 -4q86 26 176.5 42.5t179 24.5t170.5 7t151 -10q12 -2 32 -5t39.5 -9t35.5 -16
t20 -26q0 -13 -13 -15q-5 -1 -9.5 3t-5.5 9q-2 5 -10 8.5t-13 5.5q-45 16 -106 23t-130.5 6t-143.5 -8t-145 -18t-134.5 -25.5t-111.5 -29.5q-19 -30 -50.5 -65t-69 -69.5t-78.5 -66t-79 -55t-71 -35.5t-55 -8q-17 3 -19 14.5t5 28t20.5 35t27 34.5t24.5 27.5t14 14.5
q60 54 140.5 95.5t174.5 71.5q12 20 16 36.5t-5 24.5q-12 10 -32 8t-43 -10t-47.5 -19t-44 -18.5t-32 -8.5t-13.5 11q0 5 8 13h-1l1 1q12 14 36.5 36.5l49 45t45 40.5t25.5 23q3 2 9.5 9t16.5 17q-21 -9 -41.5 -17t-36.5 -14t-26 -10l-10 -4q-5 -2 -10 0.5t-7 7.5
q-5 13 7 18zM118 82q-30 -12 -66 -28t-73 -35.5t-72.5 -42t-64 -47.5t-48.5 -51.5t-26 -53.5q11 -1 31.5 7.5t45 22t51 31t50 34t41.5 30t26 20.5q2 2 13 12.5t26 26.5t32.5 35t33.5 39z" />
    <glyph glyph-name="period" unicode="." horiz-adv-x="65" 
d="M6 134l9 11q4 5 10.5 6.5t11.5 -3.5q5 -3 7 -9.5t-3 -11.5l-7 -8q-3 -5 -9.5 -6.5t-11.5 0.5q-14 9 -7 21z" />
    <glyph glyph-name="comma" unicode="," horiz-adv-x="69" 
d="M6 134l9 11q4 5 10.5 6.5t11.5 -3.5q5 -3 7 -9.5t-3 -11.5l-7 -8q-2 -3 -8 -8.5t-13 -11t-13.5 -9t-9.5 -2.5q-2 1 0.5 5t6 8.5t7 8.5t3.5 6t-1 9t0 9z" />
    <glyph glyph-name="grave" unicode="`" horiz-adv-x="88" 
d="M51 433q0 -1 2.5 -5.5t5.5 -10.5t5 -11t2 -6q-1 -6 -5.5 -5t-11 5t-13.5 9.5t-13 8.5l-7 8q-5 5 -3 11.5t7 9.5q5 5 11.5 3.5t10.5 -6.5z" />
    <glyph glyph-name="acute" unicode="&#xb4;" horiz-adv-x="85" 
d="M46 444q7 5 14 6.5t10 -3.5q4 -3 2.5 -9.5t-8.5 -11.5l-11 -8q-8 -3 -17 -8.5t-17.5 -9.5t-13.5 -5t-3 5q0 1 4.5 6t10 11t10 10.5l5.5 5.5z" />
    <glyph glyph-name="caron" unicode="&#x2c7;" horiz-adv-x="173" 
d="M121 444q7 5 14 6.5t10 -3.5q4 -3 2.5 -9.5t-8.5 -11.5l-11 -8q-8 -3 -17 -8.5t-17.5 -9.5t-13.5 -5t-3 5q0 1 4.5 6t10 11t10 10.5l5.5 5.5zM52 433q0 -1 2.5 -5.5t5.5 -10.5t5 -11t2 -6q-1 -6 -5.5 -5t-11 5t-13.5 9.5t-13 8.5l-7 8q-5 5 -3 11.5t7 9.5q5 5 11.5 3.5
t10.5 -6.5z" />
    <glyph glyph-name="circumflex" unicode="&#x2c6;" horiz-adv-x="173" 
d="M121 444q7 5 14 6.5t10 -3.5q4 -3 2.5 -9.5t-8.5 -11.5l-11 -8q-8 -3 -17 -8.5t-17.5 -9.5t-13.5 -5t-3 5q0 1 4.5 6t10 11t10 10.5l5.5 5.5zM52 433q0 -1 2.5 -5.5t5.5 -10.5t5 -11t2 -6q-1 -6 -5.5 -5t-11 5t-13.5 9.5t-13 8.5l-7 8q-5 5 -3 11.5t7 9.5q5 5 11.5 3.5
t10.5 -6.5z" />
    <glyph glyph-name="quotesingle" unicode="'" horiz-adv-x="79" 
d="M25 440q1 7 6.5 11t11.5 2q7 -1 11 -6t2 -11l-2 -11q-4 -5 -8 -13t-8 -14.5t-7.5 -9.5t-7.5 2q-1 1 -1 6.5v11.5v11.5v6.5z" />
    <glyph glyph-name="quotedbl" unicode="&#x22;" horiz-adv-x="141" 
d="M25 440q1 7 6.5 11t11.5 2q7 -1 11 -6t2 -11l-2 -11q-4 -5 -8 -13t-8 -14.5t-7.5 -9.5t-7.5 2q-1 1 -1 6.5v11.5v11.5v6.5zM86 440q1 7 6.5 11t11.5 2q7 -1 11 -6t2 -11l-2 -11q-4 -5 -8 -13t-8 -14.5t-7.5 -9.5t-7.5 2q-1 1 -1 6.5v11.5v11.5v6.5z" />
    <glyph glyph-name="colon" unicode=":" horiz-adv-x="170" 
d="M6 134l9 11q4 5 10.5 6.5t11.5 -3.5q5 -3 7 -9.5t-3 -11.5l-7 -8q-3 -5 -9.5 -6.5t-11.5 0.5q-14 9 -7 21zM105 274l9 11q4 5 10.5 6.5t11.5 -3.5q5 -3 7 -9.5t-3 -11.5l-7 -8q-3 -5 -9.5 -6.5t-11.5 0.5q-14 9 -7 21z" />
    <glyph glyph-name="semicolon" unicode=";" horiz-adv-x="155" 
d="M105 274l9 11q4 5 10.5 6.5t11.5 -3.5q5 -3 7 -9.5t-3 -11.5l-7 -8q-3 -5 -9.5 -6.5t-11.5 0.5q-14 9 -7 21zM6 134l9 11q4 5 10.5 6.5t11.5 -3.5q5 -3 7 -9.5t-3 -11.5l-7 -8q-2 -3 -8 -8.5t-13 -11t-13.5 -9t-9.5 -2.5q-2 1 0.5 5t6 8.5t7 8.5t3.5 6t-1 9t0 9z" />
    <glyph glyph-name="less" unicode="&#x3c;" horiz-adv-x="206" 
d="M471 739l-411 -255l34 -441q1 -6 -3 -10.5t-10 -6.5q-13 -4 -15 10l-17 225q-5 57 -10 95.5t-8.5 65t-3.5 43t6.5 28.5t21 22.5t40 25.5t63.5 36t92 54l210 131q12 7 18 -4q5 -10 -7 -19z" />
    <glyph glyph-name="question" unicode="?" horiz-adv-x="384" 
d="M106 754q26 27 56 51t64 39t70.5 18t75.5 -13q41 -17 60 -44t22 -60.5t-7 -70.5t-27 -72.5t-38 -67t-40 -54.5q-34 -41 -65 -71.5t-62.5 -57.5t-64 -53.5t-68.5 -60.5q-18 -17 -27 -27.5t-14.5 -21t-10 -23.5t-14.5 -34l-36 -64q-3 -5 -8 -6t-10 3q-11 6 -4 19
q7 12 12 21.5t9 16.5q9 16 12 20.5t2.5 4t-2 -3t-1.5 -1t4 11t15 33.5q13 27 42.5 57.5t65.5 61t71.5 60t60.5 54.5q18 18 44.5 48t53 67t48.5 77.5t30 79t-1.5 71.5t-46.5 55q-34 20 -68.5 19t-67 -15t-62 -37t-52.5 -47q-4 -5 -12 -5q-6 2 -7 3q-11 9 -2 19zM-38 23l4 -6
q3 -5 2 -10.5t-6 -8.5q-10 -7 -19 4l-4 6q-3 5 -2 10.5t6 8.5t10.5 2t8.5 -6z" />
    <glyph glyph-name="braceleft" unicode="{" horiz-adv-x="359" 
d="M520 724q-18 14 -36.5 11t-36.5 -17t-35.5 -36t-33 -45.5t-28.5 -46t-22 -37.5q-17 -27 -39.5 -65t-49.5 -74.5t-58 -65t-66 -37.5q18 -20 23 -37.5t-1.5 -38.5t-22.5 -48t-40 -65q-8 -13 -26 -40t-38 -60.5t-38.5 -69.5t-26.5 -66.5t-1.5 -50.5t35.5 -22q6 0 9.5 -4
t1.5 -9q-2 -14 -16 -14q-37 2 -50.5 20.5t-11 47t18 65t37.5 76t47 80t46.5 76t35.5 64t15 44.5q0 6 -3.5 12t-9.5 12.5t-12.5 12.5t-11.5 12h-1l1 1q-11 11 -9 18t32 6q25 -1 51.5 21t51 52t44.5 61.5t31 49.5q13 21 31 52t38.5 63.5t44 61.5t48.5 47.5t51 21t52 -17.5
q4 -4 3.5 -9.5t-4.5 -10.5q-5 -4 -10.5 -4.5t-9.5 3.5z" />
    <glyph glyph-name="slash" unicode="/" horiz-adv-x="485" 
d="M673 643q-29 -31 -71.5 -74.5t-94 -95t-109.5 -107t-117.5 -111t-118.5 -108.5t-112 -97.5t-98 -78.5t-77 -52q-5 -2 -10 0t-7 7q-5 12 7 18q31 17 75 51t96.5 78t110.5 96.5t117.5 108t117.5 111t109 106.5t93 93.5t70 72.5q4 4 9 4.5t9 -4.5q12 -9 1 -18z" />
    <glyph glyph-name="bar" unicode="|" horiz-adv-x="461" 
d="M589 857q-17 -39 -49 -104t-73.5 -147t-90.5 -175t-99.5 -187t-101 -184.5t-96 -166.5t-82.5 -133t-62 -85q-4 -3 -9 -3t-9 5q-4 4 -4 9t5 10q23 26 59.5 82.5t81 132t94.5 165.5t100.5 184t99.5 187t90 174t73 145.5t49 101.5q2 5 7 7t10 -1q14 -5 7 -17z" />
    <glyph glyph-name="zero" unicode="0" horiz-adv-x="310" 
d="M253 418q-38 -25 -73 -54.5t-64.5 -63.5t-51 -72t-31.5 -80q-5 -21 -4 -39.5t9 -28.5t23.5 -9t39.5 19q19 15 44.5 40t49.5 55t45 63t32 63.5t9 56t-23 41.5q-5 3 -5 9zM277 433q26 -20 30.5 -49t-5.5 -63.5t-31.5 -71.5t-48.5 -70.5t-56 -62.5t-53 -47
q-32 -24 -55.5 -26t-37.5 11t-18 38t3 54q12 49 37.5 93t59.5 82t75.5 71t86.5 61q14 7 18 -5q1 -7 -5 -15z" />
    <glyph glyph-name="eight" unicode="8" horiz-adv-x="369" 
d="M260 342q-8 -4 -18 -10t-22 -14q-1 -17 -0.5 -32.5t1.5 -27.5q22 16 41.5 33.5t35.5 33.5q13 13 24.5 31t16 35t0 30t-22.5 16q-24 4 -40.5 -2t-27 -18.5t-16.5 -30.5t-9 -38q9 5 17 10t14 9q6 2 11 0.5t6 -6.5q3 -12 -11 -19zM193 299q-29 -21 -60.5 -47t-56.5 -53.5
t-38 -54t-6 -47.5q4 -12 17.5 -19t32 -7.5t38.5 6t37 23.5t28 44.5t10 67.5q-22 -13 -44 -20q-14 -4 -14 10q0 12 14 16q20 7 43 21q-1 13 -1.5 28t0.5 32zM195 329q3 28 11 55t23 47t39 29.5t60 2.5q25 -5 34 -22t5.5 -39.5t-17.5 -47.5t-35 -45q-20 -20 -43 -41t-49 -39
q2 -48 -10.5 -83t-33 -57.5t-46.5 -33.5t-50.5 -12.5t-44.5 6.5t-29 24q-16 28 -2 62t44 69t69.5 68t74.5 57z" />
    <glyph glyph-name="nine" unicode="9" horiz-adv-x="317" 
d="M366 440q-39 -3 -79 -16t-75 -35.5t-61 -54t-37 -71.5q-3 -10 -3.5 -19t7.5 -14q18 0 42.5 14t49 33.5t46 41t32.5 36.5q15 20 20.5 31t9 17t8 9t17.5 6q4 -8 3.5 -14.5t-4.5 -14t-10 -17t-14 -22.5q-16 -28 -43 -72.5t-60 -89.5t-68.5 -83.5t-68 -53.5t-59 0t-41.5 76
q-2 5 2 10.5t9 7.5q14 5 17 -7l5 -23q9 -30 24.5 -38.5t35 -1t42 28t46 48t46 60t42.5 64.5q-21 -18 -44 -33q-26 -18 -52.5 -29t-45 -9t-23.5 20t12 59q19 44 49 77t67 55.5t79 35t85 15.5q5 0 8.5 -4t1.5 -9q-5 -14 -18 -14z" />
    <glyph glyph-name="seven" unicode="7" horiz-adv-x="262" 
d="M97 456q7 0 28.5 1.5t50 2.5t59 1.5t56 -2t41 -7.5t13.5 -15q-2 -7 -8 -11.5t-15 -8.5t-19 -8t-18 -10q-24 -16 -53 -40.5t-60 -54.5t-62 -63.5t-58.5 -66.5t-49.5 -63.5t-35 -54.5q-4 -13 -17 -13q-5 0 -8.5 4t-1.5 9q32 62 73.5 111t91.5 101q49 51 91.5 90.5
t98.5 71.5q-21 2 -50 2t-59 -0.5t-56 -1.5t-41 -1q-5 0 -8.5 4t-1.5 10q4 13 18 13z" />
    <glyph glyph-name="six" unicode="6" horiz-adv-x="317" 
d="M304 425q-22 -13 -51 -34.5t-60 -49t-60.5 -58.5t-53 -62t-37.5 -60.5t-13 -53.5q1 -22 12.5 -30.5t29.5 -7t38.5 12.5t39.5 29q46 43 55.5 77.5t-5 48t-47.5 0.5t-72 -65q-3 -5 -9 -7.5t-11 -0.5t-5.5 7.5t3.5 10.5q30 40 58 61t51 26.5t39.5 -2.5t24.5 -24t5.5 -38.5
t-17.5 -46.5q-34 -55 -75.5 -83.5t-76 -31.5t-54 18t-9.5 64q7 29 24 60t41 62t53 61t59.5 56.5t61 48.5t57.5 37q14 5 16 -7q2 -13 -12 -18z" />
    <glyph glyph-name="four" unicode="4" horiz-adv-x="262" 
d="M297 447q-14 -28 -43 -59.5t-64.5 -62t-72.5 -58.5t-67 -50q16 -2 34.5 -3t35.5 -1q19 26 37.5 51.5t37.5 51.5q20 28 28 26t6 -20v-1q-1 -13 -6.5 -31.5t-13 -37.5t-17.5 -35t-20 -23q-5 -3 -16 -4.5t-25 -3.5q-26 -34 -50.5 -67.5t-49.5 -67.5q-4 -5 -9.5 -7t-10.5 0
t-5.5 7.5t3.5 10.5q23 31 45.5 61.5t45.5 61.5q-18 0 -35.5 1.5t-31.5 3.5t-23 5t-9 6q-1 5 15.5 19.5t42.5 34.5t58 44t62 49.5t54.5 51.5t36.5 49q5 13 19 13q5 -1 7.5 -5.5t0.5 -9.5zM151 214q10 2 12 4q5 6 10.5 16.5t10.5 24.5z" />
    <glyph glyph-name="five" unicode="5" horiz-adv-x="317" 
d="M250 440l-20.5 -20.5t-27.5 -29.5q-20 -23 -41.5 -48.5t-35.5 -46.5q5 3 9.5 6t9.5 6q37 21 68.5 17.5t42.5 -29t-5 -72t-74 -110.5q-33 -37 -63 -53t-53.5 -17.5t-39 11t-19 33t7 47.5t38.5 56q9 6 17 3q1 0 3 -2q3 -4 2 -9.5t-6 -9.5q-17 -17 -26 -32.5t-7 -36.5
q3 -33 23 -35.5t46.5 13.5t55.5 45.5t49 60.5t27.5 59.5t-9.5 42.5q-15 13 -33 9.5t-35 -14t-32 -23.5t-24 -19q-5 -4 -10 -4q-11 3 -9.5 15.5t12 31t27 40.5t35 43.5t36 40.5t29.5 32h-2q-5 0 -8.5 4t-1.5 10q4 13 18 13q23 -1 36 -1h20.5t12.5 -0.5t12.5 -0.5t20.5 -0.5
t36 -1.5q5 0 8.5 -4t1.5 -9q-4 -14 -18 -14q-29 1 -42.5 1.5t-21 0.5t-15 0.5t-25.5 0.5z" />
    <glyph glyph-name="two" unicode="2" horiz-adv-x="286" 
d="M205 406q19 13 42.5 26t47 19t43 2t30.5 -25q13 -25 1.5 -51.5t-35 -50.5t-52 -43.5t-49.5 -31.5q-32 -18 -55 -29.5t-41 -21.5t-32.5 -20t-29.5 -24t-32.5 -34t-40.5 -50q11 -2 31.5 -2t43 1t42 2.5t29.5 2.5q13 0 10 -14q-4 -13 -17 -13q-16 -1 -35.5 -2.5t-40 -2.5
t-39 -1t-33.5 2q-19 2 -22.5 12.5t4 24.5t21.5 30.5t29.5 31t30 26.5t20.5 17q14 12 41 27t58 32t63 36.5t57 39.5t39.5 40.5t10.5 41.5q-4 20 -19.5 23t-35 -3t-39 -17t-31.5 -20q-5 -4 -11 -4.5t-9 4.5q-7 9 5 19z" />
    <glyph glyph-name="three" unicode="3" horiz-adv-x="325" 
d="M174 400q34 36 69.5 50t62.5 12t41 -17.5t4.5 -40t-47 -55t-112.5 -61.5q26 -3 43 -13.5t22.5 -28t-3.5 -43.5t-34 -60q-24 -32 -54 -53.5t-58.5 -33.5t-53.5 -13.5t-39 7t-14 27t20 47.5q4 5 9.5 7t10.5 -1q5 -2 5 -7.5t-4 -10.5q-20 -29 -7.5 -38t40.5 -2t63 28.5
t60 54.5q23 30 29.5 50t1.5 32.5t-18.5 18t-30 7t-33.5 0.5t-29 -2l-5 -2v2q-5 -1 -7.5 -1h-3.5q-15 11 11 24l-1 2h5q21 10 55.5 22t68.5 28.5t58.5 37.5t26.5 50q-9 10 -25 11t-35 -5t-38.5 -17.5t-33.5 -26.5q-5 -5 -10.5 -6.5t-9.5 1.5t-4 8.5t4 10.5z" />
    <glyph glyph-name="one" unicode="1" horiz-adv-x="217" 
d="M207 437q64 18 89.5 22t19.5 -11t-39.5 -51t-87.5 -99q-28 -32 -53.5 -62t-50 -60t-49 -61t-49.5 -64q-4 -5 -9.5 -7t-10.5 0t-5.5 7.5t3.5 10.5q17 23 26.5 36t18 24t19 24t30.5 37q23 28 51 59t56.5 63.5t56 64t50.5 59.5q-11 -3 -15.5 -4t-9.5 -2.5t-13.5 -4
t-26.5 -7.5q-13 -3 -15 9q0 13 14 17z" />
    <glyph glyph-name="hyphen" unicode="-" horiz-adv-x="235" 
d="M205 185q-23 -2 -52.5 -2.5t-55.5 0t-44.5 1.5t-19.5 1q-5 1 -8 6t-1 10q3 10 17 10q5 0 20.5 -1t37.5 -1.5t49 -0.5t54 3q5 0 9.5 -3t4.5 -9q3 -14 -11 -14z" />
    <glyph glyph-name="plus" unicode="+" horiz-adv-x="252" 
d="M69 135q7 11 15.5 23t18.5 24q-25 1 -41.5 1.5t-18.5 1.5q-5 1 -8 6t-1 10q3 10 17 10q6 0 25.5 -1.5t46.5 -1.5q20 25 36 42.5t18 18.5q4 4 9 3t9 -6q5 -8 -3 -19q-3 -4 -12.5 -14t-22.5 -25q26 0 55 3q5 0 9.5 -3t4.5 -9q3 -14 -11 -14q-17 -2 -38 -2.5t-42 -0.5
q-11 -14 -22 -29.5t-22 -31.5q-3 -4 -8 -5.5t-10 2.5q-5 2 -6.5 7t2.5 10z" />
    <glyph glyph-name="asterisk" unicode="*" horiz-adv-x="220" 
d="M144 370l-22 -49q13 6 26 13t27 15q5 4 10 4t5 -5q2 -4 -1 -8t-9 -7q-15 -8 -32.5 -17.5t-35.5 -18.5q12 -14 29 -26q6 -8 -4 -15q-5 -5 -10 -6t-7 1l-11 11l-12 12q-11 -20 -18 -33t-8 -15q-7 -11 -17 -7q-7 1 -2 14l10.5 17.5t17.5 31.5q-25 -12 -41.5 -19t-18.5 -8
q-5 -2 -8.5 0t-1.5 7q0 4 4.5 8t10.5 6l50 23q-12 14 -20.5 24.5t-8.5 12.5q-2 3 1.5 8t8.5 7q10 5 16 -1q2 -3 8.5 -12t17.5 -22q6 13 11.5 25.5t11.5 26.5q5 11 16 11q5 2 7.5 -1t-0.5 -8z" />
    <glyph glyph-name="parenleft" unicode="(" horiz-adv-x="453" 
d="M-111 -135q-6 -35 -5 -67.5t9.5 -59t26.5 -46t47 -29.5q6 -3 8.5 -8t1.5 -9.5t-6 -7.5t-12 -1q-63 20 -86 76.5t-13 134.5q7 55 27 114t48 116.5t61.5 112.5t67.5 102q61 85 139.5 167.5t169 150t190.5 113t205 56.5q56 6 98 -15t61 -70q3 -5 1 -10t-6 -8t-9.5 -3t-9.5 5
q-14 44 -50 62t-86 13q-98 -11 -192.5 -53.5t-180 -105t-160.5 -139.5t-134 -156q-35 -46 -68.5 -99.5t-62.5 -109.5t-50 -113.5t-30 -112.5z" />
    <glyph glyph-name="parenright" unicode=")" horiz-adv-x="509" 
d="M568 555q6 35 5 67.5t-9.5 59t-26.5 46t-47 29.5q-6 3 -8.5 8t-1.5 9.5t5.5 7.5t12.5 1q63 -20 86 -76.5t13 -134.5q-7 -56 -27 -114.5t-48 -116.5t-61.5 -112.5t-67.5 -101.5q-62 -85 -140 -167.5t-168.5 -150t-190.5 -113t-205 -56.5q-56 -6 -98 15t-61 70q-3 5 -1 10
t6 8t9.5 2.5t9.5 -4.5q14 -44 50 -62t86 -13q98 10 192.5 53t180 105.5t160.5 139.5t134 156q34 46 68 99.5t63 109.5t50 113.5t30 112.5z" />
    <glyph glyph-name="braceright" unicode="}" horiz-adv-x="353" 
d="M-196 -111q27 -21 55 -5.5t53.5 47.5t47.5 69t36 60q17 27 39 65t49 74.5t58.5 65t66.5 37.5q-18 19 -23 37t1.5 39t22.5 48t40 65q8 12 26 39.5t38 61t38.5 69.5t26.5 66.5t1.5 50.5t-35.5 22q-6 0 -9.5 4t-1.5 9q2 14 16 14q37 -2 50.5 -20.5t11 -47t-18 -65t-37.5 -76
t-47 -80t-46.5 -76t-35.5 -64t-15 -44.5q0 -6 3.5 -12t9.5 -12.5t12.5 -12.5t11.5 -12h1l-1 -1q11 -11 9 -18t-32 -6q-25 1 -51.5 -21t-51 -52t-44.5 -61.5t-31 -49.5q-14 -22 -31.5 -52.5t-38 -63t-44 -61.5t-48.5 -47.5t-51 -21.5t-52 18q-4 4 -3.5 9.5t4.5 10.5
q5 4 10.5 4.5t9.5 -3.5z" />
    <glyph glyph-name="bracketleft" unicode="[" horiz-adv-x="295" 
d="M-36 -169q-10 -1 -22.5 -1t-25 0.5t-23.5 1.5t-18 1q-6 -2 -8 -1l1 -1l-1 1h-1h1h-2h1q-3 0 -7 4t-4 9t5 10q22 35 51 86t62.5 111.5t70.5 129t74.5 138.5t73.5 139t68.5 131t60 115t46.5 91q2 5 7 7t10 -1q3 -1 7 -5h21.5h25t22.5 0.5t14 0.5q5 0 9.5 -3t4.5 -9
q3 -14 -11 -14q-11 -1 -24.5 -1t-26.5 0.5t-24 1t-17 0.5q-28 -53 -67.5 -128t-84.5 -161t-93.5 -177t-94 -175.5t-85.5 -156t-69 -118.5h70q5 0 9.5 -3t4.5 -9q3 -14 -11 -14zM379 772l-1 1z" />
    <glyph glyph-name="bracketright" unicode="]" horiz-adv-x="179" 
d="M233 804q10 1 22.5 1t25 -0.5t23.5 -1.5t18 -1q6 2 8 1l-1 1l1 -1h1h-1h2h-1q3 0 7 -4t4 -9t-5 -10q-22 -35 -51 -86t-62.5 -111.5t-70.5 -129t-74.5 -138.5t-73.5 -139t-68.5 -131t-60 -115t-46.5 -91q-2 -5 -7 -7t-10 1q-3 1 -7 5h-21.5h-25t-22.5 -0.5t-14 -0.5
q-5 0 -9.5 3t-4.5 9q-2 6 1.5 10t9.5 4q11 1 24.5 1t26.5 -0.5t24 -1t17 -0.5q28 52 67.5 127.5t84.5 161.5t93.5 177t94 175.5t85.5 156t69 118.5h-70q-5 0 -9.5 3t-4.5 9q-2 6 1.5 10t9.5 4z" />
    <glyph glyph-name="exclam" unicode="!" horiz-adv-x="345" 
d="M238 867q40 9 79 11t70 -6.5t49.5 -30t17.5 -61.5q-2 -45 -27 -97t-65.5 -108t-90.5 -114t-101 -114.5t-98.5 -110t-81.5 -100.5l-41 -59q-3 -5 -8.5 -7.5t-10.5 -0.5q-11 6 -4 18l42 61q56 76 119 144.5t122.5 135t110.5 133t84 139.5q25 56 20 88.5t-30.5 47.5
t-65.5 15t-84 -9q-12 -4 -18 -0.5t-6.5 9t4.5 11t14 5.5zM-93 25l4 -6q3 -5 2 -10.5t-6 -8.5q-10 -7 -19 4l-4 6q-3 5 -2 10.5t6 8.5t10.5 2t8.5 -6z" />
    <glyph glyph-name="equal" unicode="=" horiz-adv-x="315" 
d="M200 142q-23 -2 -52.5 -2.5t-55.5 0t-44.5 1.5t-19.5 1q-5 1 -8 6t-1 10q3 10 17 10q5 0 20.5 -1t37.5 -1.5t49 -0.5t54 3q5 0 9.5 -3t4.5 -9q3 -14 -11 -14zM280 216q-23 -2 -52.5 -2.5t-55.5 0t-44.5 1.5t-19.5 1q-5 1 -8 6t-1 10q3 10 17 10q5 0 20.5 -1t37.5 -1.5
t49 -0.5t54 3q5 0 9.5 -3t4.5 -9q3 -14 -11 -14z" />
    <glyph glyph-name="multiply" unicode="&#xd7;" horiz-adv-x="367" 
d="M-34 73q-12 -7 -17 7q-2 5 0 9.5t6 7.5q12 6 31.5 19t43.5 31t52 39.5t56 44.5q-13 23 -25 44.5t-21 38.5t-14.5 27.5t-5.5 11.5q-3 12 10 16q9 3 17 -10q1 -3 6.5 -13t13.5 -25t18.5 -34t21.5 -39q29 23 56 45t48 39t34.5 27.5t15.5 12.5q12 8 20 1q4 -4 4.5 -9.5
t-3.5 -9.5q-1 -1 -14.5 -12t-36 -29t-51.5 -41t-60 -48q17 -31 33.5 -58.5t29.5 -44.5q2 -5 2 -10t-5 -8q-11 -9 -18 3q-11 14 -27.5 42t-34.5 60q-30 -23 -59 -45.5t-53.5 -41t-44 -31.5t-29.5 -17z" />
    <glyph glyph-name="underscore" unicode="_" horiz-adv-x="606" 
d="M573 -50q-16 -2 -60.5 -2.5t-102.5 -0.5t-121.5 0.5t-117 1t-88.5 1t-36 0.5q-5 1 -8 6t-1 10q3 10 17 10q3 0 37.5 -0.5t86 -1t112 -1t116.5 -0.5t100.5 0.5t62.5 2.5q5 0 9.5 -3t4.5 -9q3 -14 -11 -14z" />
    <glyph glyph-name="minus" unicode="&#x2212;" horiz-adv-x="245" 
d="M205 185q-23 -2 -52.5 -2.5t-55.5 0t-44.5 1.5t-19.5 1q-5 1 -8 6t-1 10q3 10 17 10q5 0 20.5 -1t37.5 -1.5t49 -0.5t54 3q5 0 9.5 -3t4.5 -9q3 -14 -11 -14z" />
    <glyph glyph-name="endash" unicode="&#x2013;" horiz-adv-x="444" 
d="M400 185q-16 -2 -48.5 -2.5t-73 -0.5t-83.5 0.5t-78.5 1t-59 1t-24.5 0.5q-5 1 -8 6t-1 10q3 10 17 10q3 0 26 -0.5t56.5 -1t73.5 -1t78.5 -0.5t71 0.5t50.5 2.5q5 0 9.5 -3t4.5 -9q3 -14 -11 -14z" />
    <glyph glyph-name="emdash" unicode="&#x2014;" horiz-adv-x="460" 
d="M400 185q-16 -2 -48.5 -2.5t-73 -0.5t-83.5 0.5t-78.5 1t-59 1t-24.5 0.5q-5 1 -8 6t-1 10q3 10 17 10q3 0 26 -0.5t56.5 -1t73.5 -1t78.5 -0.5t71 0.5t50.5 2.5q5 0 9.5 -3t4.5 -9q3 -14 -11 -14z" />
    <glyph glyph-name="asciitilde" unicode="~" horiz-adv-x="450" 
d="M400 185q-18 -25 -45 -33.5t-59.5 -7.5t-68.5 9t-70.5 16t-66.5 13.5t-57 2.5q-5 -1 -8 5t-1 11t6 6t11 4q19 8 46 4.5t58.5 -11t65.5 -16t67.5 -11.5t64 4t54.5 30q5 0 9.5 -3t4.5 -9q3 -14 -11 -14z" />
    <glyph glyph-name="tilde" unicode="&#x2dc;" horiz-adv-x="291" 
d="M238 425q-18 -25 -32.5 -34t-28 -8t-26.5 8t-29 15t-35 13t-44 2q-8 -1 -9 2.5t1.5 8t7.5 9t8 6.5q19 8 33 5t26.5 -10.5t24.5 -15.5t26 -10t32 5t42 30q5 0 9.5 -3t4.5 -9q3 -14 -11 -14z" />
    <glyph glyph-name="greater" unicode="&#x3e;" horiz-adv-x="331" 
d="M208 306l-34 441q-1 6 3 10.5t10 6.5q13 4 15 -10l17 -225q6 -76 13.5 -120t9 -70.5t-6.5 -41.5t-32.5 -30.5t-69 -39.5t-115.5 -68l-210 -131q-12 -7 -18 4q-5 10 7 19z" />
    <glyph glyph-name="plusminus" unicode="&#xb1;" horiz-adv-x="247" 
d="M69 135q7 11 15.5 23t18.5 24q-25 1 -41.5 1.5t-18.5 1.5q-5 1 -8 6t-1 10q3 10 17 10q6 0 25.5 -1.5t46.5 -1.5q20 25 36 42.5t18 18.5q4 4 9 3t9 -6q5 -8 -3 -19q-3 -4 -12.5 -14t-22.5 -25q26 0 55 3q5 0 9.5 -3t4.5 -9q3 -14 -11 -14q-17 -2 -38 -2.5t-42 -0.5
q-11 -14 -22 -29.5t-22 -31.5q-3 -4 -8 -5.5t-10 2.5q-5 2 -6.5 7t2.5 10zM150 53q-23 -2 -52.5 -2.5t-55.5 0t-44.5 1.5t-19.5 1q-5 1 -8 6t-1 10q3 10 17 10q5 0 20.5 -1t37.5 -1.5t49 -0.5t54 3q5 0 9.5 -3t4.5 -9q3 -14 -11 -14z" />
    <glyph glyph-name="hungarumlaut" unicode="&#x2dd;" horiz-adv-x="170" 
d="M46 444q7 5 14 6.5t10 -3.5q4 -3 2.5 -9.5t-8.5 -11.5l-11 -8q-8 -3 -17 -8.5t-17.5 -9.5t-13.5 -5t-3 5q0 1 4.5 6t10 11t10 10.5l5.5 5.5zM131 444q7 5 14 6.5t10 -3.5q4 -3 2.5 -9.5t-8.5 -11.5l-11 -8q-8 -3 -17 -8.5t-17.5 -9.5t-13.5 -5t-3 5q0 1 4.5 6t10 11
t10 10.5l5.5 5.5z" />
    <glyph glyph-name="quoteright" unicode="&#x2019;" horiz-adv-x="155" 
d="M72 415l9 11q4 5 10.5 6.5t11.5 -3.5q5 -3 7 -9.5t-3 -11.5l-7 -8q-2 -3 -8 -8.5t-13 -11t-13.5 -9t-9.5 -2.5q-2 1 0.5 5t6 8.5t7 8.5t3.5 6t-1 9t0 9z" />
    <glyph glyph-name="quotedblright" unicode="&#x201d;" horiz-adv-x="190" 
d="M41 415l9 11q4 5 10.5 6.5t11.5 -3.5q5 -3 7 -9.5t-3 -11.5l-7 -8q-2 -3 -8 -8.5t-13 -11t-13.5 -9t-9.5 -2.5q-2 1 0.5 5t6 8.5t7 8.5t3.5 6t-1 9t0 9zM118 415l9 11q4 5 10.5 6.5t11.5 -3.5q5 -3 7 -9.5t-3 -11.5l-7 -8q-2 -3 -8 -8.5t-13 -11t-13.5 -9t-9.5 -2.5
q-2 1 0.5 5t6 8.5t7 8.5t3.5 6t-1 9t0 9z" />
    <glyph glyph-name="quotedblleft" unicode="&#x201c;" horiz-adv-x="194" 
d="M129 375q-4 -5 -10.5 -6.5t-11.5 3.5q-5 3 -7 9.5t3 11.5l7 8q1 3 7.5 8.5t13.5 11t13.5 9t9.5 2.5q2 -1 -0.5 -5t-6 -8.5t-7 -8.5t-3.5 -6t1 -9t0 -9zM52 375q-4 -5 -10.5 -6.5t-11.5 3.5q-5 3 -7 9.5t3 11.5l7 8q1 3 7.5 8.5t13.5 11t13.5 9t9.5 2.5q2 -1 -0.5 -5
t-6 -8.5t-7 -8.5t-3.5 -6t1 -9t0 -9z" />
    <glyph glyph-name="quoteleft" unicode="&#x2018;" horiz-adv-x="150" 
d="M83 375q-4 -5 -10.5 -6.5t-11.5 3.5q-5 3 -7 9.5t3 11.5l7 8q1 3 7.5 8.5t13.5 11t13.5 9t9.5 2.5q2 -1 -0.5 -5t-6 -8.5t-7 -8.5t-3.5 -6t1 -9t0 -9z" />
    <glyph glyph-name="dieresis" unicode="&#xa8;" horiz-adv-x="212" 
d="M38 415l9 11q4 5 10.5 6.5t11.5 -3.5q5 -3 7 -9.5t-3 -11.5l-7 -8q-3 -5 -9.5 -6.5t-11.5 0.5q-14 9 -7 21zM140 415l9 11q4 5 10.5 6.5t11.5 -3.5q5 -3 7 -9.5t-3 -11.5l-7 -8q-3 -5 -9.5 -6.5t-11.5 0.5q-14 9 -7 21z" />
    <glyph glyph-name="ellipsis" unicode="&#x2026;" horiz-adv-x="195" 
d="M6 134l9 11q4 5 10.5 6.5t11.5 -3.5q5 -3 7 -9.5t-3 -11.5l-7 -8q-3 -5 -9.5 -6.5t-11.5 0.5q-14 9 -7 21zM71 134l9 11q4 5 10.5 6.5t11.5 -3.5q5 -3 7 -9.5t-3 -11.5l-7 -8q-3 -5 -9.5 -6.5t-11.5 0.5q-14 9 -7 21zM136 134l9 11q4 5 10.5 6.5t11.5 -3.5q5 -3 7 -9.5
t-3 -11.5l-7 -8q-3 -5 -9.5 -6.5t-11.5 0.5q-14 9 -7 21z" />
    <glyph glyph-name="quotesinglbase" unicode="&#x201a;" horiz-adv-x="79" 
d="M6 134l9 11q4 5 10.5 6.5t11.5 -3.5q5 -3 7 -9.5t-3 -11.5l-7 -8q-2 -3 -8 -8.5t-13 -11t-13.5 -9t-9.5 -2.5q-2 1 0.5 5t6 8.5t7 8.5t3.5 6t-1 9t0 9z" />
    <glyph glyph-name="quotedblbase" unicode="&#x201e;" horiz-adv-x="150" 
d="M6 134l9 11q4 5 10.5 6.5t11.5 -3.5q5 -3 7 -9.5t-3 -11.5l-7 -8q-2 -3 -8 -8.5t-13 -11t-13.5 -9t-9.5 -2.5q-2 1 0.5 5t6 8.5t7 8.5t3.5 6t-1 9t0 9zM79 134l9 11q4 5 10.5 6.5t11.5 -3.5q5 -3 7 -9.5t-3 -11.5l-7 -8q-2 -3 -8 -8.5t-13 -11t-13.5 -9t-9.5 -2.5
q-2 1 0.5 5t6 8.5t7 8.5t3.5 6t-1 9t0 9z" />
    <glyph glyph-name="divide" unicode="&#xf7;" horiz-adv-x="170" 
d="M6 134l9 11q4 5 10.5 6.5t11.5 -3.5q5 -3 7 -9.5t-3 -11.5l-7 -8q-3 -5 -9.5 -6.5t-11.5 0.5q-14 9 -7 21zM105 274l9 11q4 5 10.5 6.5t11.5 -3.5q5 -3 7 -9.5t-3 -11.5l-7 -8q-3 -5 -9.5 -6.5t-11.5 0.5q-14 9 -7 21zM170 185q-23 -2 -52.5 -2.5t-55.5 0t-44.5 1.5
t-19.5 1q-5 1 -8 6t-1 10q3 10 17 10q5 0 20.5 -1t37.5 -1.5t49 -0.5t54 3q5 0 9.5 -3t4.5 -9q3 -14 -11 -14z" />
    <glyph glyph-name="paragraph" unicode="&#xb6;" 
d="M716 857q-12 -27 -31 -66.5t-44 -88.5q26 0 46.5 0.5t34.5 2.5q5 0 9.5 -3t4.5 -9q3 -14 -11 -14q-14 -2 -39.5 -2.5t-57.5 -0.5q-40 -80 -90 -177t-104.5 -198.5t-109.5 -200.5t-104.5 -183.5t-90.5 -148t-67 -93.5q-4 -3 -9 -3t-9 5q-4 4 -4 9t5 10q24 28 63.5 89
t87.5 143.5t101.5 179.5t107 196.5t103 195.5t90.5 176h-96q-40 -80 -90.5 -177t-104.5 -198.5t-109.5 -200.5t-105 -183.5t-90.5 -148t-67 -93.5q-4 -3 -9 -3t-9 5q-4 4 -4 9t5 10q24 28 57 76.5t70.5 111t79.5 137t85.5 154.5t86.5 163t83 163q-37 -6 -60 8.5t-31.5 39.5
t-1.5 55t30.5 54.5t65 38t101.5 5.5q27 54 47.5 96t33.5 70q2 5 7 7t10 -1q14 -5 7 -17q-12 -27 -31 -66t-43 -89h96q26 54 47 96t34 70q2 5 7 7t10 -1q14 -5 7 -17z" />
    <glyph glyph-name="numbersign" unicode="#" horiz-adv-x="518" 
d="M731 643q-31 -33 -76.5 -80t-102.5 -103q20 1 36 1t27 2q5 0 9.5 -3t4.5 -9q3 -14 -11 -14q-12 -2 -36 -2.5t-56 -0.5q-63 -61 -130.5 -125.5t-136.5 -126.5q21 0 38 0.5t28 2.5q5 0 9.5 -3t4.5 -9q3 -14 -11 -14q-13 -2 -38.5 -2.5t-59.5 -0.5q-91 -81 -169 -144.5
t-128 -92.5q-5 -2 -10 0t-7 7q-5 12 7 18q45 26 114.5 82t151.5 130h-85.5t-81.5 1q-91 -82 -169.5 -145.5t-128.5 -92.5q-5 -2 -10 0t-7 7q-5 12 7 18q45 26 115 82.5t153 130.5q-29 1 -46.5 1t-18.5 1q-5 1 -8 6t-1 10q3 10 17 10q4 0 27.5 -0.5t58.5 -1.5
q67 61 135.5 125.5t132.5 126.5q-32 1 -51.5 1t-20.5 1q-5 1 -8 6t-1 10q3 10 17 10q3 0 28 -0.5t62 -1.5q63 61 114.5 113t83.5 87q4 4 9 4.5t9 -4.5q12 -9 1 -18q-31 -33 -76.5 -80t-101.5 -102q41 -1 85 -1.5t84 0.5q63 61 114.5 113.5t84.5 87.5q4 4 9 4.5t9 -4.5
q12 -9 1 -18zM51 183q41 -1 84 -1.5t83 0.5q68 60 136.5 124.5t131.5 127.5h-85.5t-82.5 1q-63 -61 -131 -125.5t-136 -126.5z" />
    <glyph glyph-name="dotlessi" unicode="&#x131;" horiz-adv-x="304" 
d="M-40 271q-11 -2 -12.5 6.5t7.5 13.5q4 1 13.5 2.5t19.5 1.5t19 -1t12 -5q3 -3 3 -7q0 -8 -6 -12q-33 -51 -30.5 -71.5t27 -21.5t65 13t83 34t81 41t59.5 33q5 3 10.5 1t7.5 -7t0.5 -10.5t-6.5 -7.5q-18 -11 -52 -28.5t-71.5 -34.5t-72 -32t-54.5 -22q-42 -15 -67 -11
t-34 20.5t-3 44t27 59.5q-7 1 -12.5 2t-13.5 -1z" />
    <glyph glyph-name="percent" unicode="%" horiz-adv-x="488" 
d="M643 643q-29 -31 -71.5 -74.5t-94 -95t-109.5 -107t-117.5 -111t-118.5 -108.5t-112 -97.5t-98 -78.5t-77 -52q-5 -2 -10 0t-7 7q-5 12 7 18q31 17 75 51t96.5 78t110.5 96.5t117.5 108t117.5 111t109 106.5t93 93.5t70 72.5q4 4 9 4.5t9 -4.5q12 -9 1 -18zM276 603
q-38 -25 -73 -54.5t-64.5 -63.5t-51 -72t-31.5 -80q-5 -21 -4 -39.5t9 -28.5t23.5 -9t39.5 19q19 15 44.5 40t49.5 55t45 63t32 63.5t9 56t-23 41.5q-5 3 -5 9zM300 618q26 -20 30.5 -49t-5.5 -63.5t-31.5 -71.5t-48.5 -70.5t-56 -62.5t-53 -47q-32 -24 -55.5 -26t-37.5 11
t-18 38t3 54q12 49 37.5 93t59.5 82t75.5 71t86.5 61q14 7 18 -5q1 -7 -5 -15zM388 272q-38 -25 -73 -54.5t-64.5 -63.5t-51 -72t-31.5 -80q-5 -21 -4 -39.5t9 -28.5t23.5 -9t39.5 19q19 15 44.5 40t49.5 55t45 63t32 63.5t9 56t-23 41.5q-5 3 -5 9zM412 287
q26 -20 30.5 -49t-5.5 -63.5t-31.5 -71.5t-48.5 -70.5t-56 -62.5t-53 -47q-32 -24 -55.5 -26t-37.5 11t-18 38t3 54q12 49 37.5 93t59.5 82t75.5 71t86.5 61q14 7 18 -5q1 -7 -5 -15z" />
    <glyph glyph-name="s_0" unicode="&#xe01b;" horiz-adv-x="344" 
d="M38 226q42 12 82 21q114 25 241 33t256 0.5t254 -30.5t235 -60q59 -20 117.5 -46t109.5 -61q11 -9 4 -19q-3 -5 -8.5 -6t-10.5 2q-49 34 -105 59t-113 45q-108 37 -232 60t-252 30.5t-254.5 -1t-238.5 -33.5q-22 -5 -43 -10t-41 -12q-1 -20 -2 -39t-3 -35
q-6 -46 -19.5 -91.5t-35 -87t-51.5 -77.5t-69 -63q-38 -26 -86 -38t-93 6q-44 18 -60.5 56.5t-5.5 83.5q9 36 32.5 69.5t54 62t64.5 52t65 41.5q44 26 89 45.5t93 34.5q-1 16 -3 31t-4 28q-4 20 -3.5 36.5t13.5 30.5q14 16 28 15t20 -12.5t0 -29t-32 -33.5q3 -14 4.5 -28.5
t2.5 -29.5zM12 190q-89 -29 -169 -75q-28 -16 -59 -37.5t-59.5 -47.5t-51 -55.5t-31.5 -61.5q-11 -36 0 -68t48 -47q38 -15 80 -4t74 33q39 26 68 62.5t49.5 78.5t32 88t15.5 91q2 9 2 20t1 23z" />
    <glyph glyph-name="Agrave" unicode="&#xc0;" horiz-adv-x="1729" 
d="M1749 275q-95 4 -190.5 1.5t-192.5 -10.5q-29 -51 -54 -104t-43 -106q-10 -28 -18 -59t-12.5 -62.5t-3 -63t11.5 -59.5q2 -5 -0.5 -10t-7.5 -7q-12 -3 -17 8q-11 33 -12.5 68t3.5 71t14.5 70.5t21.5 65.5q17 48 38.5 94t46.5 92q-23 -2 -45 -4t-45 -4q-65 -7 -130 -15
t-130 -18q-77 -52 -155.5 -98t-159.5 -86q-76 -37 -153.5 -71t-156.5 -63q-15 -5 -44 -15.5t-65.5 -21t-76 -19.5t-74 -12t-60 2t-34.5 23q-10 19 5.5 41.5t40.5 43t52.5 36.5t41.5 24q75 42 159.5 74.5t166.5 57.5q66 21 132 37t134 30q59 12 118 22.5t119 20.5
q121 81 234 171.5t222 184.5q92 80 180 161.5t177 163.5l32 30l32 30q5 5 11 9t13 0q13 -7 6 -19q-3 -6 -12 -17.5t-14 -16.5q-32 -40 -64 -79t-64 -79q-79 -100 -155 -203t-143 -212q-24 -37 -47 -79q92 7 184 9t184 -1q6 0 9.5 -4.5t3.5 -9.5q0 -13 -14 -13zM920 213
q-45 -7 -88 -15t-88 -17q-68 -14 -133.5 -30.5t-131.5 -36.5q-80 -25 -162 -56.5t-155 -71.5q-14 -7 -33.5 -18.5t-39 -25t-35.5 -28t-23 -28.5q-2 -4 -3 -8t3 -8q6 -5 18 -6.5t25.5 -1.5t26.5 1.5t21 2.5q45 7 90.5 20t88.5 27q85 29 169 65t165 75q51 24 99 49.5t96 54.5
q23 14 45 28t45 28zM1350 292q16 29 32.5 56.5t33.5 53.5q72 114 152 222.5t165 214.5q5 5 9.5 11t9.5 12q-108 -100 -215.5 -197.5t-220.5 -191.5q-68 -56 -138.5 -110t-144.5 -106q52 8 103 14t103 11q28 3 55.5 5.5t55.5 4.5zM1825 1079q0 -1 2.5 -5.5t5.5 -10.5t5 -11
t2 -6q-1 -6 -5.5 -5t-11 5t-13.5 9.5t-13 8.5l-7 8q-5 5 -3 11.5t7 9.5q5 5 11.5 3.5t10.5 -6.5z" />
    <glyph glyph-name="Aacute" unicode="&#xc1;" horiz-adv-x="1729" 
d="M1749 275q-95 4 -190.5 1.5t-192.5 -10.5q-29 -51 -54 -104t-43 -106q-10 -28 -18 -59t-12.5 -62.5t-3 -63t11.5 -59.5q2 -5 -0.5 -10t-7.5 -7q-12 -3 -17 8q-11 33 -12.5 68t3.5 71t14.5 70.5t21.5 65.5q17 48 38.5 94t46.5 92q-23 -2 -45 -4t-45 -4q-65 -7 -130 -15
t-130 -18q-77 -52 -155.5 -98t-159.5 -86q-76 -37 -153.5 -71t-156.5 -63q-15 -5 -44 -15.5t-65.5 -21t-76 -19.5t-74 -12t-60 2t-34.5 23q-10 19 5.5 41.5t40.5 43t52.5 36.5t41.5 24q75 42 159.5 74.5t166.5 57.5q66 21 132 37t134 30q59 12 118 22.5t119 20.5
q121 81 234 171.5t222 184.5q92 80 180 161.5t177 163.5l32 30l32 30q5 5 11 9t13 0q13 -7 6 -19q-3 -6 -12 -17.5t-14 -16.5q-32 -40 -64 -79t-64 -79q-79 -100 -155 -203t-143 -212q-24 -37 -47 -79q92 7 184 9t184 -1q6 0 9.5 -4.5t3.5 -9.5q0 -13 -14 -13zM920 213
q-45 -7 -88 -15t-88 -17q-68 -14 -133.5 -30.5t-131.5 -36.5q-80 -25 -162 -56.5t-155 -71.5q-14 -7 -33.5 -18.5t-39 -25t-35.5 -28t-23 -28.5q-2 -4 -3 -8t3 -8q6 -5 18 -6.5t25.5 -1.5t26.5 1.5t21 2.5q45 7 90.5 20t88.5 27q85 29 169 65t165 75q51 24 99 49.5t96 54.5
q23 14 45 28t45 28zM1350 292q16 29 32.5 56.5t33.5 53.5q72 114 152 222.5t165 214.5q5 5 9.5 11t9.5 12q-108 -100 -215.5 -197.5t-220.5 -191.5q-68 -56 -138.5 -110t-144.5 -106q52 8 103 14t103 11q28 3 55.5 5.5t55.5 4.5zM1887 1087q7 5 14 6.5t10 -3.5
q4 -3 2.5 -9.5t-8.5 -11.5l-11 -8q-8 -3 -17 -8.5t-17.5 -9.5t-13.5 -5t-3 5q0 1 4.5 6t10 11t10 10.5l5.5 5.5z" />
    <glyph glyph-name="Acircumflex" unicode="&#xc2;" horiz-adv-x="1729" 
d="M1749 275q-95 4 -190.5 1.5t-192.5 -10.5q-29 -51 -54 -104t-43 -106q-10 -28 -18 -59t-12.5 -62.5t-3 -63t11.5 -59.5q2 -5 -0.5 -10t-7.5 -7q-12 -3 -17 8q-11 33 -12.5 68t3.5 71t14.5 70.5t21.5 65.5q17 48 38.5 94t46.5 92q-23 -2 -45 -4t-45 -4q-65 -7 -130 -15
t-130 -18q-77 -52 -155.5 -98t-159.5 -86q-76 -37 -153.5 -71t-156.5 -63q-15 -5 -44 -15.5t-65.5 -21t-76 -19.5t-74 -12t-60 2t-34.5 23q-10 19 5.5 41.5t40.5 43t52.5 36.5t41.5 24q75 42 159.5 74.5t166.5 57.5q66 21 132 37t134 30q59 12 118 22.5t119 20.5
q121 81 234 171.5t222 184.5q92 80 180 161.5t177 163.5l32 30l32 30q5 5 11 9t13 0q13 -7 6 -19q-3 -6 -12 -17.5t-14 -16.5q-32 -40 -64 -79t-64 -79q-79 -100 -155 -203t-143 -212q-24 -37 -47 -79q92 7 184 9t184 -1q6 0 9.5 -4.5t3.5 -9.5q0 -13 -14 -13zM920 213
q-45 -7 -88 -15t-88 -17q-68 -14 -133.5 -30.5t-131.5 -36.5q-80 -25 -162 -56.5t-155 -71.5q-14 -7 -33.5 -18.5t-39 -25t-35.5 -28t-23 -28.5q-2 -4 -3 -8t3 -8q6 -5 18 -6.5t25.5 -1.5t26.5 1.5t21 2.5q45 7 90.5 20t88.5 27q85 29 169 65t165 75q51 24 99 49.5t96 54.5
q23 14 45 28t45 28zM1350 292q16 29 32.5 56.5t33.5 53.5q72 114 152 222.5t165 214.5q5 5 9.5 11t9.5 12q-108 -100 -215.5 -197.5t-220.5 -191.5q-68 -56 -138.5 -110t-144.5 -106q52 8 103 14t103 11q28 3 55.5 5.5t55.5 4.5zM1918 1089q7 5 14 6.5t10 -3.5
q4 -3 2.5 -9.5t-8.5 -11.5l-11 -8q-8 -3 -17 -8.5t-17.5 -9.5t-13.5 -5t-3 5q0 1 4.5 6t10 11t10 10.5l5.5 5.5zM1849 1078q0 -1 2.5 -5.5t5.5 -10.5t5 -11t2 -6q-1 -6 -5.5 -5t-11 5t-13.5 9.5t-13 8.5l-7 8q-5 5 -3 11.5t7 9.5q5 5 11.5 3.5t10.5 -6.5z" />
    <glyph glyph-name="Atilde" unicode="&#xc3;" horiz-adv-x="1729" 
d="M1749 275q-95 4 -190.5 1.5t-192.5 -10.5q-29 -51 -54 -104t-43 -106q-10 -28 -18 -59t-12.5 -62.5t-3 -63t11.5 -59.5q2 -5 -0.5 -10t-7.5 -7q-12 -3 -17 8q-11 33 -12.5 68t3.5 71t14.5 70.5t21.5 65.5q17 48 38.5 94t46.5 92q-23 -2 -45 -4t-45 -4q-65 -7 -130 -15
t-130 -18q-77 -52 -155.5 -98t-159.5 -86q-76 -37 -153.5 -71t-156.5 -63q-15 -5 -44 -15.5t-65.5 -21t-76 -19.5t-74 -12t-60 2t-34.5 23q-10 19 5.5 41.5t40.5 43t52.5 36.5t41.5 24q75 42 159.5 74.5t166.5 57.5q66 21 132 37t134 30q59 12 118 22.5t119 20.5
q121 81 234 171.5t222 184.5q92 80 180 161.5t177 163.5l32 30l32 30q5 5 11 9t13 0q13 -7 6 -19q-3 -6 -12 -17.5t-14 -16.5q-32 -40 -64 -79t-64 -79q-79 -100 -155 -203t-143 -212q-24 -37 -47 -79q92 7 184 9t184 -1q6 0 9.5 -4.5t3.5 -9.5q0 -13 -14 -13zM920 213
q-45 -7 -88 -15t-88 -17q-68 -14 -133.5 -30.5t-131.5 -36.5q-80 -25 -162 -56.5t-155 -71.5q-14 -7 -33.5 -18.5t-39 -25t-35.5 -28t-23 -28.5q-2 -4 -3 -8t3 -8q6 -5 18 -6.5t25.5 -1.5t26.5 1.5t21 2.5q45 7 90.5 20t88.5 27q85 29 169 65t165 75q51 24 99 49.5t96 54.5
q23 14 45 28t45 28zM1350 292q16 29 32.5 56.5t33.5 53.5q72 114 152 222.5t165 214.5q5 5 9.5 11t9.5 12q-108 -100 -215.5 -197.5t-220.5 -191.5q-68 -56 -138.5 -110t-144.5 -106q52 8 103 14t103 11q28 3 55.5 5.5t55.5 4.5zM1965 1066q-18 -25 -32.5 -34t-28 -8
t-26.5 8t-29 15t-35 13t-44 2q-8 -1 -9 2.5t1.5 8t7.5 9t8 6.5q19 8 33 5t26.5 -10.5t24.5 -15.5t26 -10t32 5t42 30q5 0 9.5 -3t4.5 -9q3 -14 -11 -14z" />
    <glyph glyph-name="Adieresis" unicode="&#xc4;" horiz-adv-x="1729" 
d="M1749 275q-95 4 -190.5 1.5t-192.5 -10.5q-29 -51 -54 -104t-43 -106q-10 -28 -18 -59t-12.5 -62.5t-3 -63t11.5 -59.5q2 -5 -0.5 -10t-7.5 -7q-12 -3 -17 8q-11 33 -12.5 68t3.5 71t14.5 70.5t21.5 65.5q17 48 38.5 94t46.5 92q-23 -2 -45 -4t-45 -4q-65 -7 -130 -15
t-130 -18q-77 -52 -155.5 -98t-159.5 -86q-76 -37 -153.5 -71t-156.5 -63q-15 -5 -44 -15.5t-65.5 -21t-76 -19.5t-74 -12t-60 2t-34.5 23q-10 19 5.5 41.5t40.5 43t52.5 36.5t41.5 24q75 42 159.5 74.5t166.5 57.5q66 21 132 37t134 30q59 12 118 22.5t119 20.5
q121 81 234 171.5t222 184.5q92 80 180 161.5t177 163.5l32 30l32 30q5 5 11 9t13 0q13 -7 6 -19q-3 -6 -12 -17.5t-14 -16.5q-32 -40 -64 -79t-64 -79q-79 -100 -155 -203t-143 -212q-24 -37 -47 -79q92 7 184 9t184 -1q6 0 9.5 -4.5t3.5 -9.5q0 -13 -14 -13zM920 213
q-45 -7 -88 -15t-88 -17q-68 -14 -133.5 -30.5t-131.5 -36.5q-80 -25 -162 -56.5t-155 -71.5q-14 -7 -33.5 -18.5t-39 -25t-35.5 -28t-23 -28.5q-2 -4 -3 -8t3 -8q6 -5 18 -6.5t25.5 -1.5t26.5 1.5t21 2.5q45 7 90.5 20t88.5 27q85 29 169 65t165 75q51 24 99 49.5t96 54.5
q23 14 45 28t45 28zM1350 292q16 29 32.5 56.5t33.5 53.5q72 114 152 222.5t165 214.5q5 5 9.5 11t9.5 12q-108 -100 -215.5 -197.5t-220.5 -191.5q-68 -56 -138.5 -110t-144.5 -106q52 8 103 14t103 11q28 3 55.5 5.5t55.5 4.5zM1814 1071l9 11q4 5 10.5 6.5t11.5 -3.5
q5 -3 7 -9.5t-3 -11.5l-7 -8q-3 -5 -9.5 -6.5t-11.5 0.5q-14 9 -7 21zM1916 1071l9 11q4 5 10.5 6.5t11.5 -3.5q5 -3 7 -9.5t-3 -11.5l-7 -8q-3 -5 -9.5 -6.5t-11.5 0.5q-14 9 -7 21z" />
    <glyph glyph-name="Egrave" unicode="&#xc8;" horiz-adv-x="1189" 
d="M711 419q37 20 75.5 45.5t73.5 55.5t66 64t53 71q10 18 19.5 39.5t12.5 44t-2 43.5t-24 38q-35 31 -77 38.5t-84.5 -0.5t-83.5 -27.5t-74 -42.5t-67 -53t-64 -64.5t-53.5 -73t-36.5 -77.5q-25 -75 1.5 -122.5t104.5 -62.5q5 -1 10.5 -2t8.5 -5q9 -10 -2 -19
q-4 -3 -10 -2.5t-11 0.5q-55 4 -110.5 -1t-108 -20.5t-100.5 -42t-88 -66.5q-24 -24 -44 -53t-34.5 -60.5t-21.5 -66t-4 -68.5q5 -71 47.5 -113t111.5 -48q37 -3 77 1t76 12q100 22 202 72t200.5 114t190.5 134t172 132q21 17 42 32.5t42 31.5q5 4 10 3t9 -5q3 -5 2.5 -10.5
t-5.5 -8.5q-21 -16 -42 -31.5t-41 -32.5q-83 -64 -178 -136t-196 -137t-206.5 -115.5t-208.5 -71.5q-35 -7 -75 -10t-75 0q-84 8 -132.5 61.5t-50.5 138.5q0 39 9.5 77t27.5 72.5t42.5 65.5t53.5 57q70 61 156 89.5t177 31.5q-40 23 -57 63t-6 97q8 40 28 79.5t46.5 76
t58 68.5t61.5 57q33 27 73 52t84.5 41t90 20t88.5 -12q19 -7 37.5 -19t32.5 -27q18 -20 24 -44t3 -48.5t-12.5 -48.5t-21.5 -45q-23 -39 -55 -75t-69 -67.5t-77 -59t-79 -48.5q-11 -6 -18 5q-3 5 -1.5 10.5t6.5 8.5zM726 967q0 -1 2.5 -5.5t5.5 -10.5t5 -11t2 -6
q-1 -6 -5.5 -5t-11 5t-13.5 9.5t-13 8.5l-7 8q-5 5 -3 11.5t7 9.5q5 5 11.5 3.5t10.5 -6.5z" />
    <glyph glyph-name="Eacute" unicode="&#xc9;" horiz-adv-x="1189" 
d="M711 419q37 20 75.5 45.5t73.5 55.5t66 64t53 71q10 18 19.5 39.5t12.5 44t-2 43.5t-24 38q-35 31 -77 38.5t-84.5 -0.5t-83.5 -27.5t-74 -42.5t-67 -53t-64 -64.5t-53.5 -73t-36.5 -77.5q-25 -75 1.5 -122.5t104.5 -62.5q5 -1 10.5 -2t8.5 -5q9 -10 -2 -19
q-4 -3 -10 -2.5t-11 0.5q-55 4 -110.5 -1t-108 -20.5t-100.5 -42t-88 -66.5q-24 -24 -44 -53t-34.5 -60.5t-21.5 -66t-4 -68.5q5 -71 47.5 -113t111.5 -48q37 -3 77 1t76 12q100 22 202 72t200.5 114t190.5 134t172 132q21 17 42 32.5t42 31.5q5 4 10 3t9 -5q3 -5 2.5 -10.5
t-5.5 -8.5q-21 -16 -42 -31.5t-41 -32.5q-83 -64 -178 -136t-196 -137t-206.5 -115.5t-208.5 -71.5q-35 -7 -75 -10t-75 0q-84 8 -132.5 61.5t-50.5 138.5q0 39 9.5 77t27.5 72.5t42.5 65.5t53.5 57q70 61 156 89.5t177 31.5q-40 23 -57 63t-6 97q8 40 28 79.5t46.5 76
t58 68.5t61.5 57q33 27 73 52t84.5 41t90 20t88.5 -12q19 -7 37.5 -19t32.5 -27q18 -20 24 -44t3 -48.5t-12.5 -48.5t-21.5 -45q-23 -39 -55 -75t-69 -67.5t-77 -59t-79 -48.5q-11 -6 -18 5q-3 5 -1.5 10.5t6.5 8.5zM773 957q7 5 14 6.5t10 -3.5q4 -3 2.5 -9.5t-8.5 -11.5
l-11 -8q-8 -3 -17 -8.5t-17.5 -9.5t-13.5 -5t-3 5q0 1 4.5 6t10 11t10 10.5l5.5 5.5z" />
    <glyph glyph-name="Ecircumflex" unicode="&#xca;" horiz-adv-x="1189" 
d="M711 419q37 20 75.5 45.5t73.5 55.5t66 64t53 71q10 18 19.5 39.5t12.5 44t-2 43.5t-24 38q-35 31 -77 38.5t-84.5 -0.5t-83.5 -27.5t-74 -42.5t-67 -53t-64 -64.5t-53.5 -73t-36.5 -77.5q-25 -75 1.5 -122.5t104.5 -62.5q5 -1 10.5 -2t8.5 -5q9 -10 -2 -19
q-4 -3 -10 -2.5t-11 0.5q-55 4 -110.5 -1t-108 -20.5t-100.5 -42t-88 -66.5q-24 -24 -44 -53t-34.5 -60.5t-21.5 -66t-4 -68.5q5 -71 47.5 -113t111.5 -48q37 -3 77 1t76 12q100 22 202 72t200.5 114t190.5 134t172 132q21 17 42 32.5t42 31.5q5 4 10 3t9 -5q3 -5 2.5 -10.5
t-5.5 -8.5q-21 -16 -42 -31.5t-41 -32.5q-83 -64 -178 -136t-196 -137t-206.5 -115.5t-208.5 -71.5q-35 -7 -75 -10t-75 0q-84 8 -132.5 61.5t-50.5 138.5q0 39 9.5 77t27.5 72.5t42.5 65.5t53.5 57q70 61 156 89.5t177 31.5q-40 23 -57 63t-6 97q8 40 28 79.5t46.5 76
t58 68.5t61.5 57q33 27 73 52t84.5 41t90 20t88.5 -12q19 -7 37.5 -19t32.5 -27q18 -20 24 -44t3 -48.5t-12.5 -48.5t-21.5 -45q-23 -39 -55 -75t-69 -67.5t-77 -59t-79 -48.5q-11 -6 -18 5q-3 5 -1.5 10.5t6.5 8.5zM878 962q7 5 14 6.5t10 -3.5q4 -3 2.5 -9.5t-8.5 -11.5
l-11 -8q-8 -3 -17 -8.5t-17.5 -9.5t-13.5 -5t-3 5q0 1 4.5 6t10 11t10 10.5l5.5 5.5zM809 951q0 -1 2.5 -5.5t5.5 -10.5t5 -11t2 -6q-1 -6 -5.5 -5t-11 5t-13.5 9.5t-13 8.5l-7 8q-5 5 -3 11.5t7 9.5q5 5 11.5 3.5t10.5 -6.5z" />
    <glyph glyph-name="Edieresis" unicode="&#xcb;" horiz-adv-x="1189" 
d="M711 419q37 20 75.5 45.5t73.5 55.5t66 64t53 71q10 18 19.5 39.5t12.5 44t-2 43.5t-24 38q-35 31 -77 38.5t-84.5 -0.5t-83.5 -27.5t-74 -42.5t-67 -53t-64 -64.5t-53.5 -73t-36.5 -77.5q-25 -75 1.5 -122.5t104.5 -62.5q5 -1 10.5 -2t8.5 -5q9 -10 -2 -19
q-4 -3 -10 -2.5t-11 0.5q-55 4 -110.5 -1t-108 -20.5t-100.5 -42t-88 -66.5q-24 -24 -44 -53t-34.5 -60.5t-21.5 -66t-4 -68.5q5 -71 47.5 -113t111.5 -48q37 -3 77 1t76 12q100 22 202 72t200.5 114t190.5 134t172 132q21 17 42 32.5t42 31.5q5 4 10 3t9 -5q3 -5 2.5 -10.5
t-5.5 -8.5q-21 -16 -42 -31.5t-41 -32.5q-83 -64 -178 -136t-196 -137t-206.5 -115.5t-208.5 -71.5q-35 -7 -75 -10t-75 0q-84 8 -132.5 61.5t-50.5 138.5q0 39 9.5 77t27.5 72.5t42.5 65.5t53.5 57q70 61 156 89.5t177 31.5q-40 23 -57 63t-6 97q8 40 28 79.5t46.5 76
t58 68.5t61.5 57q33 27 73 52t84.5 41t90 20t88.5 -12q19 -7 37.5 -19t32.5 -27q18 -20 24 -44t3 -48.5t-12.5 -48.5t-21.5 -45q-23 -39 -55 -75t-69 -67.5t-77 -59t-79 -48.5q-11 -6 -18 5q-3 5 -1.5 10.5t6.5 8.5zM722 932l9 11q4 5 10.5 6.5t11.5 -3.5q5 -3 7 -9.5
t-3 -11.5l-7 -8q-3 -5 -9.5 -6.5t-11.5 0.5q-14 9 -7 21zM824 932l9 11q4 5 10.5 6.5t11.5 -3.5q5 -3 7 -9.5t-3 -11.5l-7 -8q-3 -5 -9.5 -6.5t-11.5 0.5q-14 9 -7 21z" />
    <glyph glyph-name="Igrave" unicode="&#xcc;" 
d="M155 473q-28 32 -15.5 71.5t49.5 80.5t90.5 81t108 74t101.5 59t72 36q26 11 62 22.5t75 19.5t77 10t68 -7t48 -30.5t17 -60.5q-1 -34 -23 -80t-58.5 -100.5t-83.5 -114.5t-99 -121t-106 -121.5t-102.5 -115.5t-88.5 -102t-66 -82l-41 -59q-3 -5 -8.5 -7.5t-10.5 -0.5
q-11 6 -4 18l42 61q37 51 90 112.5t112 128t120.5 135.5t115.5 135t96.5 126t64.5 108q24 52 21 84t-24.5 48t-56.5 18.5t-75.5 -4t-81.5 -19t-74 -26.5q-19 -8 -61 -30.5t-93 -53t-102.5 -67.5t-88.5 -73.5t-52.5 -70.5t6.5 -60q9 -8 -2 -19q-10 -10 -19 -3zM669 985
q0 -1 2.5 -5.5t5.5 -10.5t5 -11t2 -6q-1 -6 -5.5 -5t-11 5t-13.5 9.5t-13 8.5l-7 8q-5 5 -3 11.5t7 9.5q5 5 11.5 3.5t10.5 -6.5z" />
    <glyph glyph-name="Iacute" unicode="&#xcd;" 
d="M155 473q-28 32 -15.5 71.5t49.5 80.5t90.5 81t108 74t101.5 59t72 36q26 11 62 22.5t75 19.5t77 10t68 -7t48 -30.5t17 -60.5q-1 -34 -23 -80t-58.5 -100.5t-83.5 -114.5t-99 -121t-106 -121.5t-102.5 -115.5t-88.5 -102t-66 -82l-41 -59q-3 -5 -8.5 -7.5t-10.5 -0.5
q-11 6 -4 18l42 61q37 51 90 112.5t112 128t120.5 135.5t115.5 135t96.5 126t64.5 108q24 52 21 84t-24.5 48t-56.5 18.5t-75.5 -4t-81.5 -19t-74 -26.5q-19 -8 -61 -30.5t-93 -53t-102.5 -67.5t-88.5 -73.5t-52.5 -70.5t6.5 -60q9 -8 -2 -19q-10 -10 -19 -3zM696 989
q7 5 14 6.5t10 -3.5q4 -3 2.5 -9.5t-8.5 -11.5l-11 -8q-8 -3 -17 -8.5t-17.5 -9.5t-13.5 -5t-3 5q0 1 4.5 6t10 11t10 10.5l5.5 5.5z" />
    <glyph glyph-name="Icircumflex" unicode="&#xce;" 
d="M155 473q-28 32 -15.5 71.5t49.5 80.5t90.5 81t108 74t101.5 59t72 36q26 11 62 22.5t75 19.5t77 10t68 -7t48 -30.5t17 -60.5q-1 -34 -23 -80t-58.5 -100.5t-83.5 -114.5t-99 -121t-106 -121.5t-102.5 -115.5t-88.5 -102t-66 -82l-41 -59q-3 -5 -8.5 -7.5t-10.5 -0.5
q-11 6 -4 18l42 61q37 51 90 112.5t112 128t120.5 135.5t115.5 135t96.5 126t64.5 108q24 52 21 84t-24.5 48t-56.5 18.5t-75.5 -4t-81.5 -19t-74 -26.5q-19 -8 -61 -30.5t-93 -53t-102.5 -67.5t-88.5 -73.5t-52.5 -70.5t6.5 -60q9 -8 -2 -19q-10 -10 -19 -3zM751 1018
q7 5 14 6.5t10 -3.5q4 -3 2.5 -9.5t-8.5 -11.5l-11 -8q-8 -3 -17 -8.5t-17.5 -9.5t-13.5 -5t-3 5q0 1 4.5 6t10 11t10 10.5l5.5 5.5zM682 1007q0 -1 2.5 -5.5t5.5 -10.5t5 -11t2 -6q-1 -6 -5.5 -5t-11 5t-13.5 9.5t-13 8.5l-7 8q-5 5 -3 11.5t7 9.5q5 5 11.5 3.5t10.5 -6.5z
" />
    <glyph glyph-name="Idieresis" unicode="&#xcf;" 
d="M155 473q-28 32 -15.5 71.5t49.5 80.5t90.5 81t108 74t101.5 59t72 36q26 11 62 22.5t75 19.5t77 10t68 -7t48 -30.5t17 -60.5q-1 -34 -23 -80t-58.5 -100.5t-83.5 -114.5t-99 -121t-106 -121.5t-102.5 -115.5t-88.5 -102t-66 -82l-41 -59q-3 -5 -8.5 -7.5t-10.5 -0.5
q-11 6 -4 18l42 61q37 51 90 112.5t112 128t120.5 135.5t115.5 135t96.5 126t64.5 108q24 52 21 84t-24.5 48t-56.5 18.5t-75.5 -4t-81.5 -19t-74 -26.5q-19 -8 -61 -30.5t-93 -53t-102.5 -67.5t-88.5 -73.5t-52.5 -70.5t6.5 -60q9 -8 -2 -19q-10 -10 -19 -3zM625 989l9 11
q4 5 10.5 6.5t11.5 -3.5q5 -3 7 -9.5t-3 -11.5l-7 -8q-3 -5 -9.5 -6.5t-11.5 0.5q-14 9 -7 21zM727 989l9 11q4 5 10.5 6.5t11.5 -3.5q5 -3 7 -9.5t-3 -11.5l-7 -8q-3 -5 -9.5 -6.5t-11.5 0.5q-14 9 -7 21z" />
    <glyph glyph-name="Ntilde" unicode="&#xd1;" horiz-adv-x="1550" 
d="M-26 -165q106 30 207 84t196 124.5t183 154.5t167.5 174.5t150 183.5t129.5 182q28 42 54 83.5t52 85.5q2 5 6 8q10 4 15.5 -2t3.5 -14q-4 -14 -8 -27t-9 -27q-49 -154 -103 -304.5t-104 -303.5q-17 -51 -33 -102.5t-28 -104.5q-3 -12 -7 -33.5t-7 -44t-2.5 -42.5
t7.5 -29t17.5 -5.5t18.5 8.5q25 13 53 38t49 45q47 45 91.5 93t86.5 97q73 85 142.5 174.5t134.5 182.5q47 66 91 136t82 142q8 15 19.5 38.5t23.5 51t22 57.5t14.5 57.5t2 51t-16.5 37.5l-1 1q-5 4 -5 9.5t4 9.5t9.5 4.5t9.5 -3.5q11 -11 16 -22q14 -28 10.5 -66.5t-16 -79
t-29.5 -78t-30 -62.5q-36 -71 -79 -139.5t-88 -134.5q-64 -94 -134 -185t-144 -179q-16 -19 -40.5 -47t-53.5 -59t-60 -63.5t-61.5 -60t-57.5 -48.5t-47 -29q-13 -5 -26 -4.5t-24 10.5q-10 10 -14 26t-4 34t2 35.5t4 29.5q8 42 19.5 84.5t23.5 84.5q24 80 51 159t55 158
q29 83 58 165t56 165q-16 -25 -31.5 -49t-32.5 -48q-60 -89 -130.5 -181t-150 -181.5t-167.5 -172t-183 -152.5t-196 -123t-207 -83q-12 -4 -16 9q-4 12 9 16zM1464 971q-18 -25 -32.5 -34t-28 -8t-26.5 8t-29 15t-35 13t-44 2q-8 -1 -9 2.5t1.5 8t7.5 9t8 6.5q19 8 33 5
t26.5 -10.5t24.5 -15.5t26 -10t32 5t42 30q5 0 9.5 -3t4.5 -9q3 -14 -11 -14z" />
    <glyph glyph-name="Ograve" unicode="&#xd2;" horiz-adv-x="1070" 
d="M720 395q64 15 122 47q3 26 2 51.5t-8.5 48.5t-21.5 41.5t-38 30.5q-27 13 -58 15t-63.5 -4t-64 -18.5t-58.5 -26.5q-10 -4 -20 -11q-13 -7 -18 5q-5 11 7 18l2 1q30 17 63 31.5t67.5 23t68.5 9.5t65 -9t52.5 -29t33.5 -44t16 -55t2 -61q38 25 71.5 57t60.5 72
q16 24 29.5 52t21.5 57.5t10 58.5t-4 56q-12 51 -49 72t-91 16q-98 -11 -192.5 -53.5t-180 -105t-160.5 -139.5t-134 -156q-35 -46 -68.5 -99.5t-62.5 -109.5t-50 -113.5t-30 -112.5q-7 -43 -4.5 -81t18 -67t45.5 -46t78 -17q72 -1 143 27.5t136.5 74t123 102t101.5 112.5
q23 30 46.5 64t44 70t36.5 73t24 73l3 15q-54 -29 -114 -42q-13 -4 -15 10q0 13 12 16zM867 427q-6 -38 -18.5 -74t-30.5 -73q-27 -55 -67 -114t-89.5 -115t-107 -106.5t-119 -88.5t-126 -60.5t-128.5 -22.5q-52 0 -87 16.5t-55 46t-26 70t0 88.5q7 55 27 114t48 116.5
t61.5 112.5t67.5 102q61 85 139.5 167.5t169 150t190.5 113t205 56.5q61 7 105.5 -18.5t59.5 -84.5q7 -30 5 -62.5t-11 -65t-24 -64t-34 -59.5q-31 -46 -70 -82t-85 -63zM796 986q0 -1 2.5 -5.5t5.5 -10.5t5 -11t2 -6q-1 -6 -5.5 -5t-11 5t-13.5 9.5t-13 8.5l-7 8
q-5 5 -3 11.5t7 9.5q5 5 11.5 3.5t10.5 -6.5z" />
    <glyph glyph-name="Oacute" unicode="&#xd3;" horiz-adv-x="1070" 
d="M720 395q64 15 122 47q3 26 2 51.5t-8.5 48.5t-21.5 41.5t-38 30.5q-27 13 -58 15t-63.5 -4t-64 -18.5t-58.5 -26.5q-10 -4 -20 -11q-13 -7 -18 5q-5 11 7 18l2 1q30 17 63 31.5t67.5 23t68.5 9.5t65 -9t52.5 -29t33.5 -44t16 -55t2 -61q38 25 71.5 57t60.5 72
q16 24 29.5 52t21.5 57.5t10 58.5t-4 56q-12 51 -49 72t-91 16q-98 -11 -192.5 -53.5t-180 -105t-160.5 -139.5t-134 -156q-35 -46 -68.5 -99.5t-62.5 -109.5t-50 -113.5t-30 -112.5q-7 -43 -4.5 -81t18 -67t45.5 -46t78 -17q72 -1 143 27.5t136.5 74t123 102t101.5 112.5
q23 30 46.5 64t44 70t36.5 73t24 73l3 15q-54 -29 -114 -42q-13 -4 -15 10q0 13 12 16zM867 427q-6 -38 -18.5 -74t-30.5 -73q-27 -55 -67 -114t-89.5 -115t-107 -106.5t-119 -88.5t-126 -60.5t-128.5 -22.5q-52 0 -87 16.5t-55 46t-26 70t0 88.5q7 55 27 114t48 116.5
t61.5 112.5t67.5 102q61 85 139.5 167.5t169 150t190.5 113t205 56.5q61 7 105.5 -18.5t59.5 -84.5q7 -30 5 -62.5t-11 -65t-24 -64t-34 -59.5q-31 -46 -70 -82t-85 -63zM857 987q7 5 14 6.5t10 -3.5q4 -3 2.5 -9.5t-8.5 -11.5l-11 -8q-8 -3 -17 -8.5t-17.5 -9.5t-13.5 -5
t-3 5q0 1 4.5 6t10 11t10 10.5l5.5 5.5z" />
    <glyph glyph-name="Ocircumflex" unicode="&#xd4;" horiz-adv-x="1070" 
d="M720 395q64 15 122 47q3 26 2 51.5t-8.5 48.5t-21.5 41.5t-38 30.5q-27 13 -58 15t-63.5 -4t-64 -18.5t-58.5 -26.5q-10 -4 -20 -11q-13 -7 -18 5q-5 11 7 18l2 1q30 17 63 31.5t67.5 23t68.5 9.5t65 -9t52.5 -29t33.5 -44t16 -55t2 -61q38 25 71.5 57t60.5 72
q16 24 29.5 52t21.5 57.5t10 58.5t-4 56q-12 51 -49 72t-91 16q-98 -11 -192.5 -53.5t-180 -105t-160.5 -139.5t-134 -156q-35 -46 -68.5 -99.5t-62.5 -109.5t-50 -113.5t-30 -112.5q-7 -43 -4.5 -81t18 -67t45.5 -46t78 -17q72 -1 143 27.5t136.5 74t123 102t101.5 112.5
q23 30 46.5 64t44 70t36.5 73t24 73l3 15q-54 -29 -114 -42q-13 -4 -15 10q0 13 12 16zM867 427q-6 -38 -18.5 -74t-30.5 -73q-27 -55 -67 -114t-89.5 -115t-107 -106.5t-119 -88.5t-126 -60.5t-128.5 -22.5q-52 0 -87 16.5t-55 46t-26 70t0 88.5q7 55 27 114t48 116.5
t61.5 112.5t67.5 102q61 85 139.5 167.5t169 150t190.5 113t205 56.5q61 7 105.5 -18.5t59.5 -84.5q7 -30 5 -62.5t-11 -65t-24 -64t-34 -59.5q-31 -46 -70 -82t-85 -63zM874 995q7 5 14 6.5t10 -3.5q4 -3 2.5 -9.5t-8.5 -11.5l-11 -8q-8 -3 -17 -8.5t-17.5 -9.5t-13.5 -5
t-3 5q0 1 4.5 6t10 11t10 10.5l5.5 5.5zM805 984q0 -1 2.5 -5.5t5.5 -10.5t5 -11t2 -6q-1 -6 -5.5 -5t-11 5t-13.5 9.5t-13 8.5l-7 8q-5 5 -3 11.5t7 9.5q5 5 11.5 3.5t10.5 -6.5z" />
    <glyph glyph-name="Otilde" unicode="&#xd5;" horiz-adv-x="1070" 
d="M720 395q64 15 122 47q3 26 2 51.5t-8.5 48.5t-21.5 41.5t-38 30.5q-27 13 -58 15t-63.5 -4t-64 -18.5t-58.5 -26.5q-10 -4 -20 -11q-13 -7 -18 5q-5 11 7 18l2 1q30 17 63 31.5t67.5 23t68.5 9.5t65 -9t52.5 -29t33.5 -44t16 -55t2 -61q38 25 71.5 57t60.5 72
q16 24 29.5 52t21.5 57.5t10 58.5t-4 56q-12 51 -49 72t-91 16q-98 -11 -192.5 -53.5t-180 -105t-160.5 -139.5t-134 -156q-35 -46 -68.5 -99.5t-62.5 -109.5t-50 -113.5t-30 -112.5q-7 -43 -4.5 -81t18 -67t45.5 -46t78 -17q72 -1 143 27.5t136.5 74t123 102t101.5 112.5
q23 30 46.5 64t44 70t36.5 73t24 73l3 15q-54 -29 -114 -42q-13 -4 -15 10q0 13 12 16zM867 427q-6 -38 -18.5 -74t-30.5 -73q-27 -55 -67 -114t-89.5 -115t-107 -106.5t-119 -88.5t-126 -60.5t-128.5 -22.5q-52 0 -87 16.5t-55 46t-26 70t0 88.5q7 55 27 114t48 116.5
t61.5 112.5t67.5 102q61 85 139.5 167.5t169 150t190.5 113t205 56.5q61 7 105.5 -18.5t59.5 -84.5q7 -30 5 -62.5t-11 -65t-24 -64t-34 -59.5q-31 -46 -70 -82t-85 -63zM1002 983q-18 -25 -32.5 -34t-28 -8t-26.5 8t-29 15t-35 13t-44 2q-8 -1 -9 2.5t1.5 8t7.5 9t8 6.5
q19 8 33 5t26.5 -10.5t24.5 -15.5t26 -10t32 5t42 30q5 0 9.5 -3t4.5 -9q3 -14 -11 -14z" />
    <glyph glyph-name="Odieresis" unicode="&#xd6;" horiz-adv-x="1070" 
d="M720 395q64 15 122 47q3 26 2 51.5t-8.5 48.5t-21.5 41.5t-38 30.5q-27 13 -58 15t-63.5 -4t-64 -18.5t-58.5 -26.5q-10 -4 -20 -11q-13 -7 -18 5q-5 11 7 18l2 1q30 17 63 31.5t67.5 23t68.5 9.5t65 -9t52.5 -29t33.5 -44t16 -55t2 -61q38 25 71.5 57t60.5 72
q16 24 29.5 52t21.5 57.5t10 58.5t-4 56q-12 51 -49 72t-91 16q-98 -11 -192.5 -53.5t-180 -105t-160.5 -139.5t-134 -156q-35 -46 -68.5 -99.5t-62.5 -109.5t-50 -113.5t-30 -112.5q-7 -43 -4.5 -81t18 -67t45.5 -46t78 -17q72 -1 143 27.5t136.5 74t123 102t101.5 112.5
q23 30 46.5 64t44 70t36.5 73t24 73l3 15q-54 -29 -114 -42q-13 -4 -15 10q0 13 12 16zM867 427q-6 -38 -18.5 -74t-30.5 -73q-27 -55 -67 -114t-89.5 -115t-107 -106.5t-119 -88.5t-126 -60.5t-128.5 -22.5q-52 0 -87 16.5t-55 46t-26 70t0 88.5q7 55 27 114t48 116.5
t61.5 112.5t67.5 102q61 85 139.5 167.5t169 150t190.5 113t205 56.5q61 7 105.5 -18.5t59.5 -84.5q7 -30 5 -62.5t-11 -65t-24 -64t-34 -59.5q-31 -46 -70 -82t-85 -63zM769 982l9 11q4 5 10.5 6.5t11.5 -3.5q5 -3 7 -9.5t-3 -11.5l-7 -8q-3 -5 -9.5 -6.5t-11.5 0.5
q-14 9 -7 21zM871 982l9 11q4 5 10.5 6.5t11.5 -3.5q5 -3 7 -9.5t-3 -11.5l-7 -8q-3 -5 -9.5 -6.5t-11.5 0.5q-14 9 -7 21z" />
    <glyph glyph-name="Ugrave" unicode="&#xd9;" horiz-adv-x="1193" 
d="M27 493q-25 38 -23 75.5t20 72t47 64t58 52.5q39 31 88.5 59.5t103.5 51t109 37.5t105 18q22 2 47.5 0.5t48 -9t40 -23t25.5 -40.5q10 -32 2 -66t-21 -64q-43 -103 -85 -205.5t-84 -205.5q-11 -27 -22.5 -53.5t-22.5 -53.5q-10 -23 -21.5 -54t-19.5 -64t-11.5 -64.5
t3.5 -55.5q4 -16 12.5 -24t19.5 -10.5t23.5 -0.5t24.5 7q36 13 74.5 42t75.5 64t70 71.5t57 65.5q52 63 99 130t92 135.5t89 137.5t89 138q30 45 61 89.5t65 87.5q3 4 7 9t9 6q12 4 16 -9v-2q1 -5 -1 -9t-5 -9q-10 -17 -20.5 -34t-20.5 -34q-75 -121 -148.5 -242
t-140.5 -247q-26 -51 -52 -102.5t-46 -104.5q-22 -54 -34 -107.5t-6 -111.5q3 -31 12.5 -60.5t26.5 -56.5q7 -11 -4 -18t-18 4q-20 30 -30.5 64t-13.5 69q-5 58 6.5 111.5t32.5 107.5q20 53 46 105t52 103q39 73 81 147q-34 -53 -68.5 -104.5t-72.5 -102.5
q-30 -41 -68.5 -89t-81.5 -94.5t-88 -87t-89 -66.5q-15 -8 -33 -16t-37 -11.5t-37 -0.5t-32 18q-22 22 -24 60.5t6.5 81t22.5 82.5t25 66q11 27 23 54t23 55q43 103 85 206t85 206q7 16 13 36t7 40t-5.5 38t-24.5 30q-20 14 -49 17.5t-60.5 1t-61 -9t-51.5 -12.5
q-44 -13 -93 -33.5t-96 -47.5t-88.5 -59.5t-70.5 -68.5q-14 -17 -25 -36t-15.5 -39.5t-1.5 -41t17 -41.5q7 -11 -4 -18t-18 3zM940 943q0 -1 2.5 -5.5t5.5 -10.5t5 -11t2 -6q-1 -6 -5.5 -5t-11 5t-13.5 9.5t-13 8.5l-7 8q-5 5 -3 11.5t7 9.5q5 5 11.5 3.5t10.5 -6.5z" />
    <glyph glyph-name="Uacute" unicode="&#xda;" horiz-adv-x="1193" 
d="M27 493q-25 38 -23 75.5t20 72t47 64t58 52.5q39 31 88.5 59.5t103.5 51t109 37.5t105 18q22 2 47.5 0.5t48 -9t40 -23t25.5 -40.5q10 -32 2 -66t-21 -64q-43 -103 -85 -205.5t-84 -205.5q-11 -27 -22.5 -53.5t-22.5 -53.5q-10 -23 -21.5 -54t-19.5 -64t-11.5 -64.5
t3.5 -55.5q4 -16 12.5 -24t19.5 -10.5t23.5 -0.5t24.5 7q36 13 74.5 42t75.5 64t70 71.5t57 65.5q52 63 99 130t92 135.5t89 137.5t89 138q30 45 61 89.5t65 87.5q3 4 7 9t9 6q12 4 16 -9v-2q1 -5 -1 -9t-5 -9q-10 -17 -20.5 -34t-20.5 -34q-75 -121 -148.5 -242
t-140.5 -247q-26 -51 -52 -102.5t-46 -104.5q-22 -54 -34 -107.5t-6 -111.5q3 -31 12.5 -60.5t26.5 -56.5q7 -11 -4 -18t-18 4q-20 30 -30.5 64t-13.5 69q-5 58 6.5 111.5t32.5 107.5q20 53 46 105t52 103q39 73 81 147q-34 -53 -68.5 -104.5t-72.5 -102.5
q-30 -41 -68.5 -89t-81.5 -94.5t-88 -87t-89 -66.5q-15 -8 -33 -16t-37 -11.5t-37 -0.5t-32 18q-22 22 -24 60.5t6.5 81t22.5 82.5t25 66q11 27 23 54t23 55q43 103 85 206t85 206q7 16 13 36t7 40t-5.5 38t-24.5 30q-20 14 -49 17.5t-60.5 1t-61 -9t-51.5 -12.5
q-44 -13 -93 -33.5t-96 -47.5t-88.5 -59.5t-70.5 -68.5q-14 -17 -25 -36t-15.5 -39.5t-1.5 -41t17 -41.5q7 -11 -4 -18t-18 3zM1001 935q7 5 14 6.5t10 -3.5q4 -3 2.5 -9.5t-8.5 -11.5l-11 -8q-8 -3 -17 -8.5t-17.5 -9.5t-13.5 -5t-3 5q0 1 4.5 6t10 11t10 10.5l5.5 5.5z
" />
    <glyph glyph-name="Ucircumflex" unicode="&#xdb;" horiz-adv-x="1193" 
d="M27 493q-25 38 -23 75.5t20 72t47 64t58 52.5q39 31 88.5 59.5t103.5 51t109 37.5t105 18q22 2 47.5 0.5t48 -9t40 -23t25.5 -40.5q10 -32 2 -66t-21 -64q-43 -103 -85 -205.5t-84 -205.5q-11 -27 -22.5 -53.5t-22.5 -53.5q-10 -23 -21.5 -54t-19.5 -64t-11.5 -64.5
t3.5 -55.5q4 -16 12.5 -24t19.5 -10.5t23.5 -0.5t24.5 7q36 13 74.5 42t75.5 64t70 71.5t57 65.5q52 63 99 130t92 135.5t89 137.5t89 138q30 45 61 89.5t65 87.5q3 4 7 9t9 6q12 4 16 -9v-2q1 -5 -1 -9t-5 -9q-10 -17 -20.5 -34t-20.5 -34q-75 -121 -148.5 -242
t-140.5 -247q-26 -51 -52 -102.5t-46 -104.5q-22 -54 -34 -107.5t-6 -111.5q3 -31 12.5 -60.5t26.5 -56.5q7 -11 -4 -18t-18 4q-20 30 -30.5 64t-13.5 69q-5 58 6.5 111.5t32.5 107.5q20 53 46 105t52 103q39 73 81 147q-34 -53 -68.5 -104.5t-72.5 -102.5
q-30 -41 -68.5 -89t-81.5 -94.5t-88 -87t-89 -66.5q-15 -8 -33 -16t-37 -11.5t-37 -0.5t-32 18q-22 22 -24 60.5t6.5 81t22.5 82.5t25 66q11 27 23 54t23 55q43 103 85 206t85 206q7 16 13 36t7 40t-5.5 38t-24.5 30q-20 14 -49 17.5t-60.5 1t-61 -9t-51.5 -12.5
q-44 -13 -93 -33.5t-96 -47.5t-88.5 -59.5t-70.5 -68.5q-14 -17 -25 -36t-15.5 -39.5t-1.5 -41t17 -41.5q7 -11 -4 -18t-18 3zM980 950q7 5 14 6.5t10 -3.5q4 -3 2.5 -9.5t-8.5 -11.5l-11 -8q-8 -3 -17 -8.5t-17.5 -9.5t-13.5 -5t-3 5q0 1 4.5 6t10 11t10 10.5l5.5 5.5z
M911 939q0 -1 2.5 -5.5t5.5 -10.5t5 -11t2 -6q-1 -6 -5.5 -5t-11 5t-13.5 9.5t-13 8.5l-7 8q-5 5 -3 11.5t7 9.5q5 5 11.5 3.5t10.5 -6.5z" />
    <glyph glyph-name="Udieresis" unicode="&#xdc;" horiz-adv-x="1193" 
d="M27 493q-25 38 -23 75.5t20 72t47 64t58 52.5q39 31 88.5 59.5t103.5 51t109 37.5t105 18q22 2 47.5 0.5t48 -9t40 -23t25.5 -40.5q10 -32 2 -66t-21 -64q-43 -103 -85 -205.5t-84 -205.5q-11 -27 -22.5 -53.5t-22.5 -53.5q-10 -23 -21.5 -54t-19.5 -64t-11.5 -64.5
t3.5 -55.5q4 -16 12.5 -24t19.5 -10.5t23.5 -0.5t24.5 7q36 13 74.5 42t75.5 64t70 71.5t57 65.5q52 63 99 130t92 135.5t89 137.5t89 138q30 45 61 89.5t65 87.5q3 4 7 9t9 6q12 4 16 -9v-2q1 -5 -1 -9t-5 -9q-10 -17 -20.5 -34t-20.5 -34q-75 -121 -148.5 -242
t-140.5 -247q-26 -51 -52 -102.5t-46 -104.5q-22 -54 -34 -107.5t-6 -111.5q3 -31 12.5 -60.5t26.5 -56.5q7 -11 -4 -18t-18 4q-20 30 -30.5 64t-13.5 69q-5 58 6.5 111.5t32.5 107.5q20 53 46 105t52 103q39 73 81 147q-34 -53 -68.5 -104.5t-72.5 -102.5
q-30 -41 -68.5 -89t-81.5 -94.5t-88 -87t-89 -66.5q-15 -8 -33 -16t-37 -11.5t-37 -0.5t-32 18q-22 22 -24 60.5t6.5 81t22.5 82.5t25 66q11 27 23 54t23 55q43 103 85 206t85 206q7 16 13 36t7 40t-5.5 38t-24.5 30q-20 14 -49 17.5t-60.5 1t-61 -9t-51.5 -12.5
q-44 -13 -93 -33.5t-96 -47.5t-88.5 -59.5t-70.5 -68.5q-14 -17 -25 -36t-15.5 -39.5t-1.5 -41t17 -41.5q7 -11 -4 -18t-18 3zM933 933l9 11q4 5 10.5 6.5t11.5 -3.5q5 -3 7 -9.5t-3 -11.5l-7 -8q-3 -5 -9.5 -6.5t-11.5 0.5q-14 9 -7 21zM1035 933l9 11q4 5 10.5 6.5
t11.5 -3.5q5 -3 7 -9.5t-3 -11.5l-7 -8q-3 -5 -9.5 -6.5t-11.5 0.5q-14 9 -7 21z" />
    <glyph glyph-name="Yacute" unicode="&#xdd;" horiz-adv-x="1215" 
d="M27 497q-25 38 -22.5 75.5t20.5 72t46.5 64t57.5 52.5q39 31 88.5 59.5t103.5 51t109 37.5t105 18q22 2 47.5 0.5t48 -9t40 -23t25.5 -40.5q10 -32 2 -66t-20 -64q-30 -71 -58.5 -141.5t-52.5 -143.5q-8 -25 -16.5 -49.5t-16.5 -50.5q-6 -17 -14 -46t-13.5 -59.5t-5 -58
t11.5 -42.5t31.5 -13t42.5 12t42 22.5t30 20.5q49 35 91.5 77t83.5 86q57 63 108.5 127.5t102.5 133.5q52 71 102 142.5t104 140.5q4 5 12.5 16t11.5 14q10 7 19 2q8 -6 4 -19q-2 -8 -8.5 -20t-10.5 -20q-21 -38 -43 -77t-44 -77q-67 -118 -133 -235t-130 -236
q-23 -44 -45.5 -88t-42.5 -89q-10 -22 -20 -43t-21 -42q-21 -41 -48.5 -85.5t-60.5 -85t-71.5 -74t-81.5 -52.5q-37 -17 -79.5 -20t-76.5 24q-32 26 -37.5 64t7.5 75q12 34 35.5 63.5t53 54t62.5 44t64 34.5q15 7 30 13.5t30 11.5q2 1 8 3q5 2 10 -0.5t7 -7.5q3 -12 -8 -17
q-50 -18 -96 -42q-26 -14 -52.5 -31.5t-50.5 -39.5t-42.5 -48t-27.5 -55q-10 -32 -2 -63.5t41 -47.5q17 -8 35.5 -8.5t36.5 3.5t35.5 11.5t32.5 16.5q43 26 81 66t70.5 86.5t59 96t46.5 94.5q33 72 70 143q47 90 95.5 177.5t98.5 175.5q31 56 62.5 111t63.5 111
q-42 -57 -82.5 -114t-82.5 -114q-55 -74 -112 -142.5t-122 -134.5q-40 -41 -89 -82.5t-100 -67.5q-14 -7 -29 -12.5t-31 -7.5q-19 -2 -35.5 3t-28.5 22q-9 15 -12 35q-4 22 -1.5 48.5t8 52.5t12.5 50t13 42q15 49 33 99q24 75 53 146.5t59 143.5q7 16 13 36t7 40t-5.5 38
t-24.5 30q-20 14 -49 17.5t-60 1t-61 -9t-52 -12.5q-44 -13 -93 -33.5t-96 -47.5t-88.5 -59.5t-70.5 -68.5q-14 -17 -25 -36t-15.5 -39.5t-1.5 -41t17 -41.5q4 -8 0 -15q-2 -2 -4 -3q-11 -7 -18 3zM965 966q7 5 14 6.5t10 -3.5q4 -3 2.5 -9.5t-8.5 -11.5l-11 -8
q-8 -3 -17 -8.5t-17.5 -9.5t-13.5 -5t-3 5q0 1 4.5 6t10 11t10 10.5l5.5 5.5z" />
    <glyph glyph-name="agrave" unicode="&#xe0;" horiz-adv-x="432" 
d="M88 299q-5 2 -15.5 1t-15.5 -3q-12 -3 -29.5 -14t-36.5 -27.5t-37 -35.5t-32 -38t-21.5 -35.5t-4.5 -27.5q0 -1 1 -2q4 -2 14.5 1.5t14.5 5.5q24 10 43.5 24t36 30.5t32.5 34.5t34 37q5 7 13 7q10 -2 13 -10v-8q-1 -1 -1 -2.5t-1 -2.5q-4 -21 6.5 -42t28.5 -32
q19 -13 42.5 -13.5t47.5 5.5t46.5 17t39.5 22q35 22 67.5 49t61.5 56q9 9 19 -1q8 -9 -1 -18q-32 -32 -67.5 -61t-73.5 -52q-21 -12 -45.5 -23t-50 -16.5t-51 -4t-47.5 15.5q-20 13 -34 34t-16 44q-13 -16 -35 -39t-47 -43t-50 -32.5t-43 -8.5q-20 3 -23 18.5t0 31.5
q5 22 20.5 45.5t36.5 45.5t44 41t43 32q8 5 20.5 10.5t26 8.5t26 2t20.5 -9q9 -9 6 -24q-4 -12 -17 -9q-11 4 -9 15zM228 433q0 -1 2.5 -5.5t5.5 -10.5t5 -11t2 -6q-1 -6 -5.5 -5t-11 5t-13.5 9.5t-13 8.5l-7 8q-5 5 -3 11.5t7 9.5q5 5 11.5 3.5t10.5 -6.5z" />
    <glyph glyph-name="aacute" unicode="&#xe1;" horiz-adv-x="432" 
d="M88 299q-5 2 -15.5 1t-15.5 -3q-12 -3 -29.5 -14t-36.5 -27.5t-37 -35.5t-32 -38t-21.5 -35.5t-4.5 -27.5q0 -1 1 -2q4 -2 14.5 1.5t14.5 5.5q24 10 43.5 24t36 30.5t32.5 34.5t34 37q5 7 13 7q10 -2 13 -10v-8q-1 -1 -1 -2.5t-1 -2.5q-4 -21 6.5 -42t28.5 -32
q19 -13 42.5 -13.5t47.5 5.5t46.5 17t39.5 22q35 22 67.5 49t61.5 56q9 9 19 -1q8 -9 -1 -18q-32 -32 -67.5 -61t-73.5 -52q-21 -12 -45.5 -23t-50 -16.5t-51 -4t-47.5 15.5q-20 13 -34 34t-16 44q-13 -16 -35 -39t-47 -43t-50 -32.5t-43 -8.5q-20 3 -23 18.5t0 31.5
q5 22 20.5 45.5t36.5 45.5t44 41t43 32q8 5 20.5 10.5t26 8.5t26 2t20.5 -9q9 -9 6 -24q-4 -12 -17 -9q-11 4 -9 15zM225 444q7 5 14 6.5t10 -3.5q4 -3 2.5 -9.5t-8.5 -11.5l-11 -8q-8 -3 -17 -8.5t-17.5 -9.5t-13.5 -5t-3 5q0 1 4.5 6t10 11t10 10.5l5.5 5.5z" />
    <glyph glyph-name="acircumflex" unicode="&#xe2;" horiz-adv-x="432" 
d="M88 299q-5 2 -15.5 1t-15.5 -3q-12 -3 -29.5 -14t-36.5 -27.5t-37 -35.5t-32 -38t-21.5 -35.5t-4.5 -27.5q0 -1 1 -2q4 -2 14.5 1.5t14.5 5.5q24 10 43.5 24t36 30.5t32.5 34.5t34 37q5 7 13 7q10 -2 13 -10v-8q-1 -1 -1 -2.5t-1 -2.5q-4 -21 6.5 -42t28.5 -32
q19 -13 42.5 -13.5t47.5 5.5t46.5 17t39.5 22q35 22 67.5 49t61.5 56q9 9 19 -1q8 -9 -1 -18q-32 -32 -67.5 -61t-73.5 -52q-21 -12 -45.5 -23t-50 -16.5t-51 -4t-47.5 15.5q-20 13 -34 34t-16 44q-13 -16 -35 -39t-47 -43t-50 -32.5t-43 -8.5q-20 3 -23 18.5t0 31.5
q5 22 20.5 45.5t36.5 45.5t44 41t43 32q8 5 20.5 10.5t26 8.5t26 2t20.5 -9q9 -9 6 -24q-4 -12 -17 -9q-11 4 -9 15zM256 444q7 5 14 6.5t10 -3.5q4 -3 2.5 -9.5t-8.5 -11.5l-11 -8q-8 -3 -17 -8.5t-17.5 -9.5t-13.5 -5t-3 5q0 1 4.5 6t10 11t10 10.5l5.5 5.5zM187 433
q0 -1 2.5 -5.5t5.5 -10.5t5 -11t2 -6q-1 -6 -5.5 -5t-11 5t-13.5 9.5t-13 8.5l-7 8q-5 5 -3 11.5t7 9.5q5 5 11.5 3.5t10.5 -6.5z" />
    <glyph glyph-name="atilde" unicode="&#xe3;" horiz-adv-x="432" 
d="M88 299q-5 2 -15.5 1t-15.5 -3q-12 -3 -29.5 -14t-36.5 -27.5t-37 -35.5t-32 -38t-21.5 -35.5t-4.5 -27.5q0 -1 1 -2q4 -2 14.5 1.5t14.5 5.5q24 10 43.5 24t36 30.5t32.5 34.5t34 37q5 7 13 7q10 -2 13 -10v-8q-1 -1 -1 -2.5t-1 -2.5q-4 -21 6.5 -42t28.5 -32
q19 -13 42.5 -13.5t47.5 5.5t46.5 17t39.5 22q35 22 67.5 49t61.5 56q9 9 19 -1q8 -9 -1 -18q-32 -32 -67.5 -61t-73.5 -52q-21 -12 -45.5 -23t-50 -16.5t-51 -4t-47.5 15.5q-20 13 -34 34t-16 44q-13 -16 -35 -39t-47 -43t-50 -32.5t-43 -8.5q-20 3 -23 18.5t0 31.5
q5 22 20.5 45.5t36.5 45.5t44 41t43 32q8 5 20.5 10.5t26 8.5t26 2t20.5 -9q9 -9 6 -24q-4 -12 -17 -9q-11 4 -9 15zM318 425q-18 -25 -32.5 -34t-28 -8t-26.5 8t-29 15t-35 13t-44 2q-8 -1 -9 2.5t1.5 8t7.5 9t8 6.5q19 8 33 5t26.5 -10.5t24.5 -15.5t26 -10t32 5t42 30
q5 0 9.5 -3t4.5 -9q3 -14 -11 -14z" />
    <glyph glyph-name="adieresis" unicode="&#xe4;" horiz-adv-x="432" 
d="M88 299q-5 2 -15.5 1t-15.5 -3q-12 -3 -29.5 -14t-36.5 -27.5t-37 -35.5t-32 -38t-21.5 -35.5t-4.5 -27.5q0 -1 1 -2q4 -2 14.5 1.5t14.5 5.5q24 10 43.5 24t36 30.5t32.5 34.5t34 37q5 7 13 7q10 -2 13 -10v-8q-1 -1 -1 -2.5t-1 -2.5q-4 -21 6.5 -42t28.5 -32
q19 -13 42.5 -13.5t47.5 5.5t46.5 17t39.5 22q35 22 67.5 49t61.5 56q9 9 19 -1q8 -9 -1 -18q-32 -32 -67.5 -61t-73.5 -52q-21 -12 -45.5 -23t-50 -16.5t-51 -4t-47.5 15.5q-20 13 -34 34t-16 44q-13 -16 -35 -39t-47 -43t-50 -32.5t-43 -8.5q-20 3 -23 18.5t0 31.5
q5 22 20.5 45.5t36.5 45.5t44 41t43 32q8 5 20.5 10.5t26 8.5t26 2t20.5 -9q9 -9 6 -24q-4 -12 -17 -9q-11 4 -9 15zM146 415l9 11q4 5 10.5 6.5t11.5 -3.5q5 -3 7 -9.5t-3 -11.5l-7 -8q-3 -5 -9.5 -6.5t-11.5 0.5q-14 9 -7 21zM248 415l9 11q4 5 10.5 6.5t11.5 -3.5
q5 -3 7 -9.5t-3 -11.5l-7 -8q-3 -5 -9.5 -6.5t-11.5 0.5q-14 9 -7 21z" />
    <glyph glyph-name="egrave" unicode="&#xe8;" horiz-adv-x="445" 
d="M-5 258q19 0 42.5 1t46 4.5t43.5 9.5t36 16q14 9 18 20t-15 19q-21 8 -47.5 2t-46.5 -15q-20 -10 -40 -25t-37 -32zM-24 235q-9 -13 -17 -28.5t-11 -31.5t1.5 -30.5t19.5 -26.5q9 -8 22.5 -13.5t24.5 -7.5q22 -5 57 5.5t72 27.5t70.5 35.5t52.5 29.5q36 21 72 42.5
t72 41.5q11 5 20.5 10t20.5 10q12 5 17 -6q2 -5 0.5 -10.5t-6.5 -7.5q-14 -6 -27.5 -13t-27.5 -15q-50 -29 -98.5 -58t-99.5 -56l-44 -22t-54 -23.5t-55 -16t-48 -0.5q-17 3 -34 11t-30 20q-22 21 -25 46.5t6 51t25.5 49t34.5 39.5q25 23 57 41.5t65 25.5q22 5 48.5 2.5
t41.5 -21.5q12 -16 7.5 -32.5t-18.5 -28.5q-17 -15 -43 -24t-54.5 -13.5t-56.5 -5.5t-50 0q-5 0 -8 3zM235 433q0 -1 2.5 -5.5t5.5 -10.5t5 -11t2 -6q-1 -6 -5.5 -5t-11 5t-13.5 9.5t-13 8.5l-7 8q-5 5 -3 11.5t7 9.5q5 5 11.5 3.5t10.5 -6.5z" />
    <glyph glyph-name="eacute" unicode="&#xe9;" horiz-adv-x="445" 
d="M-5 258q19 0 42.5 1t46 4.5t43.5 9.5t36 16q14 9 18 20t-15 19q-21 8 -47.5 2t-46.5 -15q-20 -10 -40 -25t-37 -32zM-24 235q-9 -13 -17 -28.5t-11 -31.5t1.5 -30.5t19.5 -26.5q9 -8 22.5 -13.5t24.5 -7.5q22 -5 57 5.5t72 27.5t70.5 35.5t52.5 29.5q36 21 72 42.5
t72 41.5q11 5 20.5 10t20.5 10q12 5 17 -6q2 -5 0.5 -10.5t-6.5 -7.5q-14 -6 -27.5 -13t-27.5 -15q-50 -29 -98.5 -58t-99.5 -56l-44 -22t-54 -23.5t-55 -16t-48 -0.5q-17 3 -34 11t-30 20q-22 21 -25 46.5t6 51t25.5 49t34.5 39.5q25 23 57 41.5t65 25.5q22 5 48.5 2.5
t41.5 -21.5q12 -16 7.5 -32.5t-18.5 -28.5q-17 -15 -43 -24t-54.5 -13.5t-56.5 -5.5t-50 0q-5 0 -8 3zM232 444q7 5 14 6.5t10 -3.5q4 -3 2.5 -9.5t-8.5 -11.5l-11 -8q-8 -3 -17 -8.5t-17.5 -9.5t-13.5 -5t-3 5q0 1 4.5 6t10 11t10 10.5l5.5 5.5z" />
    <glyph glyph-name="ecircumflex" unicode="&#xea;" horiz-adv-x="445" 
d="M-5 258q19 0 42.5 1t46 4.5t43.5 9.5t36 16q14 9 18 20t-15 19q-21 8 -47.5 2t-46.5 -15q-20 -10 -40 -25t-37 -32zM-24 235q-9 -13 -17 -28.5t-11 -31.5t1.5 -30.5t19.5 -26.5q9 -8 22.5 -13.5t24.5 -7.5q22 -5 57 5.5t72 27.5t70.5 35.5t52.5 29.5q36 21 72 42.5
t72 41.5q11 5 20.5 10t20.5 10q12 5 17 -6q2 -5 0.5 -10.5t-6.5 -7.5q-14 -6 -27.5 -13t-27.5 -15q-50 -29 -98.5 -58t-99.5 -56l-44 -22t-54 -23.5t-55 -16t-48 -0.5q-17 3 -34 11t-30 20q-22 21 -25 46.5t6 51t25.5 49t34.5 39.5q25 23 57 41.5t65 25.5q22 5 48.5 2.5
t41.5 -21.5q12 -16 7.5 -32.5t-18.5 -28.5q-17 -15 -43 -24t-54.5 -13.5t-56.5 -5.5t-50 0q-5 0 -8 3zM263 444q7 5 14 6.5t10 -3.5q4 -3 2.5 -9.5t-8.5 -11.5l-11 -8q-8 -3 -17 -8.5t-17.5 -9.5t-13.5 -5t-3 5q0 1 4.5 6t10 11t10 10.5l5.5 5.5zM194 433q0 -1 2.5 -5.5
t5.5 -10.5t5 -11t2 -6q-1 -6 -5.5 -5t-11 5t-13.5 9.5t-13 8.5l-7 8q-5 5 -3 11.5t7 9.5q5 5 11.5 3.5t10.5 -6.5z" />
    <glyph glyph-name="edieresis" unicode="&#xeb;" horiz-adv-x="445" 
d="M-5 258q19 0 42.5 1t46 4.5t43.5 9.5t36 16q14 9 18 20t-15 19q-21 8 -47.5 2t-46.5 -15q-20 -10 -40 -25t-37 -32zM-24 235q-9 -13 -17 -28.5t-11 -31.5t1.5 -30.5t19.5 -26.5q9 -8 22.5 -13.5t24.5 -7.5q22 -5 57 5.5t72 27.5t70.5 35.5t52.5 29.5q36 21 72 42.5
t72 41.5q11 5 20.5 10t20.5 10q12 5 17 -6q2 -5 0.5 -10.5t-6.5 -7.5q-14 -6 -27.5 -13t-27.5 -15q-50 -29 -98.5 -58t-99.5 -56l-44 -22t-54 -23.5t-55 -16t-48 -0.5q-17 3 -34 11t-30 20q-22 21 -25 46.5t6 51t25.5 49t34.5 39.5q25 23 57 41.5t65 25.5q22 5 48.5 2.5
t41.5 -21.5q12 -16 7.5 -32.5t-18.5 -28.5q-17 -15 -43 -24t-54.5 -13.5t-56.5 -5.5t-50 0q-5 0 -8 3zM153 415l9 11q4 5 10.5 6.5t11.5 -3.5q5 -3 7 -9.5t-3 -11.5l-7 -8q-3 -5 -9.5 -6.5t-11.5 0.5q-14 9 -7 21zM255 415l9 11q4 5 10.5 6.5t11.5 -3.5q5 -3 7 -9.5
t-3 -11.5l-7 -8q-3 -5 -9.5 -6.5t-11.5 0.5q-14 9 -7 21z" />
    <glyph glyph-name="igrave" unicode="&#xec;" horiz-adv-x="304" 
d="M-40 271q-11 -2 -12.5 6.5t7.5 13.5q4 1 13.5 2.5t19.5 1.5t19 -1t12 -5q3 -3 3 -7q0 -8 -6 -12q-33 -51 -30.5 -71.5t27 -21.5t65 13t83 34t81 41t59.5 33q5 3 10.5 1t7.5 -7t0.5 -10.5t-6.5 -7.5q-18 -11 -52 -28.5t-71.5 -34.5t-72 -32t-54.5 -22q-42 -15 -67 -11
t-34 20.5t-3 44t27 59.5q-7 1 -12.5 2t-13.5 -1zM164 433q0 -1 2.5 -5.5t5.5 -10.5t5 -11t2 -6q-1 -6 -5.5 -5t-11 5t-13.5 9.5t-13 8.5l-7 8q-5 5 -3 11.5t7 9.5q5 5 11.5 3.5t10.5 -6.5z" />
    <glyph glyph-name="iacute" unicode="&#xed;" horiz-adv-x="304" 
d="M-40 271q-11 -2 -12.5 6.5t7.5 13.5q4 1 13.5 2.5t19.5 1.5t19 -1t12 -5q3 -3 3 -7q0 -8 -6 -12q-33 -51 -30.5 -71.5t27 -21.5t65 13t83 34t81 41t59.5 33q5 3 10.5 1t7.5 -7t0.5 -10.5t-6.5 -7.5q-18 -11 -52 -28.5t-71.5 -34.5t-72 -32t-54.5 -22q-42 -15 -67 -11
t-34 20.5t-3 44t27 59.5q-7 1 -12.5 2t-13.5 -1zM161 444q7 5 14 6.5t10 -3.5q4 -3 2.5 -9.5t-8.5 -11.5l-11 -8q-8 -3 -17 -8.5t-17.5 -9.5t-13.5 -5t-3 5q0 1 4.5 6t10 11t10 10.5l5.5 5.5z" />
    <glyph glyph-name="icircumflex" unicode="&#xee;" horiz-adv-x="304" 
d="M-40 271q-11 -2 -12.5 6.5t7.5 13.5q4 1 13.5 2.5t19.5 1.5t19 -1t12 -5q3 -3 3 -7q0 -8 -6 -12q-33 -51 -30.5 -71.5t27 -21.5t65 13t83 34t81 41t59.5 33q5 3 10.5 1t7.5 -7t0.5 -10.5t-6.5 -7.5q-18 -11 -52 -28.5t-71.5 -34.5t-72 -32t-54.5 -22q-42 -15 -67 -11
t-34 20.5t-3 44t27 59.5q-7 1 -12.5 2t-13.5 -1zM192 444q7 5 14 6.5t10 -3.5q4 -3 2.5 -9.5t-8.5 -11.5l-11 -8q-8 -3 -17 -8.5t-17.5 -9.5t-13.5 -5t-3 5q0 1 4.5 6t10 11t10 10.5l5.5 5.5zM123 433q0 -1 2.5 -5.5t5.5 -10.5t5 -11t2 -6q-1 -6 -5.5 -5t-11 5t-13.5 9.5
t-13 8.5l-7 8q-5 5 -3 11.5t7 9.5q5 5 11.5 3.5t10.5 -6.5z" />
    <glyph glyph-name="idieresis" unicode="&#xef;" horiz-adv-x="304" 
d="M-40 271q-11 -2 -12.5 6.5t7.5 13.5q4 1 13.5 2.5t19.5 1.5t19 -1t12 -5q3 -3 3 -7q0 -8 -6 -12q-33 -51 -30.5 -71.5t27 -21.5t65 13t83 34t81 41t59.5 33q5 3 10.5 1t7.5 -7t0.5 -10.5t-6.5 -7.5q-18 -11 -52 -28.5t-71.5 -34.5t-72 -32t-54.5 -22q-42 -15 -67 -11
t-34 20.5t-3 44t27 59.5q-7 1 -12.5 2t-13.5 -1zM82 415l9 11q4 5 10.5 6.5t11.5 -3.5q5 -3 7 -9.5t-3 -11.5l-7 -8q-3 -5 -9.5 -6.5t-11.5 0.5q-14 9 -7 21zM184 415l9 11q4 5 10.5 6.5t11.5 -3.5q5 -3 7 -9.5t-3 -11.5l-7 -8q-3 -5 -9.5 -6.5t-11.5 0.5q-14 9 -7 21z" />
    <glyph glyph-name="ntilde" unicode="&#xf1;" horiz-adv-x="721" 
d="M27 280q-1 -5 -1.5 -6t-2.5 -6q-5 -11 -12 -21.5t-14 -20.5q-15 -23 -30.5 -47.5t-28.5 -49.5q-2 -5 -7 -13.5t-7 -16.5q27 16 53.5 31.5t53.5 31.5q31 18 63 36t64 33q7 3 17 7.5t20.5 8t20 5t17.5 -0.5q18 -4 23.5 -16.5t3.5 -29.5q-2 -12 -6 -27.5t-4 -26.5
q1 -8 5 -10.5t12 -4.5q15 -2 36.5 1t35.5 8q23 7 45 14.5t43 15.5q62 23 123 46.5t121 49.5q14 7 28.5 13t29.5 13q5 2 10 0t7 -7q5 -11 -6 -18q-42 -19 -84.5 -36t-85.5 -34q-47 -19 -93.5 -37t-94.5 -34q-11 -4 -24 -8.5t-24 -6.5q-17 -5 -42 -7t-42 4q-20 8 -24 24t0 35
q2 10 5 21t3 20q2 10 -5 12q-5 1 -13 -0.5t-17 -5t-17.5 -7t-12.5 -5.5q-31 -14 -62.5 -32t-60.5 -35q-28 -16 -55 -32.5t-55 -32.5q-9 -5 -20.5 -5t-17.5 11q-3 6 -2 14t4 16.5t7 16t7 13.5q14 28 31.5 55t34.5 53q5 8 11.5 17.5t9.5 17.5q2 11 14 11q14 -2 12 -15z
M462 425q-18 -25 -32.5 -34t-28 -8t-26.5 8t-29 15t-35 13t-44 2q-8 -1 -9 2.5t1.5 8t7.5 9t8 6.5q19 8 33 5t26.5 -10.5t24.5 -15.5t26 -10t32 5t42 30q5 0 9.5 -3t4.5 -9q3 -14 -11 -14z" />
    <glyph glyph-name="ograve" unicode="&#xf2;" horiz-adv-x="372" 
d="M74 282q-8 2 -11 2q5 -6 11 -11.5t11 -7.5q3 -3 11 -7q6 24 5 41q-2 12 -7.5 14.5t-16.5 -1.5q-2 -1 -3.5 -1t-3.5 -1q2 -1 4.5 -1t4.5 -1q5 -1 8.5 -5.5t1.5 -10.5q-2 -12 -15 -10zM33 282q-18 -4 -34 -14.5t-30 -26.5q-8 -10 -15.5 -23t-12 -27.5t-6 -29t1.5 -27.5
q4 -14 14 -22.5t25 -5.5q13 3 25.5 11.5t24 20.5t21 24.5t16.5 23.5q5 9 12 21t12 26q-16 8 -32 20.5t-22 28.5zM120 248q24 -8 50.5 -11.5t49.5 -1.5q42 2 84 16.5t72 44.5q4 5 9.5 5t9.5 -5q9 -9 0 -18q-23 -24 -53 -39t-63 -23q-38 -9 -83.5 -8t-83.5 15
q-9 -23 -23 -45.5t-30 -42t-33.5 -33.5t-35.5 -20q-29 -9 -50.5 4.5t-28.5 42.5q-5 18 -2.5 37.5t9.5 38t18 35.5t23 30q33 33 73 39q4 10 12.5 16t18.5 10q29 11 47 -0.5t18 -42.5q0 -18 -8 -44zM198 433q0 -1 2.5 -5.5t5.5 -10.5t5 -11t2 -6q-1 -6 -5.5 -5t-11 5
t-13.5 9.5t-13 8.5l-7 8q-5 5 -3 11.5t7 9.5q5 5 11.5 3.5t10.5 -6.5z" />
    <glyph glyph-name="oacute" unicode="&#xf3;" horiz-adv-x="372" 
d="M74 282q-8 2 -11 2q5 -6 11 -11.5t11 -7.5q3 -3 11 -7q6 24 5 41q-2 12 -7.5 14.5t-16.5 -1.5q-2 -1 -3.5 -1t-3.5 -1q2 -1 4.5 -1t4.5 -1q5 -1 8.5 -5.5t1.5 -10.5q-2 -12 -15 -10zM33 282q-18 -4 -34 -14.5t-30 -26.5q-8 -10 -15.5 -23t-12 -27.5t-6 -29t1.5 -27.5
q4 -14 14 -22.5t25 -5.5q13 3 25.5 11.5t24 20.5t21 24.5t16.5 23.5q5 9 12 21t12 26q-16 8 -32 20.5t-22 28.5zM120 248q24 -8 50.5 -11.5t49.5 -1.5q42 2 84 16.5t72 44.5q4 5 9.5 5t9.5 -5q9 -9 0 -18q-23 -24 -53 -39t-63 -23q-38 -9 -83.5 -8t-83.5 15
q-9 -23 -23 -45.5t-30 -42t-33.5 -33.5t-35.5 -20q-29 -9 -50.5 4.5t-28.5 42.5q-5 18 -2.5 37.5t9.5 38t18 35.5t23 30q33 33 73 39q4 10 12.5 16t18.5 10q29 11 47 -0.5t18 -42.5q0 -18 -8 -44zM195 444q7 5 14 6.5t10 -3.5q4 -3 2.5 -9.5t-8.5 -11.5l-11 -8
q-8 -3 -17 -8.5t-17.5 -9.5t-13.5 -5t-3 5q0 1 4.5 6t10 11t10 10.5l5.5 5.5z" />
    <glyph glyph-name="ocircumflex" unicode="&#xf4;" horiz-adv-x="372" 
d="M74 282q-8 2 -11 2q5 -6 11 -11.5t11 -7.5q3 -3 11 -7q6 24 5 41q-2 12 -7.5 14.5t-16.5 -1.5q-2 -1 -3.5 -1t-3.5 -1q2 -1 4.5 -1t4.5 -1q5 -1 8.5 -5.5t1.5 -10.5q-2 -12 -15 -10zM33 282q-18 -4 -34 -14.5t-30 -26.5q-8 -10 -15.5 -23t-12 -27.5t-6 -29t1.5 -27.5
q4 -14 14 -22.5t25 -5.5q13 3 25.5 11.5t24 20.5t21 24.5t16.5 23.5q5 9 12 21t12 26q-16 8 -32 20.5t-22 28.5zM120 248q24 -8 50.5 -11.5t49.5 -1.5q42 2 84 16.5t72 44.5q4 5 9.5 5t9.5 -5q9 -9 0 -18q-23 -24 -53 -39t-63 -23q-38 -9 -83.5 -8t-83.5 15
q-9 -23 -23 -45.5t-30 -42t-33.5 -33.5t-35.5 -20q-29 -9 -50.5 4.5t-28.5 42.5q-5 18 -2.5 37.5t9.5 38t18 35.5t23 30q33 33 73 39q4 10 12.5 16t18.5 10q29 11 47 -0.5t18 -42.5q0 -18 -8 -44zM226 444q7 5 14 6.5t10 -3.5q4 -3 2.5 -9.5t-8.5 -11.5l-11 -8
q-8 -3 -17 -8.5t-17.5 -9.5t-13.5 -5t-3 5q0 1 4.5 6t10 11t10 10.5l5.5 5.5zM157 433q0 -1 2.5 -5.5t5.5 -10.5t5 -11t2 -6q-1 -6 -5.5 -5t-11 5t-13.5 9.5t-13 8.5l-7 8q-5 5 -3 11.5t7 9.5q5 5 11.5 3.5t10.5 -6.5z" />
    <glyph glyph-name="otilde" unicode="&#xf5;" horiz-adv-x="372" 
d="M74 282q-8 2 -11 2q5 -6 11 -11.5t11 -7.5q3 -3 11 -7q6 24 5 41q-2 12 -7.5 14.5t-16.5 -1.5q-2 -1 -3.5 -1t-3.5 -1q2 -1 4.5 -1t4.5 -1q5 -1 8.5 -5.5t1.5 -10.5q-2 -12 -15 -10zM33 282q-18 -4 -34 -14.5t-30 -26.5q-8 -10 -15.5 -23t-12 -27.5t-6 -29t1.5 -27.5
q4 -14 14 -22.5t25 -5.5q13 3 25.5 11.5t24 20.5t21 24.5t16.5 23.5q5 9 12 21t12 26q-16 8 -32 20.5t-22 28.5zM120 248q24 -8 50.5 -11.5t49.5 -1.5q42 2 84 16.5t72 44.5q4 5 9.5 5t9.5 -5q9 -9 0 -18q-23 -24 -53 -39t-63 -23q-38 -9 -83.5 -8t-83.5 15
q-9 -23 -23 -45.5t-30 -42t-33.5 -33.5t-35.5 -20q-29 -9 -50.5 4.5t-28.5 42.5q-5 18 -2.5 37.5t9.5 38t18 35.5t23 30q33 33 73 39q4 10 12.5 16t18.5 10q29 11 47 -0.5t18 -42.5q0 -18 -8 -44zM288 425q-18 -25 -32.5 -34t-28 -8t-26.5 8t-29 15t-35 13t-44 2
q-8 -1 -9 2.5t1.5 8t7.5 9t8 6.5q19 8 33 5t26.5 -10.5t24.5 -15.5t26 -10t32 5t42 30q5 0 9.5 -3t4.5 -9q3 -14 -11 -14z" />
    <glyph glyph-name="odieresis" unicode="&#xf6;" horiz-adv-x="372" 
d="M74 282q-8 2 -11 2q5 -6 11 -11.5t11 -7.5q3 -3 11 -7q6 24 5 41q-2 12 -7.5 14.5t-16.5 -1.5q-2 -1 -3.5 -1t-3.5 -1q2 -1 4.5 -1t4.5 -1q5 -1 8.5 -5.5t1.5 -10.5q-2 -12 -15 -10zM33 282q-18 -4 -34 -14.5t-30 -26.5q-8 -10 -15.5 -23t-12 -27.5t-6 -29t1.5 -27.5
q4 -14 14 -22.5t25 -5.5q13 3 25.5 11.5t24 20.5t21 24.5t16.5 23.5q5 9 12 21t12 26q-16 8 -32 20.5t-22 28.5zM120 248q24 -8 50.5 -11.5t49.5 -1.5q42 2 84 16.5t72 44.5q4 5 9.5 5t9.5 -5q9 -9 0 -18q-23 -24 -53 -39t-63 -23q-38 -9 -83.5 -8t-83.5 15
q-9 -23 -23 -45.5t-30 -42t-33.5 -33.5t-35.5 -20q-29 -9 -50.5 4.5t-28.5 42.5q-5 18 -2.5 37.5t9.5 38t18 35.5t23 30q33 33 73 39q4 10 12.5 16t18.5 10q29 11 47 -0.5t18 -42.5q0 -18 -8 -44zM116 415l9 11q4 5 10.5 6.5t11.5 -3.5q5 -3 7 -9.5t-3 -11.5l-7 -8
q-3 -5 -9.5 -6.5t-11.5 0.5q-14 9 -7 21zM218 415l9 11q4 5 10.5 6.5t11.5 -3.5q5 -3 7 -9.5t-3 -11.5l-7 -8q-3 -5 -9.5 -6.5t-11.5 0.5q-14 9 -7 21z" />
    <glyph glyph-name="ugrave" unicode="&#xf9;" horiz-adv-x="592" 
d="M23 279q-4 -11 -10.5 -25t-12.5 -26q-5 -9 -14 -27.5t-16.5 -39.5t-10 -39.5t6.5 -27.5q6 -6 18.5 -3t25.5 10t24.5 15.5t17.5 12.5q31 25 60.5 53.5t57.5 57.5q22 23 43.5 46.5t44.5 46.5q5 5 15.5 15t17.5 12q8 2 13 -4t3 -14q-2 -5 -8 -14.5t-9 -14.5
q-6 -11 -17.5 -30.5t-20.5 -41.5t-11.5 -42t8.5 -31q7 -7 20.5 -7.5t29.5 2t30.5 6.5t22.5 7q43 14 86.5 34t82.5 41q20 11 39.5 22t37.5 24q5 3 10 2t8 -5q7 -12 -3 -19q-15 -11 -30.5 -20t-31.5 -18q-42 -23 -86.5 -44.5t-89.5 -37.5q-14 -5 -34 -11t-40.5 -9t-39.5 -0.5
t-31 14.5q-11 11 -14 25.5t-1 31t8 33.5t14 33q-11 -11 -21 -22l-20 -22l-42.5 -42.5t-54 -50t-57 -44.5t-50.5 -25q-20 -5 -35 2t-21 27q-5 16 -1.5 36.5t11 41.5t17 40.5t16.5 33.5q5 9 10.5 20t8.5 20q4 13 16 9t9 -17zM308 433q0 -1 2.5 -5.5t5.5 -10.5t5 -11t2 -6
q-1 -6 -5.5 -5t-11 5t-13.5 9.5t-13 8.5l-7 8q-5 5 -3 11.5t7 9.5q5 5 11.5 3.5t10.5 -6.5z" />
    <glyph glyph-name="uacute" unicode="&#xfa;" horiz-adv-x="592" 
d="M23 279q-4 -11 -10.5 -25t-12.5 -26q-5 -9 -14 -27.5t-16.5 -39.5t-10 -39.5t6.5 -27.5q6 -6 18.5 -3t25.5 10t24.5 15.5t17.5 12.5q31 25 60.5 53.5t57.5 57.5q22 23 43.5 46.5t44.5 46.5q5 5 15.5 15t17.5 12q8 2 13 -4t3 -14q-2 -5 -8 -14.5t-9 -14.5
q-6 -11 -17.5 -30.5t-20.5 -41.5t-11.5 -42t8.5 -31q7 -7 20.5 -7.5t29.5 2t30.5 6.5t22.5 7q43 14 86.5 34t82.5 41q20 11 39.5 22t37.5 24q5 3 10 2t8 -5q7 -12 -3 -19q-15 -11 -30.5 -20t-31.5 -18q-42 -23 -86.5 -44.5t-89.5 -37.5q-14 -5 -34 -11t-40.5 -9t-39.5 -0.5
t-31 14.5q-11 11 -14 25.5t-1 31t8 33.5t14 33q-11 -11 -21 -22l-20 -22l-42.5 -42.5t-54 -50t-57 -44.5t-50.5 -25q-20 -5 -35 2t-21 27q-5 16 -1.5 36.5t11 41.5t17 40.5t16.5 33.5q5 9 10.5 20t8.5 20q4 13 16 9t9 -17zM305 444q7 5 14 6.5t10 -3.5q4 -3 2.5 -9.5
t-8.5 -11.5l-11 -8q-8 -3 -17 -8.5t-17.5 -9.5t-13.5 -5t-3 5q0 1 4.5 6t10 11t10 10.5l5.5 5.5z" />
    <glyph glyph-name="udieresis" unicode="&#xfc;" horiz-adv-x="592" 
d="M23 279q-4 -11 -10.5 -25t-12.5 -26q-5 -9 -14 -27.5t-16.5 -39.5t-10 -39.5t6.5 -27.5q6 -6 18.5 -3t25.5 10t24.5 15.5t17.5 12.5q31 25 60.5 53.5t57.5 57.5q22 23 43.5 46.5t44.5 46.5q5 5 15.5 15t17.5 12q8 2 13 -4t3 -14q-2 -5 -8 -14.5t-9 -14.5
q-6 -11 -17.5 -30.5t-20.5 -41.5t-11.5 -42t8.5 -31q7 -7 20.5 -7.5t29.5 2t30.5 6.5t22.5 7q43 14 86.5 34t82.5 41q20 11 39.5 22t37.5 24q5 3 10 2t8 -5q7 -12 -3 -19q-15 -11 -30.5 -20t-31.5 -18q-42 -23 -86.5 -44.5t-89.5 -37.5q-14 -5 -34 -11t-40.5 -9t-39.5 -0.5
t-31 14.5q-11 11 -14 25.5t-1 31t8 33.5t14 33q-11 -11 -21 -22l-20 -22l-42.5 -42.5t-54 -50t-57 -44.5t-50.5 -25q-20 -5 -35 2t-21 27q-5 16 -1.5 36.5t11 41.5t17 40.5t16.5 33.5q5 9 10.5 20t8.5 20q4 13 16 9t9 -17zM226 415l9 11q4 5 10.5 6.5t11.5 -3.5q5 -3 7 -9.5
t-3 -11.5l-7 -8q-3 -5 -9.5 -6.5t-11.5 0.5q-14 9 -7 21zM328 415l9 11q4 5 10.5 6.5t11.5 -3.5q5 -3 7 -9.5t-3 -11.5l-7 -8q-3 -5 -9.5 -6.5t-11.5 0.5q-14 9 -7 21z" />
    <glyph glyph-name="ydieresis" unicode="&#xff;" horiz-adv-x="464" 
d="M23 273q-14 -23 -25.5 -44.5t-22.5 -46.5q-2 -7 -5.5 -14t-5.5 -14q-1 -2 -2 -8.5t1 -8.5q7 -2 19.5 2.5t18.5 7.5q16 9 37.5 27.5t42.5 39.5t40.5 42t32.5 36q14 16 28.5 32t28.5 33q4 5 8 9t10 3q10 0 12 -10v-8q-1 -2 -3 -7t-3 -7q-13 -32 -25 -64t-25 -64
q67 31 136.5 53.5t140.5 35.5q8 2 12 2q12 3 16 -10q2 -14 -11 -16q-35 -6 -68 -13.5t-67 -18.5q-86 -27 -174 -70q-8 -20 -16.5 -38.5t-16.5 -37.5q-17 -36 -39 -76.5t-48 -78.5t-56.5 -72t-63.5 -56q-23 -17 -51 -27.5t-57 -12.5q-35 -1 -48.5 20.5t-2.5 53.5q7 25 24 51
t38 51.5t43.5 48t42.5 39.5q52 45 109.5 83.5t120.5 70.5q11 25 20.5 49.5t18.5 50.5q-12 -14 -24.5 -28.5t-25.5 -28.5q-23 -24 -49 -49t-52 -45q-8 -6 -19 -13t-23 -11.5t-24 -5.5t-21 5q-14 8 -15 21.5t4 25.5q2 8 5.5 15t5.5 15q11 26 23.5 48t26.5 46q7 12 18 5
q12 -7 5 -18zM133 152q-65 -35 -124 -78t-110 -92q-14 -14 -30.5 -32t-31.5 -38t-27 -40.5t-16 -38.5q-8 -33 24 -33q20 0 39.5 6.5t36.5 15.5q35 19 67.5 52.5t60.5 73.5t51 81.5t40 77.5q5 11 10 22.5t10 22.5zM162 415l9 11q4 5 10.5 6.5t11.5 -3.5q5 -3 7 -9.5t-3 -11.5
l-7 -8q-3 -5 -9.5 -6.5t-11.5 0.5q-14 9 -7 21zM264 415l9 11q4 5 10.5 6.5t11.5 -3.5q5 -3 7 -9.5t-3 -11.5l-7 -8q-3 -5 -9.5 -6.5t-11.5 0.5q-14 9 -7 21z" />
    <glyph glyph-name="Scaron" unicode="&#x160;" horiz-adv-x="1075" 
d="M1147 732q16 15 22 32.5t3.5 35t-13 34t-25.5 30.5q-22 19 -49 30.5t-56.5 17.5t-59.5 7t-58 -1q-55 -4 -126 -21t-148.5 -45.5t-156.5 -67.5t-151.5 -87t-132.5 -104.5t-100 -119.5t-54.5 -132.5t5.5 -143.5q9 -36 28.5 -57.5t46 -32.5t57.5 -12t64 5q38 7 89.5 27
t108 41t113.5 39t106.5 22t86 -12t51.5 -62q84 53 181 97q23 11 46 21t46 21l4 2q13 5 18 -7q2 -5 0 -10t-7 -7q-23 -11 -47 -21.5t-47 -21.5q-98 -46 -190 -102q1 -10 -0.5 -19.5t-3.5 -19.5q-7 -27 -22 -54t-34.5 -52t-42 -46.5t-44.5 -37.5q-14 -10 -31.5 -21t-36.5 -20
t-38 -15.5t-36 -7.5q-14 -1 -27 3t-17 19q-3 12 4 25.5t18 27t23.5 25t20.5 19.5q57 54 116.5 100t122.5 87q-6 42 -41 54t-87.5 5t-115 -27t-122.5 -42t-112 -40t-82 -21q-67 -6 -119.5 21t-72.5 96q-22 78 -8.5 151.5t54 140.5t102.5 126.5t136.5 110.5t157.5 92t164 70.5
t155.5 46.5t133.5 20q30 2 62.5 0t64 -9t60.5 -20.5t52 -34.5q19 -18 30.5 -39t13.5 -43.5t-6.5 -44.5t-28.5 -41q-4 -4 -9.5 -4t-9.5 5q-4 4 -3.5 9.5t4.5 9.5zM775 109q-56 -37 -108 -77.5t-103 -87.5q-11 -11 -23 -22t-23 -23q-2 -2 -6 -7t-8 -10.5t-6.5 -11t-2.5 -8.5
q2 -2 7 -2t8 1q14 1 30.5 6.5t32.5 13t31 16.5t27 17q39 26 74 65t55 83q10 21 15 47zM583 952q7 5 14 6.5t10 -3.5q4 -3 2.5 -9.5t-8.5 -11.5l-11 -8q-8 -3 -17 -8.5t-17.5 -9.5t-13.5 -5t-3 5q0 1 4.5 6t10 11t10 10.5l5.5 5.5zM514 941q0 -1 2.5 -5.5t5.5 -10.5t5 -11
t2 -6q-1 -6 -5.5 -5t-11 5t-13.5 9.5t-13 8.5l-7 8q-5 5 -3 11.5t7 9.5q5 5 11.5 3.5t10.5 -6.5z" />
    <glyph glyph-name="scaron" unicode="&#x161;" horiz-adv-x="344" 
d="M25 301q5 -12 7 -26t3 -28q5 2 15 4q75 18 152.5 29.5t153.5 18.5q13 0 15 -12q0 -13 -13 -15q-75 -7 -152 -18t-150 -29q-6 -1 -11.5 -2t-11.5 -3q-3 -32 -12.5 -62.5t-22.5 -55.5q-14 -27 -31.5 -48t-40.5 -40q-12 -10 -28 -20.5t-33.5 -18t-35.5 -11t-34 1.5
q-27 7 -35.5 28.5t-2.5 46.5q4 19 15.5 38.5t26.5 37t32 32.5t33 26q33 24 69.5 39t74.5 26q0 14 -1.5 27t-6.5 25q-3 12 8 17q5 2 10 -0.5t7 -7.5zM6 212q-26 -8 -51.5 -17.5t-48.5 -23.5q-32 -19 -66 -50.5t-50 -65.5q-4 -9 -7 -19.5t-2 -20.5t7 -17t19 -8q13 -2 27.5 2.5
t28.5 11.5t27 16t23 17q23 19 39 41.5t29 48.5q8 18 14.5 40t10.5 45zM212 444q7 5 14 6.5t10 -3.5q4 -3 2.5 -9.5t-8.5 -11.5l-11 -8q-8 -3 -17 -8.5t-17.5 -9.5t-13.5 -5t-3 5q0 1 4.5 6t10 11t10 10.5l5.5 5.5zM143 433q0 -1 2.5 -5.5t5.5 -10.5t5 -11t2 -6
q-1 -6 -5.5 -5t-11 5t-13.5 9.5t-13 8.5l-7 8q-5 5 -3 11.5t7 9.5q5 5 11.5 3.5t10.5 -6.5z" />
    <glyph glyph-name="Ydieresis" unicode="&#x178;" horiz-adv-x="1215" 
d="M27 497q-25 38 -22.5 75.5t20.5 72t46.5 64t57.5 52.5q39 31 88.5 59.5t103.5 51t109 37.5t105 18q22 2 47.5 0.5t48 -9t40 -23t25.5 -40.5q10 -32 2 -66t-20 -64q-30 -71 -58.5 -141.5t-52.5 -143.5q-8 -25 -16.5 -49.5t-16.5 -50.5q-6 -17 -14 -46t-13.5 -59.5t-5 -58
t11.5 -42.5t31.5 -13t42.5 12t42 22.5t30 20.5q49 35 91.5 77t83.5 86q57 63 108.5 127.5t102.5 133.5q52 71 102 142.5t104 140.5q4 5 12.5 16t11.5 14q10 7 19 2q8 -6 4 -19q-2 -8 -8.5 -20t-10.5 -20q-21 -38 -43 -77t-44 -77q-67 -118 -133 -235t-130 -236
q-23 -44 -45.5 -88t-42.5 -89q-10 -22 -20 -43t-21 -42q-21 -41 -48.5 -85.5t-60.5 -85t-71.5 -74t-81.5 -52.5q-37 -17 -79.5 -20t-76.5 24q-32 26 -37.5 64t7.5 75q12 34 35.5 63.5t53 54t62.5 44t64 34.5q15 7 30 13.5t30 11.5q2 1 8 3q5 2 10 -0.5t7 -7.5q3 -12 -8 -17
q-50 -18 -96 -42q-26 -14 -52.5 -31.5t-50.5 -39.5t-42.5 -48t-27.5 -55q-10 -32 -2 -63.5t41 -47.5q17 -8 35.5 -8.5t36.5 3.5t35.5 11.5t32.5 16.5q43 26 81 66t70.5 86.5t59 96t46.5 94.5q33 72 70 143q47 90 95.5 177.5t98.5 175.5q31 56 62.5 111t63.5 111
q-42 -57 -82.5 -114t-82.5 -114q-55 -74 -112 -142.5t-122 -134.5q-40 -41 -89 -82.5t-100 -67.5q-14 -7 -29 -12.5t-31 -7.5q-19 -2 -35.5 3t-28.5 22q-9 15 -12 35q-4 22 -1.5 48.5t8 52.5t12.5 50t13 42q15 49 33 99q24 75 53 146.5t59 143.5q7 16 13 36t7 40t-5.5 38
t-24.5 30q-20 14 -49 17.5t-60 1t-61 -9t-52 -12.5q-44 -13 -93 -33.5t-96 -47.5t-88.5 -59.5t-70.5 -68.5q-14 -17 -25 -36t-15.5 -39.5t-1.5 -41t17 -41.5q4 -8 0 -15q-2 -2 -4 -3q-11 -7 -18 3zM921 948l9 11q4 5 10.5 6.5t11.5 -3.5q5 -3 7 -9.5t-3 -11.5l-7 -8
q-3 -5 -9.5 -6.5t-11.5 0.5q-14 9 -7 21zM1023 948l9 11q4 5 10.5 6.5t11.5 -3.5q5 -3 7 -9.5t-3 -11.5l-7 -8q-3 -5 -9.5 -6.5t-11.5 0.5q-14 9 -7 21z" />
    <glyph glyph-name="zcaron" unicode="&#x17e;" horiz-adv-x="414" 
d="M8 306q10 4 39 16t62 26t61 27.5t36 21.5q0 -1 -1 -2q15 10 19 8q16 -7 4 -21h1q-51 -53 -103.5 -102t-106.5 -97q27 10 57.5 18t55 8t40 -10t13.5 -36q53 28 100.5 53.5t82.5 47.5l51 32q10 8 19 -3q3 -5 2 -10.5t-6 -8.5q-47 -30 -90.5 -56t-91.5 -52q-15 -8 -34 -18
t-42 -21q-12 -29 -41 -66t-67.5 -75t-83.5 -74.5t-87.5 -63.5t-79.5 -42t-61 -11q-18 3 -20 15t4.5 28.5t20 35.5t27 35.5t24.5 28.5t14 14q23 20 59 43.5t80 48.5t93.5 51.5t98.5 52.5q6 20 -4 29q-12 10 -32 8t-43 -10t-47.5 -19t-44 -18t-32 -8.5t-13.5 10.5q0 3 8 13v1
h1q12 14 36 37t49 45.5t45.5 40t25.5 22.5q2 2 9 9.5t16 17.5q-21 -9 -41 -17.5t-36 -14.5t-26.5 -9.5l-10.5 -3.5q-5 -2 -10 0.5t-7 7.5t0.5 10t7.5 7zM135 106q-56 -29 -118 -63t-115 -71t-91 -75.5t-46 -75.5q12 -1 32.5 7.5t45 22.5t51 31t50 33.5t41.5 30.5t26 21
q2 2 16 15.5t33 33.5t39.5 43.5t35.5 46.5zM273 514q7 5 14 6.5t10 -3.5q4 -3 2.5 -9.5t-8.5 -11.5l-11 -8q-8 -3 -17 -8.5t-17.5 -9.5t-13.5 -5t-3 5q0 1 4.5 6t10 11t10 10.5l5.5 5.5zM204 503q0 -1 2.5 -5.5t5.5 -10.5t5 -11t2 -6q-1 -6 -5.5 -5t-11 5t-13.5 9.5t-13 8.5
l-7 8q-5 5 -3 11.5t7 9.5q5 5 11.5 3.5t10.5 -6.5z" />
    <glyph glyph-name="Zcaron" unicode="&#x17d;" horiz-adv-x="1250" 
d="M327 713q55 32 123 62.5t142 57t152 47.5t155 34t150 17t137 -4q56 -7 87.5 -24.5t43.5 -42t6.5 -54.5t-23 -61t-44.5 -61.5t-58 -56.5q-48 -39 -111.5 -80.5t-136 -83.5t-149.5 -84t-150 -82q-55 -30 -105.5 -59t-94.5 -56q-7 -4 -33 -21t-63.5 -41.5t-81.5 -55
t-85.5 -62t-77 -61t-55 -53t-19 -38.5t29.5 -17t73.5 5.5t97 20t109.5 29t111.5 32t103 29t83.5 20.5q18 4 45 8.5t59 8.5t67.5 6.5t71.5 2.5q42 -1 80.5 -7t69 -20t49.5 -37t21 -58q2 -34 -12 -56.5t-38 -42.5q-5 -3 -10.5 -2t-8.5 6q-6 11 3 18l1 1q18 15 29 32t9 42
q-2 26 -16 43.5t-37 29t-54 17t-65 6.5q-44 2 -91.5 -2t-90.5 -10t-78 -13.5t-54 -11.5q-28 -7 -73 -20t-98.5 -28.5t-110.5 -31t-109 -27t-94 -16t-65 1.5q-35 9 -36.5 31t19.5 51.5t60 64.5t86 71t97 70t93 62t74.5 47t41.5 25q30 19 69.5 40.5t85.5 47.5q58 32 123 68
t130.5 73.5t127 75.5t113.5 75t90 72t56 66q21 36 23.5 62.5t-10.5 44.5t-40 28.5t-64 15.5q-62 8 -133 4t-146.5 -16.5t-152 -33.5t-149 -46.5t-139 -55.5t-120.5 -61l-2 -1q-5 -3 -10.5 -2t-8.5 6q-7 12 5 19zM904 1043q7 5 14 6.5t10 -3.5q4 -3 2.5 -9.5t-8.5 -11.5
l-11 -8q-8 -3 -17 -8.5t-17.5 -9.5t-13.5 -5t-3 5q0 1 4.5 6t10 11t10 10.5l5.5 5.5zM835 1032q0 -1 2.5 -5.5t5.5 -10.5t5 -11t2 -6q-1 -6 -5.5 -5t-11 5t-13.5 9.5t-13 8.5l-7 8q-5 5 -3 11.5t7 9.5q5 5 11.5 3.5t10.5 -6.5z" />
    <glyph glyph-name="n" unicode="n" horiz-adv-x="721" 
d="M27 280q-1 -5 -1.5 -6t-2.5 -6q-5 -11 -12 -21.5t-14 -20.5q-15 -23 -30.5 -47.5t-28.5 -49.5q-2 -5 -7 -13.5t-7 -16.5q27 16 53.5 31.5t53.5 31.5q31 18 63 36t64 33q7 3 17 7.5t20.5 8t20 5t17.5 -0.5q18 -4 23.5 -16.5t3.5 -29.5q-2 -12 -6 -27.5t-4 -26.5
q1 -8 5 -10.5t12 -4.5q15 -2 36.5 1t35.5 8q23 7 45 14.5t43 15.5q62 23 123 46.5t121 49.5q14 7 28.5 13t29.5 13q5 2 10 0t7 -7q5 -11 -6 -18q-42 -19 -84.5 -36t-85.5 -34q-47 -19 -93.5 -37t-94.5 -34q-11 -4 -24 -8.5t-24 -6.5q-17 -5 -42 -7t-42 4q-20 8 -24 24t0 35
q2 10 5 21t3 20q2 10 -5 12q-5 1 -13 -0.5t-17 -5t-17.5 -7t-12.5 -5.5q-31 -14 -62.5 -32t-60.5 -35q-28 -16 -55 -32.5t-55 -32.5q-9 -5 -20.5 -5t-17.5 11q-3 6 -2 14t4 16.5t7 16t7 13.5q14 28 31.5 55t34.5 53q5 8 11.5 17.5t9.5 17.5q2 11 14 11q14 -2 12 -15z" />
    <glyph glyph-name="m" unicode="m" horiz-adv-x="792" 
d="M20 275q-8 -13 -16.5 -25t-16.5 -25q-5 -8 -16 -26.5t-16 -31.5q6 3 14.5 7.5t17.5 9l16 8t10 5.5q14 7 33.5 17t41 18.5t42 13.5t35.5 2q19 -5 26.5 -17.5t8.5 -29.5q0 -5 -0.5 -15.5t1.5 -13.5q5 -2 14 1.5t14 6.5q23 13 43 26q6 4 17 11t23 13.5t23.5 10.5t19.5 3
q19 -2 28 -19q8 -12 7 -24.5t0 -25.5q1 -16 18 -17q19 -2 46.5 4t46.5 12q31 10 62 22l62 24q35 14 70.5 29t70.5 32l16 8t16 9q11 7 18 -5q7 -11 -5 -18q-17 -10 -35.5 -18.5t-36.5 -16.5q-44 -20 -88.5 -38t-89.5 -35q-20 -8 -41.5 -15t-42.5 -12q-10 -3 -23.5 -5.5
t-28 -3.5t-27 1.5t-21.5 9.5q-14 12 -13.5 27.5t-0.5 30.5q0 13 -11 18q-5 0 -13.5 -4.5t-18.5 -9.5t-19 -10.5t-13 -8.5q-11 -7 -22.5 -14.5t-23.5 -14.5q-8 -5 -21.5 -9t-23.5 -2q-16 3 -20 14.5t-4 25.5v19t-7 15q-10 6 -30.5 1t-43.5 -14.5t-43.5 -20t-30.5 -15.5
q-6 -3 -14.5 -8t-18 -10t-18.5 -9t-14 -5q-11 -2 -18.5 3t-8.5 16q0 8 4 19.5t10.5 23.5t13 23t11.5 18l33 48q2 5 7.5 6t10.5 -2q11 -7 4 -18z" />
    <glyph glyph-name="s" unicode="s" horiz-adv-x="344" 
d="M25 301q5 -12 7 -26t3 -28q5 2 15 4q75 18 152.5 29.5t153.5 18.5q13 0 15 -12q0 -13 -13 -15q-75 -7 -152 -18t-150 -29q-6 -1 -11.5 -2t-11.5 -3q-3 -32 -12.5 -62.5t-22.5 -55.5q-14 -27 -31.5 -48t-40.5 -40q-12 -10 -28 -20.5t-33.5 -18t-35.5 -11t-34 1.5
q-27 7 -35.5 28.5t-2.5 46.5q4 19 15.5 38.5t26.5 37t32 32.5t33 26q33 24 69.5 39t74.5 26q0 14 -1.5 27t-6.5 25q-3 12 8 17q5 2 10 -0.5t7 -7.5zM6 212q-26 -8 -51.5 -17.5t-48.5 -23.5q-32 -19 -66 -50.5t-50 -65.5q-4 -9 -7 -19.5t-2 -20.5t7 -17t19 -8q13 -2 27.5 2.5
t28.5 11.5t27 16t23 17q23 19 39 41.5t29 48.5q8 18 14.5 40t10.5 45z" />
  </font>
</defs>
</svg>
