<svg xmlns="http://www.w3.org/2000/svg" viewBox="0 0 750.97 119.15"><defs><style>.cls-1{fill:#474848;}.cls-2{fill:#00a162;}</style></defs><title>green-wave_1</title><g id="Layer_2" data-name="Layer 2"><g id="レイヤー_3" data-name="レイヤー 3"><path class="cls-1" d="M0,3.34V89.15c15.2,0,26.73,7,34.56,14.5l.38.36c7.76,7.44,15.79,15.14,31.64,15.14s23.87-7.7,31.63-15.14l.38-.36H97.14l.38-.36c7.76-7.45,15.79-15.14,31.63-15.14s23.87,7.69,31.64,15.14l.38.36h-1.45l.38.36c7.76,7.44,15.79,15.14,31.63,15.14s23.87-7.7,31.64-15.14l.38-.36c7.83-7.51,15.36-14.5,30.56-14.5s22.73,7,30.57,14.5l.38.36c7.76,7.44,15.78,15.14,31.63,15.14s23.87-7.7,31.64-15.14l.38-.36c7.83-7.51,15.36-14.5,30.56-14.5s22.74,7,30.57,14.5l.38.36c7.76,7.44,15.79,15.14,31.63,15.14s23.88-7.7,31.64-15.14l.38-.36c7.83-7.51,15.36-14.5,30.56-14.5s22.73,7,30.57,14.5l.38.36c7.76,7.44,15.79,15.14,31.63,15.14s23.88-7.7,31.64-15.14l.38-.36c7.83-7.51,15.37-14.5,30.57-14.5s22.73,7,30.57,14.5l.37.36c7.77,7.44,15.79,15.14,31.64,15.14S716.26,111.45,724,104l.38-.36c7.83-7.51,11.37-14.5,26.57-14.5V3.34Z"/><path class="cls-2" d="M0,0V85.81c15.2,0,22.73,7,30.56,14.5l.38.36c7.76,7.44,15.79,15.14,31.64,15.14s23.87-7.7,31.63-15.14l.38-.36H93.14l.38-.36c7.76-7.44,15.79-15.14,31.63-15.14S149,92.51,156.79,100l.38.36h-1.45l.38.36c7.76,7.44,15.79,15.14,31.63,15.14s23.87-7.7,31.64-15.14l.38-.36c7.83-7.51,15.36-14.5,30.56-14.5s22.73,7,30.57,14.5l.38.36c7.76,7.44,15.78,15.14,31.63,15.14s23.87-7.7,31.64-15.14l.38-.36c7.83-7.51,15.36-14.5,30.56-14.5s22.74,7,30.57,14.5l.38.36c7.76,7.44,15.79,15.14,31.63,15.14s23.88-7.7,31.64-15.14l.38-.36c7.83-7.51,15.36-14.5,30.56-14.5s22.73,7,30.57,14.5l.38.36c7.76,7.44,15.79,15.14,31.63,15.14s23.88-7.7,31.64-15.14l.38-.36c7.83-7.51,15.37-14.5,30.57-14.5s22.73,7,30.57,14.5l.37.36c7.77,7.44,15.79,15.14,31.64,15.14s23.88-7.7,31.64-15.14l.38-.36c7.83-7.51,15.37-14.5,30.57-14.5V0Z"/></g></g></svg>